M48
; DRILL file {KiCad (5.1.10)-1} date 07/18/21 17:45:20
; FORMAT={-:-/ absolute / inch / decimal}
; #@! TF.CreationDate,2021-07-18T17:45:20+03:00
; #@! TF.GenerationSoftware,Kicad,Pcbnew,(5.1.10)-1
FMAT,2
INCH
T1C0.0157
T2C0.0197
T3C0.0315
T4C0.0394
%
G90
G05
T1
X-0.63Y-0.15
X-0.5837Y-0.1115
X-0.575Y-0.335
X-0.5539Y-0.1785
X-0.5531Y-0.3677
X-0.5469Y-0.2173
X-0.525Y-0.425
X-0.51Y0.095
X-0.51Y0.095
X-0.475Y-0.6
X-0.455Y0.1
X-0.4535Y-0.204
X-0.4286Y-0.1735
X-0.423Y-0.2325
X-0.4004Y-0.0827
X-0.3982Y-0.1485
X-0.385Y0.625
X-0.3723Y-0.1121
X-0.34Y0.555
X-0.3Y-0.08
X-0.2922Y0.5585
X-0.265Y0.095
X-0.225Y0.07
X-0.17Y0.17
X-0.15Y-0.55
X-0.122Y-0.5184
X-0.12Y0.275
X-0.095Y-0.31
X-0.09Y-0.35
X-0.09Y-0.35
X-0.0718Y-0.5465
X-0.0326Y-0.5423
X0.0295Y-0.2362
X0.03Y-0.185
X0.17Y-0.045
X0.175Y-0.085
X0.2165Y0.3248
X0.225Y0.675
X0.2292Y0.4498
X0.2559Y0.3445
X0.35Y0.0
X0.365Y-0.11
X0.395Y0.455
X0.49Y0.45
X0.55Y0.275
X0.555Y0.135
X0.7Y-0.15
X0.75Y-0.15
X0.79Y0.05
X0.875Y0.23
T2
X-0.825Y0.225
X-0.715Y0.55
X-0.585Y0.55
X-0.5829Y0.2816
X-0.525Y-0.65
X-0.4495Y0.5445
X-0.4Y-0.45
X-0.35Y0.0355
X-0.2555Y-0.45
X-0.125Y0.225
X0.0787Y0.3037
X0.1Y0.11
X0.145Y-0.235
X0.475Y-0.275
X0.525Y-0.575
X0.525Y-0.65
X0.5591Y0.1841
X0.675Y0.55
X0.775Y0.4
X0.865Y0.16
T3
X-0.6819Y-0.2953
X-0.6819Y-0.4921
X-0.0984Y0.7874
X0.0Y0.0984
X0.0Y-0.0984
X0.0984Y0.7874
X0.5835Y-0.3937
X0.7803Y-0.3937
T4
X-0.2Y-0.675
X-0.2Y-0.775
X-0.1Y-0.675
X-0.1Y-0.775
X0.0Y-0.675
X0.0Y-0.775
X0.1Y-0.675
X0.1Y-0.775
X0.2Y-0.675
X0.2Y-0.775
T0
M30
