%TF.GenerationSoftware,KiCad,Pcbnew,(5.1.10)-1*%
%TF.CreationDate,2021-07-18T17:44:11+03:00*%
%TF.ProjectId,Flow,466c6f77-2e6b-4696-9361-645f70636258,rev?*%
%TF.SameCoordinates,Original*%
%TF.FileFunction,Legend,Bot*%
%TF.FilePolarity,Positive*%
%FSLAX46Y46*%
G04 Gerber Fmt 4.6, Leading zero omitted, Abs format (unit mm)*
G04 Created by KiCad (PCBNEW (5.1.10)-1) date 2021-07-18 17:44:11*
%MOMM*%
%LPD*%
G01*
G04 APERTURE LIST*
%ADD10C,0.150000*%
%ADD11C,0.300000*%
%TA.AperFunction,Profile*%
%ADD12C,0.050000*%
%TD*%
%ADD13C,0.120000*%
%ADD14C,0.075000*%
G04 APERTURE END LIST*
D10*
X23375000Y-1589285D02*
X23375000Y-839285D01*
X23375000Y-1125000D02*
X23303571Y-1089285D01*
X23160714Y-1089285D01*
X23089285Y-1125000D01*
X23053571Y-1160714D01*
X23017857Y-1232142D01*
X23017857Y-1446428D01*
X23053571Y-1517857D01*
X23089285Y-1553571D01*
X23160714Y-1589285D01*
X23303571Y-1589285D01*
X23375000Y-1553571D01*
X22767857Y-1089285D02*
X22589285Y-1589285D01*
X22410714Y-1089285D02*
X22589285Y-1589285D01*
X22660714Y-1767857D01*
X22696428Y-1803571D01*
X22767857Y-1839285D01*
X21125000Y-1589285D02*
X21375000Y-1232142D01*
X21553571Y-1589285D02*
X21553571Y-839285D01*
X21267857Y-839285D01*
X21196428Y-875000D01*
X21160714Y-910714D01*
X21125000Y-982142D01*
X21125000Y-1089285D01*
X21160714Y-1160714D01*
X21196428Y-1196428D01*
X21267857Y-1232142D01*
X21553571Y-1232142D01*
X20517857Y-1553571D02*
X20589285Y-1589285D01*
X20732142Y-1589285D01*
X20803571Y-1553571D01*
X20839285Y-1482142D01*
X20839285Y-1196428D01*
X20803571Y-1125000D01*
X20732142Y-1089285D01*
X20589285Y-1089285D01*
X20517857Y-1125000D01*
X20482142Y-1196428D01*
X20482142Y-1267857D01*
X20839285Y-1339285D01*
X20160714Y-1589285D02*
X20160714Y-1089285D01*
X20160714Y-839285D02*
X20196428Y-875000D01*
X20160714Y-910714D01*
X20125000Y-875000D01*
X20160714Y-839285D01*
X20160714Y-910714D01*
X19803571Y-1089285D02*
X19803571Y-1589285D01*
X19803571Y-1160714D02*
X19767857Y-1125000D01*
X19696428Y-1089285D01*
X19589285Y-1089285D01*
X19517857Y-1125000D01*
X19482142Y-1196428D01*
X19482142Y-1589285D01*
X19196428Y-1089285D02*
X19017857Y-1589285D01*
X18839285Y-1089285D01*
X18267857Y-1553571D02*
X18339285Y-1589285D01*
X18482142Y-1589285D01*
X18553571Y-1553571D01*
X18589285Y-1482142D01*
X18589285Y-1196428D01*
X18553571Y-1125000D01*
X18482142Y-1089285D01*
X18339285Y-1089285D01*
X18267857Y-1125000D01*
X18232142Y-1196428D01*
X18232142Y-1267857D01*
X18589285Y-1339285D01*
X17910714Y-1089285D02*
X17910714Y-1589285D01*
X17910714Y-1160714D02*
X17875000Y-1125000D01*
X17803571Y-1089285D01*
X17696428Y-1089285D01*
X17625000Y-1125000D01*
X17589285Y-1196428D01*
X17589285Y-1589285D01*
X17339285Y-1089285D02*
X17053571Y-1089285D01*
X17232142Y-839285D02*
X17232142Y-1482142D01*
X17196428Y-1553571D01*
X17125000Y-1589285D01*
X17053571Y-1589285D01*
X16517857Y-1553571D02*
X16589285Y-1589285D01*
X16732142Y-1589285D01*
X16803571Y-1553571D01*
X16839285Y-1482142D01*
X16839285Y-1196428D01*
X16803571Y-1125000D01*
X16732142Y-1089285D01*
X16589285Y-1089285D01*
X16517857Y-1125000D01*
X16482142Y-1196428D01*
X16482142Y-1267857D01*
X16839285Y-1339285D01*
X15839285Y-1589285D02*
X15839285Y-839285D01*
X15839285Y-1553571D02*
X15910714Y-1589285D01*
X16053571Y-1589285D01*
X16125000Y-1553571D01*
X16160714Y-1517857D01*
X16196428Y-1446428D01*
X16196428Y-1232142D01*
X16160714Y-1160714D01*
X16125000Y-1125000D01*
X16053571Y-1089285D01*
X15910714Y-1089285D01*
X15839285Y-1125000D01*
X15553571Y-839285D02*
X15375000Y-1589285D01*
X15232142Y-1053571D01*
X15089285Y-1589285D01*
X14910714Y-839285D01*
X14625000Y-1589285D02*
X14625000Y-839285D01*
X14303571Y-1589285D02*
X14303571Y-1196428D01*
X14339285Y-1125000D01*
X14410714Y-1089285D01*
X14517857Y-1089285D01*
X14589285Y-1125000D01*
X14625000Y-1160714D01*
X13660714Y-1553571D02*
X13732142Y-1589285D01*
X13875000Y-1589285D01*
X13946428Y-1553571D01*
X13982142Y-1482142D01*
X13982142Y-1196428D01*
X13946428Y-1125000D01*
X13875000Y-1089285D01*
X13732142Y-1089285D01*
X13660714Y-1125000D01*
X13625000Y-1196428D01*
X13625000Y-1267857D01*
X13982142Y-1339285D01*
X13017857Y-1553571D02*
X13089285Y-1589285D01*
X13232142Y-1589285D01*
X13303571Y-1553571D01*
X13339285Y-1482142D01*
X13339285Y-1196428D01*
X13303571Y-1125000D01*
X13232142Y-1089285D01*
X13089285Y-1089285D01*
X13017857Y-1125000D01*
X12982142Y-1196428D01*
X12982142Y-1267857D01*
X13339285Y-1339285D01*
X12553571Y-1589285D02*
X12625000Y-1553571D01*
X12660714Y-1482142D01*
X12660714Y-839285D01*
D11*
X23035714Y857142D02*
X23535714Y857142D01*
X23535714Y71428D02*
X23535714Y1571428D01*
X22821428Y1571428D01*
X22035714Y71428D02*
X22178571Y142857D01*
X22250000Y285714D01*
X22250000Y1571428D01*
X21250000Y71428D02*
X21392857Y142857D01*
X21464285Y214285D01*
X21535714Y357142D01*
X21535714Y785714D01*
X21464285Y928571D01*
X21392857Y1000000D01*
X21250000Y1071428D01*
X21035714Y1071428D01*
X20892857Y1000000D01*
X20821428Y928571D01*
X20750000Y785714D01*
X20750000Y357142D01*
X20821428Y214285D01*
X20892857Y142857D01*
X21035714Y71428D01*
X21250000Y71428D01*
X20250000Y1071428D02*
X19964285Y71428D01*
X19678571Y785714D01*
X19392857Y71428D01*
X19107142Y1071428D01*
X18607142Y1428571D02*
X18535714Y1500000D01*
X18392857Y1571428D01*
X18035714Y1571428D01*
X17892857Y1500000D01*
X17821428Y1428571D01*
X17750000Y1285714D01*
X17750000Y1142857D01*
X17821428Y928571D01*
X18678571Y71428D01*
X17750000Y71428D01*
X17107142Y71428D02*
X17107142Y1571428D01*
X16750000Y1571428D01*
X16535714Y1500000D01*
X16392857Y1357142D01*
X16321428Y1214285D01*
X16250000Y928571D01*
X16250000Y714285D01*
X16321428Y428571D01*
X16392857Y285714D01*
X16535714Y142857D01*
X16750000Y71428D01*
X17107142Y71428D01*
X14607142Y1071428D02*
X14250000Y71428D01*
X13892857Y1071428D01*
X12535714Y71428D02*
X13392857Y71428D01*
X12964285Y71428D02*
X12964285Y1571428D01*
X13107142Y1357142D01*
X13250000Y1214285D01*
X13392857Y1142857D01*
X11892857Y214285D02*
X11821428Y142857D01*
X11892857Y71428D01*
X11964285Y142857D01*
X11892857Y214285D01*
X11892857Y71428D01*
X10892857Y1571428D02*
X10750000Y1571428D01*
X10607142Y1500000D01*
X10535714Y1428571D01*
X10464285Y1285714D01*
X10392857Y1000000D01*
X10392857Y642857D01*
X10464285Y357142D01*
X10535714Y214285D01*
X10607142Y142857D01*
X10750000Y71428D01*
X10892857Y71428D01*
X11035714Y142857D01*
X11107142Y214285D01*
X11178571Y357142D01*
X11250000Y642857D01*
X11250000Y1000000D01*
X11178571Y1285714D01*
X11107142Y1428571D01*
X11035714Y1500000D01*
X10892857Y1571428D01*
D12*
X-7410254Y5000000D02*
G75*
G03*
X-7410254Y5000000I-1250000J0D01*
G01*
X9910254Y5000000D02*
G75*
G03*
X9910254Y5000000I-1250000J0D01*
G01*
X1250000Y-10000000D02*
G75*
G03*
X1250000Y-10000000I-1250000J0D01*
G01*
X1666666Y0D02*
G75*
G03*
X1666666Y0I-1666666J0D01*
G01*
X-2500000Y0D02*
X2500000Y0D01*
X0Y2500000D02*
X0Y-2500000D01*
X25000000Y0D02*
G75*
G03*
X25000000Y0I-25000000J0D01*
G01*
D13*
%TO.C,LS4*%
X-12320508Y-10000000D02*
G75*
G03*
X-12320508Y-10000000I-5000000J0D01*
G01*
%TO.C,LS3*%
X5000000Y20000000D02*
G75*
G03*
X5000000Y20000000I-5000000J0D01*
G01*
%TO.C,LS2*%
X22320508Y-10000000D02*
G75*
G03*
X22320508Y-10000000I-5000000J0D01*
G01*
%TO.C,LS1*%
X5000000Y0D02*
G75*
G03*
X5000000Y0I-5000000J0D01*
G01*
%TD*%
%TO.C,LS4*%
D14*
X-17094317Y-9678571D02*
X-17094317Y-9440476D01*
X-17594317Y-9440476D01*
X-17118127Y-9821428D02*
X-17094317Y-9892857D01*
X-17094317Y-10011904D01*
X-17118127Y-10059523D01*
X-17141936Y-10083333D01*
X-17189555Y-10107142D01*
X-17237174Y-10107142D01*
X-17284793Y-10083333D01*
X-17308603Y-10059523D01*
X-17332412Y-10011904D01*
X-17356222Y-9916666D01*
X-17380031Y-9869047D01*
X-17403841Y-9845238D01*
X-17451460Y-9821428D01*
X-17499079Y-9821428D01*
X-17546698Y-9845238D01*
X-17570508Y-9869047D01*
X-17594317Y-9916666D01*
X-17594317Y-10035714D01*
X-17570508Y-10107142D01*
X-17427650Y-10535714D02*
X-17094317Y-10535714D01*
X-17618127Y-10416666D02*
X-17260984Y-10297619D01*
X-17260984Y-10607142D01*
%TO.C,LS3*%
X321428Y20088809D02*
X559523Y20088809D01*
X559523Y20588809D01*
X178571Y20112619D02*
X107142Y20088809D01*
X-11904Y20088809D01*
X-59523Y20112619D01*
X-83333Y20136428D01*
X-107142Y20184047D01*
X-107142Y20231666D01*
X-83333Y20279285D01*
X-59523Y20303095D01*
X-11904Y20326904D01*
X83333Y20350714D01*
X130952Y20374523D01*
X154761Y20398333D01*
X178571Y20445952D01*
X178571Y20493571D01*
X154761Y20541190D01*
X130952Y20565000D01*
X83333Y20588809D01*
X-35714Y20588809D01*
X-107142Y20565000D01*
X-273809Y20588809D02*
X-583333Y20588809D01*
X-416666Y20398333D01*
X-488095Y20398333D01*
X-535714Y20374523D01*
X-559523Y20350714D01*
X-583333Y20303095D01*
X-583333Y20184047D01*
X-559523Y20136428D01*
X-535714Y20112619D01*
X-488095Y20088809D01*
X-345238Y20088809D01*
X-297619Y20112619D01*
X-273809Y20136428D01*
%TO.C,LS2*%
X17641936Y-10226190D02*
X17880031Y-10226190D01*
X17880031Y-9726190D01*
X17499079Y-10202380D02*
X17427650Y-10226190D01*
X17308603Y-10226190D01*
X17260984Y-10202380D01*
X17237174Y-10178571D01*
X17213365Y-10130952D01*
X17213365Y-10083333D01*
X17237174Y-10035714D01*
X17260984Y-10011904D01*
X17308603Y-9988095D01*
X17403841Y-9964285D01*
X17451460Y-9940476D01*
X17475269Y-9916666D01*
X17499079Y-9869047D01*
X17499079Y-9821428D01*
X17475269Y-9773809D01*
X17451460Y-9750000D01*
X17403841Y-9726190D01*
X17284793Y-9726190D01*
X17213365Y-9750000D01*
X17022888Y-9773809D02*
X16999079Y-9750000D01*
X16951460Y-9726190D01*
X16832412Y-9726190D01*
X16784793Y-9750000D01*
X16760984Y-9773809D01*
X16737174Y-9821428D01*
X16737174Y-9869047D01*
X16760984Y-9940476D01*
X17046698Y-10226190D01*
X16737174Y-10226190D01*
%TO.C,LS1*%
X226190Y321428D02*
X226190Y559523D01*
X-273809Y559523D01*
X202380Y178571D02*
X226190Y107142D01*
X226190Y-11904D01*
X202380Y-59523D01*
X178571Y-83333D01*
X130952Y-107142D01*
X83333Y-107142D01*
X35714Y-83333D01*
X11904Y-59523D01*
X-11904Y-11904D01*
X-35714Y83333D01*
X-59523Y130952D01*
X-83333Y154761D01*
X-130952Y178571D01*
X-178571Y178571D01*
X-226190Y154761D01*
X-250000Y130952D01*
X-273809Y83333D01*
X-273809Y-35714D01*
X-250000Y-107142D01*
X226190Y-583333D02*
X226190Y-297619D01*
X226190Y-440476D02*
X-273809Y-440476D01*
X-202380Y-392857D01*
X-154761Y-345238D01*
X-130952Y-297619D01*
%TD*%
M02*
