%TF.GenerationSoftware,KiCad,Pcbnew,(5.1.10)-1*%
%TF.CreationDate,2021-07-18T17:44:11+03:00*%
%TF.ProjectId,Flow,466c6f77-2e6b-4696-9361-645f70636258,rev?*%
%TF.SameCoordinates,Original*%
%TF.FileFunction,Copper,L2,Bot*%
%TF.FilePolarity,Positive*%
%FSLAX46Y46*%
G04 Gerber Fmt 4.6, Leading zero omitted, Abs format (unit mm)*
G04 Created by KiCad (PCBNEW (5.1.10)-1) date 2021-07-18 17:44:11*
%MOMM*%
%LPD*%
G01*
G04 APERTURE LIST*
%TA.AperFunction,Profile*%
%ADD10C,0.050000*%
%TD*%
%TA.AperFunction,ComponentPad*%
%ADD11C,1.524000*%
%TD*%
%TA.AperFunction,ComponentPad*%
%ADD12O,1.700000X1.700000*%
%TD*%
%TA.AperFunction,ComponentPad*%
%ADD13R,1.700000X1.700000*%
%TD*%
%TA.AperFunction,ViaPad*%
%ADD14C,0.900000*%
%TD*%
%TA.AperFunction,ViaPad*%
%ADD15C,0.800000*%
%TD*%
%TA.AperFunction,Conductor*%
%ADD16C,0.350000*%
%TD*%
%TA.AperFunction,Conductor*%
%ADD17C,0.250000*%
%TD*%
%TA.AperFunction,Conductor*%
%ADD18C,0.254000*%
%TD*%
%TA.AperFunction,Conductor*%
%ADD19C,0.100000*%
%TD*%
G04 APERTURE END LIST*
D10*
X-7410254Y5000000D02*
G75*
G03*
X-7410254Y5000000I-1250000J0D01*
G01*
X9910254Y5000000D02*
G75*
G03*
X9910254Y5000000I-1250000J0D01*
G01*
X1250000Y-10000000D02*
G75*
G03*
X1250000Y-10000000I-1250000J0D01*
G01*
X1666666Y0D02*
G75*
G03*
X1666666Y0I-1666666J0D01*
G01*
X-2500000Y0D02*
X2500000Y0D01*
X0Y2500000D02*
X0Y-2500000D01*
X25000000Y0D02*
G75*
G03*
X25000000Y0I-25000000J0D01*
G01*
D11*
%TO.P,LS4,2*%
%TO.N,/SIGNAL_B*%
X-17320508Y-7500000D03*
%TO.P,LS4,1*%
%TO.N,/VGND*%
X-17320508Y-12500000D03*
%TD*%
%TO.P,LS3,2*%
%TO.N,/SIGNAL_A*%
X-2500000Y20000000D03*
%TO.P,LS3,1*%
%TO.N,/VGND*%
X2500000Y20000000D03*
%TD*%
%TO.P,LS2,2*%
%TO.N,/SIGNAL_C*%
X19820508Y-10000000D03*
%TO.P,LS2,1*%
%TO.N,/VGND*%
X14820508Y-10000000D03*
%TD*%
%TO.P,LS1,2*%
%TO.N,Net-(LS1-Pad2)*%
X0Y2500000D03*
%TO.P,LS1,1*%
%TO.N,Net-(LS1-Pad1)*%
X0Y-2500000D03*
%TD*%
D12*
%TO.P,J1,10*%
%TO.N,GND*%
X-5080000Y-19685000D03*
%TO.P,J1,9*%
%TO.N,/USART_TX*%
X-5080000Y-17145000D03*
%TO.P,J1,8*%
%TO.N,/OUT_Y*%
X-2540000Y-19685000D03*
%TO.P,J1,7*%
%TO.N,/USART_RX*%
X-2540000Y-17145000D03*
%TO.P,J1,6*%
%TO.N,/OUT_X*%
X0Y-19685000D03*
%TO.P,J1,5*%
%TO.N,/SWDIO*%
X0Y-17145000D03*
%TO.P,J1,4*%
%TO.N,VDD*%
X2540000Y-19685000D03*
%TO.P,J1,3*%
%TO.N,/SWCLK*%
X2540000Y-17145000D03*
%TO.P,J1,2*%
%TO.N,+5V*%
X5080000Y-19685000D03*
D13*
%TO.P,J1,1*%
%TO.N,/NRST*%
X5080000Y-17145000D03*
%TD*%
D14*
%TO.N,GND*%
X-20955000Y5715000D03*
X17145000Y13970000D03*
X19685000Y10160000D03*
X-10160000Y-11430000D03*
X13335000Y-14605000D03*
X-6490010Y-11430000D03*
X-13335000Y-16510000D03*
X13335000Y-16510000D03*
X12065000Y-6985000D03*
X-3175000Y5715000D03*
X-14804990Y7153477D03*
X-18161000Y13970000D03*
X-14859000Y13970000D03*
X-8890000Y902010D03*
X-11416201Y13829990D03*
X2540000Y2794000D03*
X14201221Y4676221D03*
X21971000Y4064000D03*
%TO.N,+5V*%
X3683000Y-5969000D03*
X2000000Y7715000D03*
D15*
%TO.N,/NRST*%
X-12954000Y2413000D03*
X-12954000Y2413000D03*
%TO.N,/SIGNAL_A*%
X13970000Y6985000D03*
%TO.N,/USART_TX*%
X-3810000Y-13970000D03*
%TO.N,/USART_RX*%
X-3097665Y-13167655D03*
%TO.N,/SWDIO*%
X-1823339Y-13879990D03*
%TO.N,/SWCLK*%
X-828885Y-13774705D03*
%TO.N,/SIGNAL_A*%
X5715000Y17145000D03*
%TO.N,/SIGNAL_B*%
X-14605000Y-8509000D03*
X-2413000Y-7874000D03*
X762000Y-4699000D03*
X4318000Y-1143000D03*
%TO.N,/USART_TX*%
X-10113273Y-3772593D03*
%TO.N,/USART_RX*%
X-10744063Y-5906175D03*
X-7620000Y-2032000D03*
X-11557000Y2540000D03*
%TO.N,/SWDIO*%
X-11519240Y-5181165D03*
%TO.N,/SWCLK*%
X-10886947Y-4406420D03*
%TO.N,/VGND*%
X10033000Y11557000D03*
X-2286000Y-8890000D03*
X-2286000Y-8890000D03*
X-14049605Y-9340600D03*
X4445000Y-2159000D03*
X8890000Y0D03*
X17780000Y-3810000D03*
X9271000Y-2794000D03*
X22225000Y5842000D03*
X20066000Y1270000D03*
X12446000Y11430000D03*
X750000Y-6000000D03*
%TO.N,/SIGNAL_B*%
X14097000Y3429000D03*
%TO.N,/SIGNAL_C*%
X19050000Y-3810000D03*
%TO.N,/PULSE*%
X-3048000Y6985000D03*
X-14825231Y-2831776D03*
X-10170023Y-2100176D03*
X-6731000Y2413000D03*
%TO.N,/PULSE_N*%
X-16002000Y-3810000D03*
X-4318000Y4318000D03*
X-5715000Y1778000D03*
X-9455260Y-2847994D03*
%TO.N,Net-(R16-Pad2)*%
X-8636000Y14097000D03*
X6500000Y8750000D03*
%TO.N,Net-(R17-Pad2)*%
X-9779000Y15875000D03*
X5500000Y8250000D03*
%TO.N,Net-(R18-Pad2)*%
X5822407Y11424320D03*
X-7420794Y14187010D03*
%TO.N,/PWM_X*%
X-12065000Y-15240000D03*
X-13891360Y-5519082D03*
%TO.N,/PWM_Y*%
X-13335000Y-10795000D03*
X-14069194Y-4535010D03*
%TD*%
D16*
%TO.N,+5V*%
X1397000Y-3683000D02*
X3683000Y-5969000D01*
X1397000Y3429000D02*
X1397000Y-3683000D01*
X1397000Y3429000D02*
X1397000Y7112000D01*
X1397000Y7112000D02*
X2000000Y7715000D01*
D17*
%TO.N,/NRST*%
X5080000Y-17145000D02*
X5080000Y-16045000D01*
X5080000Y-16045000D02*
X1227000Y-12192000D01*
X-785643Y-12192000D02*
X-8669734Y-4307910D01*
X-8669734Y-4307910D02*
X-8669734Y-1871266D01*
X1227000Y-12192000D02*
X-785643Y-12192000D01*
X-8669734Y-1871266D02*
X-12954000Y2413000D01*
%TO.N,/SIGNAL_C*%
X19820508Y-10000000D02*
X17780000Y-7959492D01*
X17780000Y-7959492D02*
X17780000Y-5080000D01*
%TO.N,/SIGNAL_B*%
X-17320508Y-7500000D02*
X-15676508Y-9144000D01*
X-15676508Y-9144000D02*
X-15240000Y-9144000D01*
X-15240000Y-9144000D02*
X-14605000Y-8509000D01*
X-2413000Y-7874000D02*
X762000Y-4699000D01*
%TO.N,/USART_TX*%
X-3810000Y-13970000D02*
X-3175000Y-14605000D01*
X-3175000Y-14605000D02*
X-586178Y-14605000D01*
X-103884Y-13359526D02*
X-821399Y-12642011D01*
X-103884Y-14122706D02*
X-103884Y-13359526D01*
X-586178Y-14605000D02*
X-103884Y-14122706D01*
X-821399Y-12642011D02*
X-1243855Y-12642011D01*
X-1243855Y-12642011D02*
X-10113273Y-3772593D01*
%TO.N,/USART_RX*%
X-3097665Y-13167655D02*
X-10359145Y-5906175D01*
X-10359145Y-5906175D02*
X-10744063Y-5906175D01*
X-11557000Y1905000D02*
X-11557000Y2032000D01*
X-7620000Y-2032000D02*
X-11557000Y1905000D01*
X-11557000Y2032000D02*
X-11557000Y2540000D01*
%TO.N,/SWDIO*%
X-1823339Y-13416661D02*
X-10058835Y-5181165D01*
X-1823339Y-13879990D02*
X-1823339Y-13416661D01*
X-10058835Y-5181165D02*
X-11519240Y-5181165D01*
%TO.N,/SWCLK*%
X-10795773Y-4497594D02*
X-10886947Y-4406420D01*
X-10105996Y-4497594D02*
X-10795773Y-4497594D01*
X-828885Y-13774705D02*
X-10105996Y-4497594D01*
%TO.N,/VGND*%
X2540000Y19960000D02*
X2500000Y20000000D01*
X2500000Y19090000D02*
X2500000Y20000000D01*
X10033000Y11557000D02*
X2500000Y19090000D01*
X-17320508Y-12500000D02*
X-14161108Y-9340600D01*
X-14161108Y-9340600D02*
X-14049605Y-9340600D01*
X6604000Y0D02*
X6413500Y-190500D01*
X8890000Y0D02*
X6604000Y0D01*
X4445000Y-2159000D02*
X6413500Y-190500D01*
X14820508Y-10000000D02*
X17145000Y-7675508D01*
X17145000Y-7675508D02*
X17145000Y-5080000D01*
X17145000Y-4445000D02*
X17780000Y-3810000D01*
X17145000Y-5080000D02*
X17145000Y-4445000D01*
X8890000Y0D02*
X8890000Y-2413000D01*
X8890000Y-2413000D02*
X9271000Y-2794000D01*
X20701000Y5842000D02*
X22225000Y5842000D01*
X20066000Y1270000D02*
X20066000Y5207000D01*
X20066000Y5207000D02*
X20701000Y5842000D01*
X16256000Y5842000D02*
X22225000Y5842000D01*
X12446000Y9652000D02*
X16256000Y5842000D01*
X12446000Y11430000D02*
X12446000Y9652000D01*
X-2286000Y-8890000D02*
X750000Y-6000000D01*
%TO.N,/SIGNAL_A*%
X11720998Y9234002D02*
X11720998Y11139002D01*
X13970000Y6985000D02*
X11720998Y9234002D01*
X11720998Y11139002D02*
X5715000Y17145000D01*
%TO.N,/SIGNAL_B*%
X6096000Y635000D02*
X4318000Y-1143000D01*
X8255000Y635000D02*
X6096000Y635000D01*
X11049000Y3429000D02*
X8255000Y635000D01*
X14097000Y3429000D02*
X11049000Y3429000D01*
%TO.N,/SIGNAL_C*%
X17780000Y-5080000D02*
X19050000Y-3810000D01*
%TO.N,/PULSE*%
X-14825231Y-2831776D02*
X-11340776Y-2831776D01*
X-10609176Y-2100176D02*
X-10170023Y-2100176D01*
X-11340776Y-2831776D02*
X-10609176Y-2100176D01*
X-6731000Y3302000D02*
X-3048000Y6985000D01*
X-6731000Y2413000D02*
X-6731000Y3302000D01*
%TO.N,/PULSE_N*%
X-5715000Y2921000D02*
X-4318000Y4318000D01*
X-5715000Y1778000D02*
X-5715000Y2921000D01*
X-11301590Y-3810000D02*
X-10339584Y-2847994D01*
X-16002000Y-3810000D02*
X-11301590Y-3810000D01*
X-10339584Y-2847994D02*
X-9455260Y-2847994D01*
%TO.N,Net-(R16-Pad2)*%
X-8001000Y13462000D02*
X2759408Y13462000D01*
X2759408Y13462000D02*
X4173704Y12047704D01*
X-8636000Y14097000D02*
X-8001000Y13462000D01*
X6500000Y9721408D02*
X6235704Y9985704D01*
X6500000Y8750000D02*
X6500000Y9721408D01*
X4173704Y12047704D02*
X6235704Y9985704D01*
%TO.N,Net-(R17-Pad2)*%
X2032000Y12827000D02*
X-8509000Y12827000D01*
X-9779000Y14097000D02*
X-9779000Y15875000D01*
X-8509000Y12827000D02*
X-9779000Y14097000D01*
X5500000Y9359000D02*
X5304500Y9554500D01*
X5500000Y8250000D02*
X5500000Y9359000D01*
X5304500Y9554500D02*
X2032000Y12827000D01*
%TO.N,Net-(R18-Pad2)*%
X3059717Y14187010D02*
X-7420794Y14187010D01*
X5822407Y11424320D02*
X3059717Y14187010D01*
%TO.N,/PWM_X*%
X-12065000Y-7345442D02*
X-13891360Y-5519082D01*
X-12065000Y-15240000D02*
X-12065000Y-7345442D01*
%TO.N,/PWM_Y*%
X-12935001Y-10395001D02*
X-12935001Y-7758889D01*
X-14855445Y-5321261D02*
X-14069194Y-4535010D01*
X-13335000Y-10795000D02*
X-12935001Y-10395001D01*
X-12935001Y-7758889D02*
X-14855445Y-5838445D01*
X-14855445Y-5838445D02*
X-14855445Y-5321261D01*
%TD*%
D18*
%TO.N,GND*%
X2441048Y24472559D02*
X4377680Y24201255D01*
X6286635Y23776944D01*
X8155845Y23202307D01*
X9973490Y22480977D01*
X11728079Y21617516D01*
X13408520Y20617382D01*
X15004188Y19486898D01*
X16504995Y18233211D01*
X17901451Y16864248D01*
X19184729Y15388664D01*
X20346715Y13815788D01*
X21380063Y12155565D01*
X22278239Y10418489D01*
X23035564Y8615545D01*
X23647252Y6758130D01*
X24109433Y4857989D01*
X24419188Y2927133D01*
X24574556Y977772D01*
X24574556Y-977772D01*
X24419188Y-2927133D01*
X24109433Y-4857989D01*
X23647252Y-6758130D01*
X23035564Y-8615545D01*
X22278239Y-10418489D01*
X21380063Y-12155565D01*
X20346715Y-13815788D01*
X19184729Y-15388664D01*
X17901451Y-16864248D01*
X16504995Y-18233211D01*
X15004188Y-19486898D01*
X13408520Y-20617382D01*
X11728079Y-21617516D01*
X9973490Y-22480977D01*
X8155845Y-23202307D01*
X6286635Y-23776944D01*
X4377680Y-24201255D01*
X2441048Y-24472559D01*
X488983Y-24589138D01*
X-1466174Y-24550258D01*
X-3412062Y-24356163D01*
X-5336377Y-24008080D01*
X-7226954Y-23508211D01*
X-9071839Y-22859715D01*
X-10859370Y-22066693D01*
X-12578244Y-21134157D01*
X-14217595Y-20068005D01*
X-14357966Y-19959924D01*
X-6409882Y-19959924D01*
X-6330694Y-20214089D01*
X-6203442Y-20447921D01*
X-6033017Y-20652434D01*
X-5825968Y-20819769D01*
X-5590252Y-20943496D01*
X-5354924Y-21014880D01*
X-5143500Y-20914361D01*
X-5143500Y-19748500D01*
X-6309517Y-19748500D01*
X-6409882Y-19959924D01*
X-14357966Y-19959924D01*
X-15072089Y-19410076D01*
X-6409882Y-19410076D01*
X-6309517Y-19621500D01*
X-5143500Y-19621500D01*
X-5143500Y-19601500D01*
X-5016500Y-19601500D01*
X-5016500Y-19621500D01*
X-4996500Y-19621500D01*
X-4996500Y-19748500D01*
X-5016500Y-19748500D01*
X-5016500Y-20914361D01*
X-4805076Y-21014880D01*
X-4569748Y-20943496D01*
X-4334032Y-20819769D01*
X-4126983Y-20652434D01*
X-3956558Y-20447921D01*
X-3829306Y-20214089D01*
X-3750118Y-19959924D01*
X-3850482Y-19748502D01*
X-3771000Y-19748502D01*
X-3771000Y-19806243D01*
X-3723693Y-20044069D01*
X-3630898Y-20268097D01*
X-3496180Y-20469717D01*
X-3324717Y-20641180D01*
X-3123097Y-20775898D01*
X-2899069Y-20868693D01*
X-2661243Y-20916000D01*
X-2418757Y-20916000D01*
X-2180931Y-20868693D01*
X-1956903Y-20775898D01*
X-1755283Y-20641180D01*
X-1583820Y-20469717D01*
X-1449102Y-20268097D01*
X-1356307Y-20044069D01*
X-1309000Y-19806243D01*
X-1309000Y-19563757D01*
X-1231000Y-19563757D01*
X-1231000Y-19806243D01*
X-1183693Y-20044069D01*
X-1090898Y-20268097D01*
X-956180Y-20469717D01*
X-784717Y-20641180D01*
X-583097Y-20775898D01*
X-359069Y-20868693D01*
X-121243Y-20916000D01*
X121243Y-20916000D01*
X359069Y-20868693D01*
X583097Y-20775898D01*
X784717Y-20641180D01*
X956180Y-20469717D01*
X1090898Y-20268097D01*
X1183693Y-20044069D01*
X1231000Y-19806243D01*
X1231000Y-19563757D01*
X1309000Y-19563757D01*
X1309000Y-19806243D01*
X1356307Y-20044069D01*
X1449102Y-20268097D01*
X1583820Y-20469717D01*
X1755283Y-20641180D01*
X1956903Y-20775898D01*
X2180931Y-20868693D01*
X2418757Y-20916000D01*
X2661243Y-20916000D01*
X2899069Y-20868693D01*
X3123097Y-20775898D01*
X3324717Y-20641180D01*
X3496180Y-20469717D01*
X3630898Y-20268097D01*
X3723693Y-20044069D01*
X3771000Y-19806243D01*
X3771000Y-19563757D01*
X3849000Y-19563757D01*
X3849000Y-19806243D01*
X3896307Y-20044069D01*
X3989102Y-20268097D01*
X4123820Y-20469717D01*
X4295283Y-20641180D01*
X4496903Y-20775898D01*
X4720931Y-20868693D01*
X4958757Y-20916000D01*
X5201243Y-20916000D01*
X5439069Y-20868693D01*
X5663097Y-20775898D01*
X5864717Y-20641180D01*
X6036180Y-20469717D01*
X6170898Y-20268097D01*
X6263693Y-20044069D01*
X6311000Y-19806243D01*
X6311000Y-19563757D01*
X6263693Y-19325931D01*
X6170898Y-19101903D01*
X6036180Y-18900283D01*
X5864717Y-18728820D01*
X5663097Y-18594102D01*
X5439069Y-18501307D01*
X5201243Y-18454000D01*
X4958757Y-18454000D01*
X4720931Y-18501307D01*
X4496903Y-18594102D01*
X4295283Y-18728820D01*
X4123820Y-18900283D01*
X3989102Y-19101903D01*
X3896307Y-19325931D01*
X3849000Y-19563757D01*
X3771000Y-19563757D01*
X3723693Y-19325931D01*
X3630898Y-19101903D01*
X3496180Y-18900283D01*
X3324717Y-18728820D01*
X3123097Y-18594102D01*
X2899069Y-18501307D01*
X2661243Y-18454000D01*
X2418757Y-18454000D01*
X2180931Y-18501307D01*
X1956903Y-18594102D01*
X1755283Y-18728820D01*
X1583820Y-18900283D01*
X1449102Y-19101903D01*
X1356307Y-19325931D01*
X1309000Y-19563757D01*
X1231000Y-19563757D01*
X1183693Y-19325931D01*
X1090898Y-19101903D01*
X956180Y-18900283D01*
X784717Y-18728820D01*
X583097Y-18594102D01*
X359069Y-18501307D01*
X121243Y-18454000D01*
X-121243Y-18454000D01*
X-359069Y-18501307D01*
X-583097Y-18594102D01*
X-784717Y-18728820D01*
X-956180Y-18900283D01*
X-1090898Y-19101903D01*
X-1183693Y-19325931D01*
X-1231000Y-19563757D01*
X-1309000Y-19563757D01*
X-1356307Y-19325931D01*
X-1449102Y-19101903D01*
X-1583820Y-18900283D01*
X-1755283Y-18728820D01*
X-1956903Y-18594102D01*
X-2180931Y-18501307D01*
X-2418757Y-18454000D01*
X-2661243Y-18454000D01*
X-2899069Y-18501307D01*
X-3123097Y-18594102D01*
X-3324717Y-18728820D01*
X-3496180Y-18900283D01*
X-3630898Y-19101903D01*
X-3723693Y-19325931D01*
X-3771000Y-19563757D01*
X-3771000Y-19621498D01*
X-3850482Y-19621498D01*
X-3750118Y-19410076D01*
X-3829306Y-19155911D01*
X-3956558Y-18922079D01*
X-4126983Y-18717566D01*
X-4334032Y-18550231D01*
X-4569748Y-18426504D01*
X-4805076Y-18355120D01*
X-5016498Y-18455638D01*
X-5016498Y-18376000D01*
X-4958757Y-18376000D01*
X-4720931Y-18328693D01*
X-4496903Y-18235898D01*
X-4295283Y-18101180D01*
X-4123820Y-17929717D01*
X-3989102Y-17728097D01*
X-3896307Y-17504069D01*
X-3849000Y-17266243D01*
X-3849000Y-17023757D01*
X-3771000Y-17023757D01*
X-3771000Y-17266243D01*
X-3723693Y-17504069D01*
X-3630898Y-17728097D01*
X-3496180Y-17929717D01*
X-3324717Y-18101180D01*
X-3123097Y-18235898D01*
X-2899069Y-18328693D01*
X-2661243Y-18376000D01*
X-2418757Y-18376000D01*
X-2180931Y-18328693D01*
X-1956903Y-18235898D01*
X-1755283Y-18101180D01*
X-1583820Y-17929717D01*
X-1449102Y-17728097D01*
X-1356307Y-17504069D01*
X-1309000Y-17266243D01*
X-1309000Y-17023757D01*
X-1231000Y-17023757D01*
X-1231000Y-17266243D01*
X-1183693Y-17504069D01*
X-1090898Y-17728097D01*
X-956180Y-17929717D01*
X-784717Y-18101180D01*
X-583097Y-18235898D01*
X-359069Y-18328693D01*
X-121243Y-18376000D01*
X121243Y-18376000D01*
X359069Y-18328693D01*
X583097Y-18235898D01*
X784717Y-18101180D01*
X956180Y-17929717D01*
X1090898Y-17728097D01*
X1183693Y-17504069D01*
X1231000Y-17266243D01*
X1231000Y-17023757D01*
X1309000Y-17023757D01*
X1309000Y-17266243D01*
X1356307Y-17504069D01*
X1449102Y-17728097D01*
X1583820Y-17929717D01*
X1755283Y-18101180D01*
X1956903Y-18235898D01*
X2180931Y-18328693D01*
X2418757Y-18376000D01*
X2661243Y-18376000D01*
X2899069Y-18328693D01*
X3123097Y-18235898D01*
X3324717Y-18101180D01*
X3496180Y-17929717D01*
X3630898Y-17728097D01*
X3723693Y-17504069D01*
X3771000Y-17266243D01*
X3771000Y-17023757D01*
X3723693Y-16785931D01*
X3630898Y-16561903D01*
X3496180Y-16360283D01*
X3324717Y-16188820D01*
X3123097Y-16054102D01*
X2899069Y-15961307D01*
X2661243Y-15914000D01*
X2418757Y-15914000D01*
X2180931Y-15961307D01*
X1956903Y-16054102D01*
X1755283Y-16188820D01*
X1583820Y-16360283D01*
X1449102Y-16561903D01*
X1356307Y-16785931D01*
X1309000Y-17023757D01*
X1231000Y-17023757D01*
X1183693Y-16785931D01*
X1090898Y-16561903D01*
X956180Y-16360283D01*
X784717Y-16188820D01*
X583097Y-16054102D01*
X359069Y-15961307D01*
X121243Y-15914000D01*
X-121243Y-15914000D01*
X-359069Y-15961307D01*
X-583097Y-16054102D01*
X-784717Y-16188820D01*
X-956180Y-16360283D01*
X-1090898Y-16561903D01*
X-1183693Y-16785931D01*
X-1231000Y-17023757D01*
X-1309000Y-17023757D01*
X-1356307Y-16785931D01*
X-1449102Y-16561903D01*
X-1583820Y-16360283D01*
X-1755283Y-16188820D01*
X-1956903Y-16054102D01*
X-2180931Y-15961307D01*
X-2418757Y-15914000D01*
X-2661243Y-15914000D01*
X-2899069Y-15961307D01*
X-3123097Y-16054102D01*
X-3324717Y-16188820D01*
X-3496180Y-16360283D01*
X-3630898Y-16561903D01*
X-3723693Y-16785931D01*
X-3771000Y-17023757D01*
X-3849000Y-17023757D01*
X-3896307Y-16785931D01*
X-3989102Y-16561903D01*
X-4123820Y-16360283D01*
X-4295283Y-16188820D01*
X-4496903Y-16054102D01*
X-4720931Y-15961307D01*
X-4958757Y-15914000D01*
X-5201243Y-15914000D01*
X-5439069Y-15961307D01*
X-5663097Y-16054102D01*
X-5864717Y-16188820D01*
X-6036180Y-16360283D01*
X-6170898Y-16561903D01*
X-6263693Y-16785931D01*
X-6311000Y-17023757D01*
X-6311000Y-17266243D01*
X-6263693Y-17504069D01*
X-6170898Y-17728097D01*
X-6036180Y-17929717D01*
X-5864717Y-18101180D01*
X-5663097Y-18235898D01*
X-5439069Y-18328693D01*
X-5201243Y-18376000D01*
X-5143502Y-18376000D01*
X-5143502Y-18455638D01*
X-5354924Y-18355120D01*
X-5590252Y-18426504D01*
X-5825968Y-18550231D01*
X-6033017Y-18717566D01*
X-6203442Y-18922079D01*
X-6330694Y-19155911D01*
X-6409882Y-19410076D01*
X-15072089Y-19410076D01*
X-15767057Y-18874977D01*
X-17216835Y-17562615D01*
X-18557762Y-16139216D01*
X-19781362Y-14613780D01*
X-20879897Y-12995951D01*
X-21846423Y-11295958D01*
X-22674828Y-9524547D01*
X-23359876Y-7692920D01*
X-23447183Y-7387424D01*
X-18463508Y-7387424D01*
X-18463508Y-7612576D01*
X-18419583Y-7833401D01*
X-18333421Y-8041413D01*
X-18208334Y-8228620D01*
X-18049128Y-8387826D01*
X-17861921Y-8512913D01*
X-17653909Y-8599075D01*
X-17433084Y-8643000D01*
X-17207932Y-8643000D01*
X-16987107Y-8599075D01*
X-16951693Y-8584406D01*
X-16051880Y-9484220D01*
X-16036035Y-9503527D01*
X-15958987Y-9566759D01*
X-15892792Y-9602141D01*
X-15871083Y-9613745D01*
X-15775702Y-9642678D01*
X-15765814Y-9643652D01*
X-15701362Y-9650000D01*
X-15701355Y-9650000D01*
X-15676509Y-9652447D01*
X-15651663Y-9650000D01*
X-15264846Y-9650000D01*
X-15240000Y-9652447D01*
X-15215154Y-9650000D01*
X-15215146Y-9650000D01*
X-15182926Y-9646827D01*
X-16951693Y-11415594D01*
X-16987107Y-11400925D01*
X-17207932Y-11357000D01*
X-17433084Y-11357000D01*
X-17653909Y-11400925D01*
X-17861921Y-11487087D01*
X-18049128Y-11612174D01*
X-18208334Y-11771380D01*
X-18333421Y-11958587D01*
X-18419583Y-12166599D01*
X-18463508Y-12387424D01*
X-18463508Y-12612576D01*
X-18419583Y-12833401D01*
X-18333421Y-13041413D01*
X-18208334Y-13228620D01*
X-18049128Y-13387826D01*
X-17861921Y-13512913D01*
X-17653909Y-13599075D01*
X-17433084Y-13643000D01*
X-17207932Y-13643000D01*
X-16987107Y-13599075D01*
X-16779095Y-13512913D01*
X-16591888Y-13387826D01*
X-16432682Y-13228620D01*
X-16307595Y-13041413D01*
X-16221433Y-12833401D01*
X-16177508Y-12612576D01*
X-16177508Y-12387424D01*
X-16221433Y-12166599D01*
X-16236102Y-12131185D01*
X-14209927Y-10105011D01*
X-14126527Y-10121600D01*
X-13972683Y-10121600D01*
X-13821796Y-10091587D01*
X-13679663Y-10032713D01*
X-13551746Y-9947242D01*
X-13442963Y-9838459D01*
X-13441001Y-9835522D01*
X-13441001Y-10019784D01*
X-13562809Y-10044013D01*
X-13704942Y-10102887D01*
X-13832859Y-10188358D01*
X-13941642Y-10297141D01*
X-14027113Y-10425058D01*
X-14085987Y-10567191D01*
X-14116000Y-10718078D01*
X-14116000Y-10871922D01*
X-14085987Y-11022809D01*
X-14027113Y-11164942D01*
X-13941642Y-11292859D01*
X-13832859Y-11401642D01*
X-13704942Y-11487113D01*
X-13562809Y-11545987D01*
X-13411922Y-11576000D01*
X-13258078Y-11576000D01*
X-13107191Y-11545987D01*
X-12965058Y-11487113D01*
X-12837141Y-11401642D01*
X-12728358Y-11292859D01*
X-12642887Y-11164942D01*
X-12584013Y-11022809D01*
X-12570999Y-10957385D01*
X-12571000Y-14641499D01*
X-12671642Y-14742141D01*
X-12757113Y-14870058D01*
X-12815987Y-15012191D01*
X-12846000Y-15163078D01*
X-12846000Y-15316922D01*
X-12815987Y-15467809D01*
X-12757113Y-15609942D01*
X-12671642Y-15737859D01*
X-12562859Y-15846642D01*
X-12434942Y-15932113D01*
X-12292809Y-15990987D01*
X-12141922Y-16021000D01*
X-11988078Y-16021000D01*
X-11837191Y-15990987D01*
X-11695058Y-15932113D01*
X-11567141Y-15846642D01*
X-11458358Y-15737859D01*
X-11372887Y-15609942D01*
X-11314013Y-15467809D01*
X-11284000Y-15316922D01*
X-11284000Y-15163078D01*
X-11314013Y-15012191D01*
X-11372887Y-14870058D01*
X-11458358Y-14742141D01*
X-11559000Y-14641499D01*
X-11559000Y-7370287D01*
X-11556553Y-7345441D01*
X-11559000Y-7320595D01*
X-11559000Y-7320588D01*
X-11566322Y-7246249D01*
X-11595255Y-7150867D01*
X-11642241Y-7062963D01*
X-11705473Y-6985915D01*
X-11724780Y-6970070D01*
X-13110360Y-5584491D01*
X-13110360Y-5442160D01*
X-13140373Y-5291273D01*
X-13199247Y-5149140D01*
X-13284718Y-5021223D01*
X-13386657Y-4919284D01*
X-13377081Y-4904952D01*
X-13318207Y-4762819D01*
X-13288194Y-4611932D01*
X-13288194Y-4458088D01*
X-13316457Y-4316000D01*
X-11665262Y-4316000D01*
X-11667947Y-4329498D01*
X-11667947Y-4414444D01*
X-11747049Y-4430178D01*
X-11889182Y-4489052D01*
X-12017099Y-4574523D01*
X-12125882Y-4683306D01*
X-12211353Y-4811223D01*
X-12270227Y-4953356D01*
X-12300240Y-5104243D01*
X-12300240Y-5258087D01*
X-12270227Y-5408974D01*
X-12211353Y-5551107D01*
X-12125882Y-5679024D01*
X-12017099Y-5787807D01*
X-11889182Y-5873278D01*
X-11747049Y-5932152D01*
X-11596162Y-5962165D01*
X-11525063Y-5962165D01*
X-11525063Y-5983097D01*
X-11495050Y-6133984D01*
X-11436176Y-6276117D01*
X-11350705Y-6404034D01*
X-11241922Y-6512817D01*
X-11114005Y-6598288D01*
X-10971872Y-6657162D01*
X-10820985Y-6687175D01*
X-10667141Y-6687175D01*
X-10516254Y-6657162D01*
X-10380133Y-6600778D01*
X-3878665Y-13102247D01*
X-3878665Y-13189000D01*
X-3886922Y-13189000D01*
X-4037809Y-13219013D01*
X-4179942Y-13277887D01*
X-4307859Y-13363358D01*
X-4416642Y-13472141D01*
X-4502113Y-13600058D01*
X-4560987Y-13742191D01*
X-4591000Y-13893078D01*
X-4591000Y-14046922D01*
X-4560987Y-14197809D01*
X-4502113Y-14339942D01*
X-4416642Y-14467859D01*
X-4307859Y-14576642D01*
X-4179942Y-14662113D01*
X-4037809Y-14720987D01*
X-3886922Y-14751000D01*
X-3744592Y-14751000D01*
X-3550372Y-14945220D01*
X-3534527Y-14964527D01*
X-3457479Y-15027759D01*
X-3369575Y-15074745D01*
X-3274193Y-15103678D01*
X-3175000Y-15113448D01*
X-3150146Y-15111000D01*
X-611024Y-15111000D01*
X-586178Y-15113447D01*
X-561332Y-15111000D01*
X-561324Y-15111000D01*
X-486985Y-15103678D01*
X-391603Y-15074745D01*
X-303699Y-15027759D01*
X-226651Y-14964527D01*
X-210802Y-14945215D01*
X236336Y-14498078D01*
X255643Y-14482233D01*
X318875Y-14405185D01*
X365861Y-14317281D01*
X394794Y-14221899D01*
X402116Y-14147560D01*
X402116Y-14147559D01*
X404564Y-14122706D01*
X402116Y-14097852D01*
X402116Y-13384371D01*
X404563Y-13359525D01*
X402116Y-13334679D01*
X402116Y-13334672D01*
X394794Y-13260333D01*
X365861Y-13164951D01*
X318875Y-13077047D01*
X255643Y-12999999D01*
X236336Y-12984154D01*
X-49818Y-12698000D01*
X1017409Y-12698000D01*
X4231565Y-15912157D01*
X4230000Y-15912157D01*
X4155311Y-15919513D01*
X4083492Y-15941299D01*
X4017304Y-15976678D01*
X3959289Y-16024289D01*
X3911678Y-16082304D01*
X3876299Y-16148492D01*
X3854513Y-16220311D01*
X3847157Y-16295000D01*
X3847157Y-17995000D01*
X3854513Y-18069689D01*
X3876299Y-18141508D01*
X3911678Y-18207696D01*
X3959289Y-18265711D01*
X4017304Y-18313322D01*
X4083492Y-18348701D01*
X4155311Y-18370487D01*
X4230000Y-18377843D01*
X5930000Y-18377843D01*
X6004689Y-18370487D01*
X6076508Y-18348701D01*
X6142696Y-18313322D01*
X6200711Y-18265711D01*
X6248322Y-18207696D01*
X6283701Y-18141508D01*
X6305487Y-18069689D01*
X6312843Y-17995000D01*
X6312843Y-16295000D01*
X6305487Y-16220311D01*
X6283701Y-16148492D01*
X6248322Y-16082304D01*
X6200711Y-16024289D01*
X6142696Y-15976678D01*
X6076508Y-15941299D01*
X6004689Y-15919513D01*
X5930000Y-15912157D01*
X5568471Y-15912157D01*
X5549745Y-15850425D01*
X5547723Y-15846642D01*
X5502759Y-15762521D01*
X5439527Y-15685473D01*
X5420220Y-15669628D01*
X1602376Y-11851785D01*
X1586527Y-11832473D01*
X1509479Y-11769241D01*
X1421575Y-11722255D01*
X1326193Y-11693322D01*
X1251854Y-11686000D01*
X1251846Y-11686000D01*
X1227000Y-11683553D01*
X1202154Y-11686000D01*
X-576051Y-11686000D01*
X-779631Y-11482420D01*
X-486517Y-11603832D01*
X-164277Y-11667930D01*
X164277Y-11667930D01*
X486517Y-11603832D01*
X790061Y-11478100D01*
X1063243Y-11295566D01*
X1295566Y-11063243D01*
X1478100Y-10790061D01*
X1603832Y-10486517D01*
X1667930Y-10164277D01*
X1667930Y-9887424D01*
X13677508Y-9887424D01*
X13677508Y-10112576D01*
X13721433Y-10333401D01*
X13807595Y-10541413D01*
X13932682Y-10728620D01*
X14091888Y-10887826D01*
X14279095Y-11012913D01*
X14487107Y-11099075D01*
X14707932Y-11143000D01*
X14933084Y-11143000D01*
X15153909Y-11099075D01*
X15361921Y-11012913D01*
X15549128Y-10887826D01*
X15708334Y-10728620D01*
X15833421Y-10541413D01*
X15919583Y-10333401D01*
X15963508Y-10112576D01*
X15963508Y-9887424D01*
X15919583Y-9666599D01*
X15904914Y-9631185D01*
X17335257Y-8200842D01*
X17357241Y-8241971D01*
X17420473Y-8319019D01*
X17439785Y-8334868D01*
X18736102Y-9631185D01*
X18721433Y-9666599D01*
X18677508Y-9887424D01*
X18677508Y-10112576D01*
X18721433Y-10333401D01*
X18807595Y-10541413D01*
X18932682Y-10728620D01*
X19091888Y-10887826D01*
X19279095Y-11012913D01*
X19487107Y-11099075D01*
X19707932Y-11143000D01*
X19933084Y-11143000D01*
X20153909Y-11099075D01*
X20361921Y-11012913D01*
X20549128Y-10887826D01*
X20708334Y-10728620D01*
X20833421Y-10541413D01*
X20919583Y-10333401D01*
X20963508Y-10112576D01*
X20963508Y-9887424D01*
X20919583Y-9666599D01*
X20833421Y-9458587D01*
X20708334Y-9271380D01*
X20549128Y-9112174D01*
X20361921Y-8987087D01*
X20153909Y-8900925D01*
X19933084Y-8857000D01*
X19707932Y-8857000D01*
X19487107Y-8900925D01*
X19451693Y-8915594D01*
X18286000Y-7749901D01*
X18286000Y-5289591D01*
X18984592Y-4591000D01*
X19126922Y-4591000D01*
X19277809Y-4560987D01*
X19419942Y-4502113D01*
X19547859Y-4416642D01*
X19656642Y-4307859D01*
X19742113Y-4179942D01*
X19800987Y-4037809D01*
X19831000Y-3886922D01*
X19831000Y-3733078D01*
X19800987Y-3582191D01*
X19742113Y-3440058D01*
X19656642Y-3312141D01*
X19547859Y-3203358D01*
X19419942Y-3117887D01*
X19277809Y-3059013D01*
X19126922Y-3029000D01*
X18973078Y-3029000D01*
X18822191Y-3059013D01*
X18680058Y-3117887D01*
X18552141Y-3203358D01*
X18443358Y-3312141D01*
X18415000Y-3354582D01*
X18386642Y-3312141D01*
X18277859Y-3203358D01*
X18149942Y-3117887D01*
X18007809Y-3059013D01*
X17856922Y-3029000D01*
X17703078Y-3029000D01*
X17552191Y-3059013D01*
X17410058Y-3117887D01*
X17282141Y-3203358D01*
X17173358Y-3312141D01*
X17087887Y-3440058D01*
X17029013Y-3582191D01*
X16999000Y-3733078D01*
X16999000Y-3875409D01*
X16804780Y-4069629D01*
X16785474Y-4085473D01*
X16722242Y-4162521D01*
X16702657Y-4199162D01*
X16675255Y-4250426D01*
X16646322Y-4345808D01*
X16636553Y-4445000D01*
X16639001Y-4469856D01*
X16639000Y-5104853D01*
X16639001Y-5104863D01*
X16639000Y-7465916D01*
X15189323Y-8915594D01*
X15153909Y-8900925D01*
X14933084Y-8857000D01*
X14707932Y-8857000D01*
X14487107Y-8900925D01*
X14279095Y-8987087D01*
X14091888Y-9112174D01*
X13932682Y-9271380D01*
X13807595Y-9458587D01*
X13721433Y-9666599D01*
X13677508Y-9887424D01*
X1667930Y-9887424D01*
X1667930Y-9835723D01*
X1603832Y-9513483D01*
X1478100Y-9209939D01*
X1295566Y-8936757D01*
X1063243Y-8704434D01*
X790061Y-8521900D01*
X486517Y-8396168D01*
X164277Y-8332070D01*
X-164277Y-8332070D01*
X-486517Y-8396168D01*
X-790061Y-8521900D01*
X-1063243Y-8704434D01*
X-1295566Y-8936757D01*
X-1478100Y-9209939D01*
X-1603832Y-9513483D01*
X-1667930Y-9835723D01*
X-1667930Y-10164277D01*
X-1603832Y-10486517D01*
X-1482420Y-10779631D01*
X-2728259Y-9533792D01*
X-2655942Y-9582113D01*
X-2513809Y-9640987D01*
X-2362922Y-9671000D01*
X-2209078Y-9671000D01*
X-2058191Y-9640987D01*
X-1916058Y-9582113D01*
X-1788141Y-9496642D01*
X-1679358Y-9387859D01*
X-1593887Y-9259942D01*
X-1535013Y-9117809D01*
X-1505000Y-8966922D01*
X-1505000Y-8845155D01*
X665101Y-6779413D01*
X673078Y-6781000D01*
X826922Y-6781000D01*
X977809Y-6750987D01*
X1119942Y-6692113D01*
X1247859Y-6606642D01*
X1356642Y-6497859D01*
X1442113Y-6369942D01*
X1500987Y-6227809D01*
X1531000Y-6076922D01*
X1531000Y-5923078D01*
X1500987Y-5772191D01*
X1442113Y-5630058D01*
X1356642Y-5502141D01*
X1247859Y-5393358D01*
X1188221Y-5353509D01*
X1259859Y-5305642D01*
X1368642Y-5196859D01*
X1454113Y-5068942D01*
X1512987Y-4926809D01*
X1543000Y-4775922D01*
X1543000Y-4622078D01*
X1541317Y-4613619D01*
X2852000Y-5924303D01*
X2852000Y-6050846D01*
X2883935Y-6211394D01*
X2946577Y-6362626D01*
X3037520Y-6498732D01*
X3153268Y-6614480D01*
X3289374Y-6705423D01*
X3440606Y-6768065D01*
X3601154Y-6800000D01*
X3764846Y-6800000D01*
X3925394Y-6768065D01*
X4076626Y-6705423D01*
X4212732Y-6614480D01*
X4328480Y-6498732D01*
X4419423Y-6362626D01*
X4482065Y-6211394D01*
X4514000Y-6050846D01*
X4514000Y-5887154D01*
X4482065Y-5726606D01*
X4419423Y-5575374D01*
X4328480Y-5439268D01*
X4212732Y-5323520D01*
X4076626Y-5232577D01*
X3925394Y-5169935D01*
X3764846Y-5138000D01*
X3638303Y-5138000D01*
X1953000Y-3452699D01*
X1953000Y-1066078D01*
X3537000Y-1066078D01*
X3537000Y-1219922D01*
X3567013Y-1370809D01*
X3625887Y-1512942D01*
X3711358Y-1640859D01*
X3795613Y-1725114D01*
X3752887Y-1789058D01*
X3694013Y-1931191D01*
X3664000Y-2082078D01*
X3664000Y-2235922D01*
X3694013Y-2386809D01*
X3752887Y-2528942D01*
X3838358Y-2656859D01*
X3947141Y-2765642D01*
X4075058Y-2851113D01*
X4217191Y-2909987D01*
X4368078Y-2940000D01*
X4521922Y-2940000D01*
X4672809Y-2909987D01*
X4814942Y-2851113D01*
X4942859Y-2765642D01*
X5051642Y-2656859D01*
X5137113Y-2528942D01*
X5195987Y-2386809D01*
X5226000Y-2235922D01*
X5226000Y-2093591D01*
X6788870Y-530722D01*
X6788875Y-530716D01*
X6813591Y-506000D01*
X8291499Y-506000D01*
X8384000Y-598501D01*
X8384001Y-2388144D01*
X8381553Y-2413000D01*
X8391322Y-2512192D01*
X8420255Y-2607574D01*
X8436092Y-2637202D01*
X8467242Y-2695479D01*
X8490000Y-2723210D01*
X8490000Y-2870922D01*
X8520013Y-3021809D01*
X8578887Y-3163942D01*
X8664358Y-3291859D01*
X8773141Y-3400642D01*
X8901058Y-3486113D01*
X9043191Y-3544987D01*
X9194078Y-3575000D01*
X9347922Y-3575000D01*
X9498809Y-3544987D01*
X9640942Y-3486113D01*
X9768859Y-3400642D01*
X9877642Y-3291859D01*
X9963113Y-3163942D01*
X10021987Y-3021809D01*
X10052000Y-2870922D01*
X10052000Y-2717078D01*
X10021987Y-2566191D01*
X9963113Y-2424058D01*
X9877642Y-2296141D01*
X9768859Y-2187358D01*
X9640942Y-2101887D01*
X9498809Y-2043013D01*
X9396000Y-2022563D01*
X9396000Y-598501D01*
X9496642Y-497859D01*
X9582113Y-369942D01*
X9640987Y-227809D01*
X9671000Y-76922D01*
X9671000Y76922D01*
X9640987Y227809D01*
X9582113Y369942D01*
X9496642Y497859D01*
X9387859Y606642D01*
X9259942Y692113D01*
X9117809Y750987D01*
X9091760Y756168D01*
X11258592Y2923000D01*
X13498499Y2923000D01*
X13599141Y2822358D01*
X13727058Y2736887D01*
X13869191Y2678013D01*
X14020078Y2648000D01*
X14173922Y2648000D01*
X14324809Y2678013D01*
X14466942Y2736887D01*
X14594859Y2822358D01*
X14703642Y2931141D01*
X14789113Y3059058D01*
X14847987Y3201191D01*
X14878000Y3352078D01*
X14878000Y3505922D01*
X14847987Y3656809D01*
X14789113Y3798942D01*
X14703642Y3926859D01*
X14594859Y4035642D01*
X14466942Y4121113D01*
X14324809Y4179987D01*
X14173922Y4210000D01*
X14020078Y4210000D01*
X13869191Y4179987D01*
X13727058Y4121113D01*
X13599141Y4035642D01*
X13498499Y3935000D01*
X11073854Y3935000D01*
X11049000Y3937448D01*
X11024146Y3935000D01*
X10949807Y3927678D01*
X10854425Y3898745D01*
X10766521Y3851759D01*
X10689473Y3788527D01*
X10673628Y3769220D01*
X8045409Y1141000D01*
X6120854Y1141000D01*
X6096000Y1143448D01*
X6071146Y1141000D01*
X5996807Y1133678D01*
X5901425Y1104745D01*
X5813521Y1057759D01*
X5736473Y994527D01*
X5720629Y975221D01*
X4383409Y-362000D01*
X4241078Y-362000D01*
X4090191Y-392013D01*
X3948058Y-450887D01*
X3820141Y-536358D01*
X3711358Y-645141D01*
X3625887Y-773058D01*
X3567013Y-915191D01*
X3537000Y-1066078D01*
X1953000Y-1066078D01*
X1953000Y5164277D01*
X6992324Y5164277D01*
X6992324Y4835723D01*
X7056422Y4513483D01*
X7182154Y4209939D01*
X7364688Y3936757D01*
X7597011Y3704434D01*
X7870193Y3521900D01*
X8173737Y3396168D01*
X8495977Y3332070D01*
X8824531Y3332070D01*
X9146771Y3396168D01*
X9450315Y3521900D01*
X9723497Y3704434D01*
X9955820Y3936757D01*
X10138354Y4209939D01*
X10264086Y4513483D01*
X10328184Y4835723D01*
X10328184Y5164277D01*
X10264086Y5486517D01*
X10138354Y5790061D01*
X9955820Y6063243D01*
X9723497Y6295566D01*
X9450315Y6478100D01*
X9146771Y6603832D01*
X8824531Y6667930D01*
X8495977Y6667930D01*
X8173737Y6603832D01*
X7870193Y6478100D01*
X7597011Y6295566D01*
X7364688Y6063243D01*
X7182154Y5790061D01*
X7056422Y5486517D01*
X6992324Y5164277D01*
X1953000Y5164277D01*
X1953000Y6881698D01*
X1955302Y6884000D01*
X2081846Y6884000D01*
X2242394Y6915935D01*
X2393626Y6978577D01*
X2529732Y7069520D01*
X2645480Y7185268D01*
X2736423Y7321374D01*
X2799065Y7472606D01*
X2831000Y7633154D01*
X2831000Y7796846D01*
X2799065Y7957394D01*
X2736423Y8108626D01*
X2645480Y8244732D01*
X2529732Y8360480D01*
X2393626Y8451423D01*
X2242394Y8514065D01*
X2081846Y8546000D01*
X1918154Y8546000D01*
X1757606Y8514065D01*
X1606374Y8451423D01*
X1470268Y8360480D01*
X1354520Y8244732D01*
X1263577Y8108626D01*
X1200935Y7957394D01*
X1169000Y7796846D01*
X1169000Y7670302D01*
X1023163Y7524464D01*
X1001948Y7507053D01*
X932467Y7422392D01*
X899316Y7360370D01*
X880839Y7325801D01*
X849045Y7220994D01*
X838311Y7112000D01*
X841001Y7084686D01*
X841000Y3456312D01*
X841000Y3275446D01*
X728620Y3387826D01*
X541413Y3512913D01*
X333401Y3599075D01*
X112576Y3643000D01*
X-112576Y3643000D01*
X-333401Y3599075D01*
X-541413Y3512913D01*
X-728620Y3387826D01*
X-887826Y3228620D01*
X-1012913Y3041413D01*
X-1099075Y2833401D01*
X-1143000Y2612576D01*
X-1143000Y2387424D01*
X-1099075Y2166599D01*
X-1012913Y1958587D01*
X-887826Y1771380D01*
X-728620Y1612174D01*
X-541413Y1487087D01*
X-333401Y1400925D01*
X-112576Y1357000D01*
X112576Y1357000D01*
X333401Y1400925D01*
X541413Y1487087D01*
X728620Y1612174D01*
X841000Y1724554D01*
X841001Y-1724555D01*
X728620Y-1612174D01*
X541413Y-1487087D01*
X333401Y-1400925D01*
X112576Y-1357000D01*
X-112576Y-1357000D01*
X-333401Y-1400925D01*
X-541413Y-1487087D01*
X-728620Y-1612174D01*
X-887826Y-1771380D01*
X-1012913Y-1958587D01*
X-1099075Y-2166599D01*
X-1143000Y-2387424D01*
X-1143000Y-2612576D01*
X-1099075Y-2833401D01*
X-1012913Y-3041413D01*
X-887826Y-3228620D01*
X-728620Y-3387826D01*
X-541413Y-3512913D01*
X-333401Y-3599075D01*
X-112576Y-3643000D01*
X112576Y-3643000D01*
X333401Y-3599075D01*
X541413Y-3512913D01*
X728620Y-3387826D01*
X841001Y-3275445D01*
X841001Y-3655686D01*
X838311Y-3683000D01*
X849045Y-3791994D01*
X873250Y-3871785D01*
X880839Y-3896801D01*
X898505Y-3929852D01*
X838922Y-3918000D01*
X685078Y-3918000D01*
X534191Y-3948013D01*
X392058Y-4006887D01*
X264141Y-4092358D01*
X155358Y-4201141D01*
X69887Y-4329058D01*
X11013Y-4471191D01*
X-19000Y-4622078D01*
X-19000Y-4764408D01*
X-2347591Y-7093000D01*
X-2489922Y-7093000D01*
X-2640809Y-7123013D01*
X-2782942Y-7181887D01*
X-2910859Y-7267358D01*
X-3019642Y-7376141D01*
X-3105113Y-7504058D01*
X-3163987Y-7646191D01*
X-3194000Y-7797078D01*
X-3194000Y-7950922D01*
X-3163987Y-8101809D01*
X-3105113Y-8243942D01*
X-3019642Y-8371859D01*
X-2935387Y-8456114D01*
X-2978113Y-8520058D01*
X-3036987Y-8662191D01*
X-3067000Y-8813078D01*
X-3067000Y-8966922D01*
X-3036987Y-9117809D01*
X-2978113Y-9259942D01*
X-2929792Y-9332259D01*
X-8163734Y-4098319D01*
X-8163734Y-2592767D01*
X-8117859Y-2638642D01*
X-7989942Y-2724113D01*
X-7847809Y-2782987D01*
X-7696922Y-2813000D01*
X-7543078Y-2813000D01*
X-7392191Y-2782987D01*
X-7250058Y-2724113D01*
X-7122141Y-2638642D01*
X-7013358Y-2529859D01*
X-6927887Y-2401942D01*
X-6869013Y-2259809D01*
X-6839000Y-2108922D01*
X-6839000Y-1955078D01*
X-6869013Y-1804191D01*
X-6927887Y-1662058D01*
X-7013358Y-1534141D01*
X-7122141Y-1425358D01*
X-7250058Y-1339887D01*
X-7392191Y-1281013D01*
X-7543078Y-1251000D01*
X-7685408Y-1251000D01*
X-10964454Y2028045D01*
X-10950358Y2042141D01*
X-10864887Y2170058D01*
X-10806013Y2312191D01*
X-10776000Y2463078D01*
X-10776000Y2489922D01*
X-7512000Y2489922D01*
X-7512000Y2336078D01*
X-7481987Y2185191D01*
X-7423113Y2043058D01*
X-7337642Y1915141D01*
X-7228859Y1806358D01*
X-7100942Y1720887D01*
X-6958809Y1662013D01*
X-6807922Y1632000D01*
X-6654078Y1632000D01*
X-6503191Y1662013D01*
X-6489368Y1667739D01*
X-6465987Y1550191D01*
X-6407113Y1408058D01*
X-6321642Y1280141D01*
X-6212859Y1171358D01*
X-6084942Y1085887D01*
X-5942809Y1027013D01*
X-5791922Y997000D01*
X-5638078Y997000D01*
X-5487191Y1027013D01*
X-5345058Y1085887D01*
X-5217141Y1171358D01*
X-5108358Y1280141D01*
X-5022887Y1408058D01*
X-4964013Y1550191D01*
X-4934000Y1701078D01*
X-4934000Y1854922D01*
X-4964013Y2005809D01*
X-5022887Y2147942D01*
X-5108358Y2275859D01*
X-5209000Y2376501D01*
X-5209000Y2711409D01*
X-4383408Y3537000D01*
X-4241078Y3537000D01*
X-4090191Y3567013D01*
X-3948058Y3625887D01*
X-3820141Y3711358D01*
X-3711358Y3820141D01*
X-3625887Y3948058D01*
X-3567013Y4090191D01*
X-3537000Y4241078D01*
X-3537000Y4394922D01*
X-3567013Y4545809D01*
X-3625887Y4687942D01*
X-3711358Y4815859D01*
X-3820141Y4924642D01*
X-3948058Y5010113D01*
X-4090191Y5068987D01*
X-4222170Y5095239D01*
X-3113408Y6204000D01*
X-2971078Y6204000D01*
X-2820191Y6234013D01*
X-2678058Y6292887D01*
X-2550141Y6378358D01*
X-2441358Y6487141D01*
X-2355887Y6615058D01*
X-2297013Y6757191D01*
X-2267000Y6908078D01*
X-2267000Y7061922D01*
X-2297013Y7212809D01*
X-2355887Y7354942D01*
X-2441358Y7482859D01*
X-2550141Y7591642D01*
X-2678058Y7677113D01*
X-2820191Y7735987D01*
X-2971078Y7766000D01*
X-3124922Y7766000D01*
X-3275809Y7735987D01*
X-3417942Y7677113D01*
X-3545859Y7591642D01*
X-3654642Y7482859D01*
X-3740113Y7354942D01*
X-3798987Y7212809D01*
X-3829000Y7061922D01*
X-3829000Y6919592D01*
X-7071219Y3677372D01*
X-7090526Y3661527D01*
X-7153758Y3584479D01*
X-7163094Y3567013D01*
X-7200745Y3496574D01*
X-7229678Y3401192D01*
X-7239447Y3302000D01*
X-7236999Y3277144D01*
X-7236999Y3011502D01*
X-7337642Y2910859D01*
X-7423113Y2782942D01*
X-7481987Y2640809D01*
X-7512000Y2489922D01*
X-10776000Y2489922D01*
X-10776000Y2616922D01*
X-10806013Y2767809D01*
X-10864887Y2909942D01*
X-10950358Y3037859D01*
X-11059141Y3146642D01*
X-11187058Y3232113D01*
X-11329191Y3290987D01*
X-11480078Y3321000D01*
X-11633922Y3321000D01*
X-11784809Y3290987D01*
X-11926942Y3232113D01*
X-12054859Y3146642D01*
X-12163642Y3037859D01*
X-12249113Y2909942D01*
X-12286476Y2819742D01*
X-12347358Y2910859D01*
X-12456141Y3019642D01*
X-12584058Y3105113D01*
X-12726191Y3163987D01*
X-12877078Y3194000D01*
X-13030922Y3194000D01*
X-13181809Y3163987D01*
X-13323942Y3105113D01*
X-13451859Y3019642D01*
X-13560642Y2910859D01*
X-13646113Y2782942D01*
X-13704987Y2640809D01*
X-13735000Y2489922D01*
X-13735000Y2336078D01*
X-13704987Y2185191D01*
X-13646113Y2043058D01*
X-13560642Y1915141D01*
X-13451859Y1806358D01*
X-13323942Y1720887D01*
X-13181809Y1662013D01*
X-13030922Y1632000D01*
X-12888591Y1632000D01*
X-9882787Y-1373805D01*
X-9942214Y-1349189D01*
X-10093101Y-1319176D01*
X-10246945Y-1319176D01*
X-10397832Y-1349189D01*
X-10539965Y-1408063D01*
X-10667882Y-1493534D01*
X-10776665Y-1602317D01*
X-10793340Y-1627273D01*
X-10803751Y-1630431D01*
X-10891655Y-1677417D01*
X-10968703Y-1740649D01*
X-10984548Y-1759956D01*
X-11550367Y-2325776D01*
X-14226730Y-2325776D01*
X-14327372Y-2225134D01*
X-14455289Y-2139663D01*
X-14597422Y-2080789D01*
X-14748309Y-2050776D01*
X-14902153Y-2050776D01*
X-15053040Y-2080789D01*
X-15195173Y-2139663D01*
X-15323090Y-2225134D01*
X-15431873Y-2333917D01*
X-15517344Y-2461834D01*
X-15576218Y-2603967D01*
X-15606231Y-2754854D01*
X-15606231Y-2908698D01*
X-15576218Y-3059585D01*
X-15521457Y-3191788D01*
X-15632058Y-3117887D01*
X-15774191Y-3059013D01*
X-15925078Y-3029000D01*
X-16078922Y-3029000D01*
X-16229809Y-3059013D01*
X-16371942Y-3117887D01*
X-16499859Y-3203358D01*
X-16608642Y-3312141D01*
X-16694113Y-3440058D01*
X-16752987Y-3582191D01*
X-16783000Y-3733078D01*
X-16783000Y-3886922D01*
X-16752987Y-4037809D01*
X-16694113Y-4179942D01*
X-16608642Y-4307859D01*
X-16499859Y-4416642D01*
X-16371942Y-4502113D01*
X-16229809Y-4560987D01*
X-16078922Y-4591000D01*
X-15925078Y-4591000D01*
X-15774191Y-4560987D01*
X-15632058Y-4502113D01*
X-15504141Y-4416642D01*
X-15403499Y-4316000D01*
X-14821931Y-4316000D01*
X-14850194Y-4458088D01*
X-14850194Y-4600419D01*
X-15195665Y-4945890D01*
X-15214971Y-4961734D01*
X-15278203Y-5038782D01*
X-15294324Y-5068942D01*
X-15325190Y-5126687D01*
X-15354123Y-5222069D01*
X-15363892Y-5321261D01*
X-15361444Y-5346116D01*
X-15361445Y-5813598D01*
X-15363892Y-5838445D01*
X-15361445Y-5863291D01*
X-15361445Y-5863298D01*
X-15354123Y-5937637D01*
X-15325190Y-6033019D01*
X-15278204Y-6120924D01*
X-15214972Y-6197972D01*
X-15195660Y-6213821D01*
X-13441000Y-7968482D01*
X-13441000Y-8845678D01*
X-13442963Y-8842741D01*
X-13551746Y-8733958D01*
X-13679663Y-8648487D01*
X-13821796Y-8589613D01*
X-13824622Y-8589051D01*
X-13824000Y-8585922D01*
X-13824000Y-8432078D01*
X-13854013Y-8281191D01*
X-13912887Y-8139058D01*
X-13998358Y-8011141D01*
X-14107141Y-7902358D01*
X-14235058Y-7816887D01*
X-14377191Y-7758013D01*
X-14528078Y-7728000D01*
X-14681922Y-7728000D01*
X-14832809Y-7758013D01*
X-14974942Y-7816887D01*
X-15102859Y-7902358D01*
X-15211642Y-8011141D01*
X-15297113Y-8139058D01*
X-15355987Y-8281191D01*
X-15386000Y-8432078D01*
X-15386000Y-8574409D01*
X-15449591Y-8638000D01*
X-15466916Y-8638000D01*
X-16236102Y-7868815D01*
X-16221433Y-7833401D01*
X-16177508Y-7612576D01*
X-16177508Y-7387424D01*
X-16221433Y-7166599D01*
X-16307595Y-6958587D01*
X-16432682Y-6771380D01*
X-16591888Y-6612174D01*
X-16779095Y-6487087D01*
X-16987107Y-6400925D01*
X-17207932Y-6357000D01*
X-17433084Y-6357000D01*
X-17653909Y-6400925D01*
X-17861921Y-6487087D01*
X-18049128Y-6612174D01*
X-18208334Y-6771380D01*
X-18333421Y-6958587D01*
X-18419583Y-7166599D01*
X-18463508Y-7387424D01*
X-23447183Y-7387424D01*
X-23897236Y-5812655D01*
X-24283509Y-3895641D01*
X-24516254Y-1953997D01*
X-24594000Y0D01*
X-24516254Y1953997D01*
X-24283509Y3895641D01*
X-24027883Y5164277D01*
X-10328184Y5164277D01*
X-10328184Y4835723D01*
X-10264086Y4513483D01*
X-10138354Y4209939D01*
X-9955820Y3936757D01*
X-9723497Y3704434D01*
X-9450315Y3521900D01*
X-9146771Y3396168D01*
X-8824531Y3332070D01*
X-8495977Y3332070D01*
X-8173737Y3396168D01*
X-7870193Y3521900D01*
X-7597011Y3704434D01*
X-7364688Y3936757D01*
X-7182154Y4209939D01*
X-7056422Y4513483D01*
X-6992324Y4835723D01*
X-6992324Y5164277D01*
X-7056422Y5486517D01*
X-7182154Y5790061D01*
X-7364688Y6063243D01*
X-7597011Y6295566D01*
X-7870193Y6478100D01*
X-8173737Y6603832D01*
X-8495977Y6667930D01*
X-8824531Y6667930D01*
X-9146771Y6603832D01*
X-9450315Y6478100D01*
X-9723497Y6295566D01*
X-9955820Y6063243D01*
X-10138354Y5790061D01*
X-10264086Y5486517D01*
X-10328184Y5164277D01*
X-24027883Y5164277D01*
X-23897236Y5812655D01*
X-23359876Y7692920D01*
X-22674828Y9524547D01*
X-21846423Y11295958D01*
X-20879897Y12995951D01*
X-19781362Y14613780D01*
X-18707997Y15951922D01*
X-10560000Y15951922D01*
X-10560000Y15798078D01*
X-10529987Y15647191D01*
X-10471113Y15505058D01*
X-10385642Y15377141D01*
X-10284999Y15276498D01*
X-10285000Y14121847D01*
X-10287447Y14097000D01*
X-10285000Y14072154D01*
X-10285000Y14072147D01*
X-10277678Y13997808D01*
X-10248745Y13902426D01*
X-10201759Y13814521D01*
X-10138527Y13737473D01*
X-10119215Y13721624D01*
X-8884372Y12486780D01*
X-8868527Y12467473D01*
X-8791479Y12404241D01*
X-8703575Y12357255D01*
X-8608194Y12328322D01*
X-8598306Y12327348D01*
X-8533854Y12321000D01*
X-8533847Y12321000D01*
X-8509001Y12318553D01*
X-8484155Y12321000D01*
X1822409Y12321000D01*
X4964278Y9179130D01*
X4964284Y9179125D01*
X4994001Y9149408D01*
X4994001Y8848502D01*
X4893358Y8747859D01*
X4807887Y8619942D01*
X4749013Y8477809D01*
X4719000Y8326922D01*
X4719000Y8173078D01*
X4749013Y8022191D01*
X4807887Y7880058D01*
X4893358Y7752141D01*
X5002141Y7643358D01*
X5130058Y7557887D01*
X5272191Y7499013D01*
X5423078Y7469000D01*
X5576922Y7469000D01*
X5727809Y7499013D01*
X5869942Y7557887D01*
X5997859Y7643358D01*
X6106642Y7752141D01*
X6192113Y7880058D01*
X6245898Y8009904D01*
X6272191Y7999013D01*
X6423078Y7969000D01*
X6576922Y7969000D01*
X6727809Y7999013D01*
X6869942Y8057887D01*
X6997859Y8143358D01*
X7106642Y8252141D01*
X7192113Y8380058D01*
X7250987Y8522191D01*
X7281000Y8673078D01*
X7281000Y8826922D01*
X7250987Y8977809D01*
X7192113Y9119942D01*
X7106642Y9247859D01*
X7006000Y9348501D01*
X7006000Y9696562D01*
X7008447Y9721408D01*
X7006000Y9746254D01*
X7006000Y9746262D01*
X6998678Y9820601D01*
X6969745Y9915983D01*
X6922759Y10003887D01*
X6859527Y10080935D01*
X6840215Y10096784D01*
X6611079Y10325920D01*
X6611074Y10325926D01*
X6199809Y10737191D01*
X6320266Y10817678D01*
X6429049Y10926461D01*
X6514520Y11054378D01*
X6573394Y11196511D01*
X6603407Y11347398D01*
X6603407Y11501242D01*
X6573394Y11652129D01*
X6514520Y11794262D01*
X6429049Y11922179D01*
X6320266Y12030962D01*
X6192349Y12116433D01*
X6050216Y12175307D01*
X5899329Y12205320D01*
X5756999Y12205320D01*
X3435093Y14527225D01*
X3419244Y14546537D01*
X3342196Y14609769D01*
X3254292Y14656755D01*
X3158910Y14685688D01*
X3084571Y14693010D01*
X3084563Y14693010D01*
X3059717Y14695457D01*
X3034871Y14693010D01*
X-6822293Y14693010D01*
X-6922935Y14793652D01*
X-7050852Y14879123D01*
X-7192985Y14937997D01*
X-7343872Y14968010D01*
X-7497716Y14968010D01*
X-7648603Y14937997D01*
X-7790736Y14879123D01*
X-7918653Y14793652D01*
X-8027436Y14684869D01*
X-8064259Y14629760D01*
X-8138141Y14703642D01*
X-8266058Y14789113D01*
X-8408191Y14847987D01*
X-8559078Y14878000D01*
X-8712922Y14878000D01*
X-8863809Y14847987D01*
X-9005942Y14789113D01*
X-9133859Y14703642D01*
X-9242642Y14594859D01*
X-9273000Y14549425D01*
X-9273000Y15276499D01*
X-9172358Y15377141D01*
X-9086887Y15505058D01*
X-9028013Y15647191D01*
X-8998000Y15798078D01*
X-8998000Y15951922D01*
X-9028013Y16102809D01*
X-9086887Y16244942D01*
X-9172358Y16372859D01*
X-9281141Y16481642D01*
X-9409058Y16567113D01*
X-9551191Y16625987D01*
X-9702078Y16656000D01*
X-9855922Y16656000D01*
X-10006809Y16625987D01*
X-10148942Y16567113D01*
X-10276859Y16481642D01*
X-10385642Y16372859D01*
X-10471113Y16244942D01*
X-10529987Y16102809D01*
X-10560000Y15951922D01*
X-18707997Y15951922D01*
X-18557762Y16139216D01*
X-17216835Y17562615D01*
X-15767057Y18874977D01*
X-14217595Y20068005D01*
X-14149062Y20112576D01*
X-3643000Y20112576D01*
X-3643000Y19887424D01*
X-3599075Y19666599D01*
X-3512913Y19458587D01*
X-3387826Y19271380D01*
X-3228620Y19112174D01*
X-3041413Y18987087D01*
X-2833401Y18900925D01*
X-2612576Y18857000D01*
X-2387424Y18857000D01*
X-2166599Y18900925D01*
X-1958587Y18987087D01*
X-1771380Y19112174D01*
X-1612174Y19271380D01*
X-1487087Y19458587D01*
X-1400925Y19666599D01*
X-1357000Y19887424D01*
X-1357000Y20112576D01*
X1357000Y20112576D01*
X1357000Y19887424D01*
X1400925Y19666599D01*
X1487087Y19458587D01*
X1612174Y19271380D01*
X1771380Y19112174D01*
X1958587Y18987087D01*
X2008754Y18966307D01*
X2030255Y18895426D01*
X2077241Y18807521D01*
X2140473Y18730473D01*
X2159785Y18714624D01*
X9252000Y11622408D01*
X9252000Y11480078D01*
X9282013Y11329191D01*
X9340887Y11187058D01*
X9426358Y11059141D01*
X9535141Y10950358D01*
X9663058Y10864887D01*
X9805191Y10806013D01*
X9956078Y10776000D01*
X10109922Y10776000D01*
X10260809Y10806013D01*
X10402942Y10864887D01*
X10530859Y10950358D01*
X10639642Y11059141D01*
X10725113Y11187058D01*
X10783987Y11329191D01*
X10789168Y11355240D01*
X11214999Y10929409D01*
X11214998Y9258848D01*
X11212551Y9234002D01*
X11214998Y9209156D01*
X11214998Y9209149D01*
X11222320Y9134810D01*
X11251253Y9039428D01*
X11298239Y8951523D01*
X11361471Y8874475D01*
X11380783Y8858626D01*
X13189000Y7050408D01*
X13189000Y6908078D01*
X13219013Y6757191D01*
X13277887Y6615058D01*
X13363358Y6487141D01*
X13472141Y6378358D01*
X13600058Y6292887D01*
X13742191Y6234013D01*
X13893078Y6204000D01*
X14046922Y6204000D01*
X14197809Y6234013D01*
X14339942Y6292887D01*
X14467859Y6378358D01*
X14576642Y6487141D01*
X14662113Y6615058D01*
X14692937Y6689472D01*
X15880628Y5501780D01*
X15896473Y5482473D01*
X15973521Y5419241D01*
X16061425Y5372255D01*
X16156807Y5343322D01*
X16256000Y5333552D01*
X16280854Y5336000D01*
X19576364Y5336000D01*
X19567322Y5306192D01*
X19557553Y5207000D01*
X19560001Y5182144D01*
X19560000Y1868501D01*
X19459358Y1767859D01*
X19373887Y1639942D01*
X19315013Y1497809D01*
X19285000Y1346922D01*
X19285000Y1193078D01*
X19315013Y1042191D01*
X19373887Y900058D01*
X19459358Y772141D01*
X19568141Y663358D01*
X19696058Y577887D01*
X19838191Y519013D01*
X19989078Y489000D01*
X20142922Y489000D01*
X20293809Y519013D01*
X20435942Y577887D01*
X20563859Y663358D01*
X20672642Y772141D01*
X20758113Y900058D01*
X20816987Y1042191D01*
X20847000Y1193078D01*
X20847000Y1346922D01*
X20816987Y1497809D01*
X20758113Y1639942D01*
X20672642Y1767859D01*
X20572000Y1868501D01*
X20572000Y4997409D01*
X20910592Y5336000D01*
X21626499Y5336000D01*
X21727141Y5235358D01*
X21855058Y5149887D01*
X21997191Y5091013D01*
X22148078Y5061000D01*
X22301922Y5061000D01*
X22452809Y5091013D01*
X22594942Y5149887D01*
X22722859Y5235358D01*
X22831642Y5344141D01*
X22917113Y5472058D01*
X22975987Y5614191D01*
X23006000Y5765078D01*
X23006000Y5918922D01*
X22975987Y6069809D01*
X22917113Y6211942D01*
X22831642Y6339859D01*
X22722859Y6448642D01*
X22594942Y6534113D01*
X22452809Y6592987D01*
X22301922Y6623000D01*
X22148078Y6623000D01*
X21997191Y6592987D01*
X21855058Y6534113D01*
X21727141Y6448642D01*
X21626499Y6348000D01*
X20725854Y6348000D01*
X20701000Y6350448D01*
X20676146Y6348000D01*
X16465592Y6348000D01*
X12952000Y9861591D01*
X12952000Y10831499D01*
X13052642Y10932141D01*
X13138113Y11060058D01*
X13196987Y11202191D01*
X13227000Y11353078D01*
X13227000Y11506922D01*
X13196987Y11657809D01*
X13138113Y11799942D01*
X13052642Y11927859D01*
X12943859Y12036642D01*
X12815942Y12122113D01*
X12673809Y12180987D01*
X12522922Y12211000D01*
X12369078Y12211000D01*
X12218191Y12180987D01*
X12076058Y12122113D01*
X11948141Y12036642D01*
X11839358Y11927859D01*
X11762604Y11812988D01*
X6496000Y17079591D01*
X6496000Y17221922D01*
X6465987Y17372809D01*
X6407113Y17514942D01*
X6321642Y17642859D01*
X6212859Y17751642D01*
X6084942Y17837113D01*
X5942809Y17895987D01*
X5791922Y17926000D01*
X5638078Y17926000D01*
X5487191Y17895987D01*
X5345058Y17837113D01*
X5217141Y17751642D01*
X5108358Y17642859D01*
X5022887Y17514942D01*
X4964013Y17372809D01*
X4958832Y17346760D01*
X3207517Y19098074D01*
X3228620Y19112174D01*
X3387826Y19271380D01*
X3512913Y19458587D01*
X3599075Y19666599D01*
X3643000Y19887424D01*
X3643000Y20112576D01*
X3599075Y20333401D01*
X3512913Y20541413D01*
X3387826Y20728620D01*
X3228620Y20887826D01*
X3041413Y21012913D01*
X2833401Y21099075D01*
X2612576Y21143000D01*
X2387424Y21143000D01*
X2166599Y21099075D01*
X1958587Y21012913D01*
X1771380Y20887826D01*
X1612174Y20728620D01*
X1487087Y20541413D01*
X1400925Y20333401D01*
X1357000Y20112576D01*
X-1357000Y20112576D01*
X-1400925Y20333401D01*
X-1487087Y20541413D01*
X-1612174Y20728620D01*
X-1771380Y20887826D01*
X-1958587Y21012913D01*
X-2166599Y21099075D01*
X-2387424Y21143000D01*
X-2612576Y21143000D01*
X-2833401Y21099075D01*
X-3041413Y21012913D01*
X-3228620Y20887826D01*
X-3387826Y20728620D01*
X-3512913Y20541413D01*
X-3599075Y20333401D01*
X-3643000Y20112576D01*
X-14149062Y20112576D01*
X-12578244Y21134157D01*
X-10859370Y22066693D01*
X-9071839Y22859715D01*
X-7226954Y23508211D01*
X-5336377Y24008080D01*
X-3412062Y24356163D01*
X-1466174Y24550258D01*
X488983Y24589138D01*
X2441048Y24472559D01*
%TA.AperFunction,Conductor*%
D19*
G36*
X2441048Y24472559D02*
G01*
X4377680Y24201255D01*
X6286635Y23776944D01*
X8155845Y23202307D01*
X9973490Y22480977D01*
X11728079Y21617516D01*
X13408520Y20617382D01*
X15004188Y19486898D01*
X16504995Y18233211D01*
X17901451Y16864248D01*
X19184729Y15388664D01*
X20346715Y13815788D01*
X21380063Y12155565D01*
X22278239Y10418489D01*
X23035564Y8615545D01*
X23647252Y6758130D01*
X24109433Y4857989D01*
X24419188Y2927133D01*
X24574556Y977772D01*
X24574556Y-977772D01*
X24419188Y-2927133D01*
X24109433Y-4857989D01*
X23647252Y-6758130D01*
X23035564Y-8615545D01*
X22278239Y-10418489D01*
X21380063Y-12155565D01*
X20346715Y-13815788D01*
X19184729Y-15388664D01*
X17901451Y-16864248D01*
X16504995Y-18233211D01*
X15004188Y-19486898D01*
X13408520Y-20617382D01*
X11728079Y-21617516D01*
X9973490Y-22480977D01*
X8155845Y-23202307D01*
X6286635Y-23776944D01*
X4377680Y-24201255D01*
X2441048Y-24472559D01*
X488983Y-24589138D01*
X-1466174Y-24550258D01*
X-3412062Y-24356163D01*
X-5336377Y-24008080D01*
X-7226954Y-23508211D01*
X-9071839Y-22859715D01*
X-10859370Y-22066693D01*
X-12578244Y-21134157D01*
X-14217595Y-20068005D01*
X-14357966Y-19959924D01*
X-6409882Y-19959924D01*
X-6330694Y-20214089D01*
X-6203442Y-20447921D01*
X-6033017Y-20652434D01*
X-5825968Y-20819769D01*
X-5590252Y-20943496D01*
X-5354924Y-21014880D01*
X-5143500Y-20914361D01*
X-5143500Y-19748500D01*
X-6309517Y-19748500D01*
X-6409882Y-19959924D01*
X-14357966Y-19959924D01*
X-15072089Y-19410076D01*
X-6409882Y-19410076D01*
X-6309517Y-19621500D01*
X-5143500Y-19621500D01*
X-5143500Y-19601500D01*
X-5016500Y-19601500D01*
X-5016500Y-19621500D01*
X-4996500Y-19621500D01*
X-4996500Y-19748500D01*
X-5016500Y-19748500D01*
X-5016500Y-20914361D01*
X-4805076Y-21014880D01*
X-4569748Y-20943496D01*
X-4334032Y-20819769D01*
X-4126983Y-20652434D01*
X-3956558Y-20447921D01*
X-3829306Y-20214089D01*
X-3750118Y-19959924D01*
X-3850482Y-19748502D01*
X-3771000Y-19748502D01*
X-3771000Y-19806243D01*
X-3723693Y-20044069D01*
X-3630898Y-20268097D01*
X-3496180Y-20469717D01*
X-3324717Y-20641180D01*
X-3123097Y-20775898D01*
X-2899069Y-20868693D01*
X-2661243Y-20916000D01*
X-2418757Y-20916000D01*
X-2180931Y-20868693D01*
X-1956903Y-20775898D01*
X-1755283Y-20641180D01*
X-1583820Y-20469717D01*
X-1449102Y-20268097D01*
X-1356307Y-20044069D01*
X-1309000Y-19806243D01*
X-1309000Y-19563757D01*
X-1231000Y-19563757D01*
X-1231000Y-19806243D01*
X-1183693Y-20044069D01*
X-1090898Y-20268097D01*
X-956180Y-20469717D01*
X-784717Y-20641180D01*
X-583097Y-20775898D01*
X-359069Y-20868693D01*
X-121243Y-20916000D01*
X121243Y-20916000D01*
X359069Y-20868693D01*
X583097Y-20775898D01*
X784717Y-20641180D01*
X956180Y-20469717D01*
X1090898Y-20268097D01*
X1183693Y-20044069D01*
X1231000Y-19806243D01*
X1231000Y-19563757D01*
X1309000Y-19563757D01*
X1309000Y-19806243D01*
X1356307Y-20044069D01*
X1449102Y-20268097D01*
X1583820Y-20469717D01*
X1755283Y-20641180D01*
X1956903Y-20775898D01*
X2180931Y-20868693D01*
X2418757Y-20916000D01*
X2661243Y-20916000D01*
X2899069Y-20868693D01*
X3123097Y-20775898D01*
X3324717Y-20641180D01*
X3496180Y-20469717D01*
X3630898Y-20268097D01*
X3723693Y-20044069D01*
X3771000Y-19806243D01*
X3771000Y-19563757D01*
X3849000Y-19563757D01*
X3849000Y-19806243D01*
X3896307Y-20044069D01*
X3989102Y-20268097D01*
X4123820Y-20469717D01*
X4295283Y-20641180D01*
X4496903Y-20775898D01*
X4720931Y-20868693D01*
X4958757Y-20916000D01*
X5201243Y-20916000D01*
X5439069Y-20868693D01*
X5663097Y-20775898D01*
X5864717Y-20641180D01*
X6036180Y-20469717D01*
X6170898Y-20268097D01*
X6263693Y-20044069D01*
X6311000Y-19806243D01*
X6311000Y-19563757D01*
X6263693Y-19325931D01*
X6170898Y-19101903D01*
X6036180Y-18900283D01*
X5864717Y-18728820D01*
X5663097Y-18594102D01*
X5439069Y-18501307D01*
X5201243Y-18454000D01*
X4958757Y-18454000D01*
X4720931Y-18501307D01*
X4496903Y-18594102D01*
X4295283Y-18728820D01*
X4123820Y-18900283D01*
X3989102Y-19101903D01*
X3896307Y-19325931D01*
X3849000Y-19563757D01*
X3771000Y-19563757D01*
X3723693Y-19325931D01*
X3630898Y-19101903D01*
X3496180Y-18900283D01*
X3324717Y-18728820D01*
X3123097Y-18594102D01*
X2899069Y-18501307D01*
X2661243Y-18454000D01*
X2418757Y-18454000D01*
X2180931Y-18501307D01*
X1956903Y-18594102D01*
X1755283Y-18728820D01*
X1583820Y-18900283D01*
X1449102Y-19101903D01*
X1356307Y-19325931D01*
X1309000Y-19563757D01*
X1231000Y-19563757D01*
X1183693Y-19325931D01*
X1090898Y-19101903D01*
X956180Y-18900283D01*
X784717Y-18728820D01*
X583097Y-18594102D01*
X359069Y-18501307D01*
X121243Y-18454000D01*
X-121243Y-18454000D01*
X-359069Y-18501307D01*
X-583097Y-18594102D01*
X-784717Y-18728820D01*
X-956180Y-18900283D01*
X-1090898Y-19101903D01*
X-1183693Y-19325931D01*
X-1231000Y-19563757D01*
X-1309000Y-19563757D01*
X-1356307Y-19325931D01*
X-1449102Y-19101903D01*
X-1583820Y-18900283D01*
X-1755283Y-18728820D01*
X-1956903Y-18594102D01*
X-2180931Y-18501307D01*
X-2418757Y-18454000D01*
X-2661243Y-18454000D01*
X-2899069Y-18501307D01*
X-3123097Y-18594102D01*
X-3324717Y-18728820D01*
X-3496180Y-18900283D01*
X-3630898Y-19101903D01*
X-3723693Y-19325931D01*
X-3771000Y-19563757D01*
X-3771000Y-19621498D01*
X-3850482Y-19621498D01*
X-3750118Y-19410076D01*
X-3829306Y-19155911D01*
X-3956558Y-18922079D01*
X-4126983Y-18717566D01*
X-4334032Y-18550231D01*
X-4569748Y-18426504D01*
X-4805076Y-18355120D01*
X-5016498Y-18455638D01*
X-5016498Y-18376000D01*
X-4958757Y-18376000D01*
X-4720931Y-18328693D01*
X-4496903Y-18235898D01*
X-4295283Y-18101180D01*
X-4123820Y-17929717D01*
X-3989102Y-17728097D01*
X-3896307Y-17504069D01*
X-3849000Y-17266243D01*
X-3849000Y-17023757D01*
X-3771000Y-17023757D01*
X-3771000Y-17266243D01*
X-3723693Y-17504069D01*
X-3630898Y-17728097D01*
X-3496180Y-17929717D01*
X-3324717Y-18101180D01*
X-3123097Y-18235898D01*
X-2899069Y-18328693D01*
X-2661243Y-18376000D01*
X-2418757Y-18376000D01*
X-2180931Y-18328693D01*
X-1956903Y-18235898D01*
X-1755283Y-18101180D01*
X-1583820Y-17929717D01*
X-1449102Y-17728097D01*
X-1356307Y-17504069D01*
X-1309000Y-17266243D01*
X-1309000Y-17023757D01*
X-1231000Y-17023757D01*
X-1231000Y-17266243D01*
X-1183693Y-17504069D01*
X-1090898Y-17728097D01*
X-956180Y-17929717D01*
X-784717Y-18101180D01*
X-583097Y-18235898D01*
X-359069Y-18328693D01*
X-121243Y-18376000D01*
X121243Y-18376000D01*
X359069Y-18328693D01*
X583097Y-18235898D01*
X784717Y-18101180D01*
X956180Y-17929717D01*
X1090898Y-17728097D01*
X1183693Y-17504069D01*
X1231000Y-17266243D01*
X1231000Y-17023757D01*
X1309000Y-17023757D01*
X1309000Y-17266243D01*
X1356307Y-17504069D01*
X1449102Y-17728097D01*
X1583820Y-17929717D01*
X1755283Y-18101180D01*
X1956903Y-18235898D01*
X2180931Y-18328693D01*
X2418757Y-18376000D01*
X2661243Y-18376000D01*
X2899069Y-18328693D01*
X3123097Y-18235898D01*
X3324717Y-18101180D01*
X3496180Y-17929717D01*
X3630898Y-17728097D01*
X3723693Y-17504069D01*
X3771000Y-17266243D01*
X3771000Y-17023757D01*
X3723693Y-16785931D01*
X3630898Y-16561903D01*
X3496180Y-16360283D01*
X3324717Y-16188820D01*
X3123097Y-16054102D01*
X2899069Y-15961307D01*
X2661243Y-15914000D01*
X2418757Y-15914000D01*
X2180931Y-15961307D01*
X1956903Y-16054102D01*
X1755283Y-16188820D01*
X1583820Y-16360283D01*
X1449102Y-16561903D01*
X1356307Y-16785931D01*
X1309000Y-17023757D01*
X1231000Y-17023757D01*
X1183693Y-16785931D01*
X1090898Y-16561903D01*
X956180Y-16360283D01*
X784717Y-16188820D01*
X583097Y-16054102D01*
X359069Y-15961307D01*
X121243Y-15914000D01*
X-121243Y-15914000D01*
X-359069Y-15961307D01*
X-583097Y-16054102D01*
X-784717Y-16188820D01*
X-956180Y-16360283D01*
X-1090898Y-16561903D01*
X-1183693Y-16785931D01*
X-1231000Y-17023757D01*
X-1309000Y-17023757D01*
X-1356307Y-16785931D01*
X-1449102Y-16561903D01*
X-1583820Y-16360283D01*
X-1755283Y-16188820D01*
X-1956903Y-16054102D01*
X-2180931Y-15961307D01*
X-2418757Y-15914000D01*
X-2661243Y-15914000D01*
X-2899069Y-15961307D01*
X-3123097Y-16054102D01*
X-3324717Y-16188820D01*
X-3496180Y-16360283D01*
X-3630898Y-16561903D01*
X-3723693Y-16785931D01*
X-3771000Y-17023757D01*
X-3849000Y-17023757D01*
X-3896307Y-16785931D01*
X-3989102Y-16561903D01*
X-4123820Y-16360283D01*
X-4295283Y-16188820D01*
X-4496903Y-16054102D01*
X-4720931Y-15961307D01*
X-4958757Y-15914000D01*
X-5201243Y-15914000D01*
X-5439069Y-15961307D01*
X-5663097Y-16054102D01*
X-5864717Y-16188820D01*
X-6036180Y-16360283D01*
X-6170898Y-16561903D01*
X-6263693Y-16785931D01*
X-6311000Y-17023757D01*
X-6311000Y-17266243D01*
X-6263693Y-17504069D01*
X-6170898Y-17728097D01*
X-6036180Y-17929717D01*
X-5864717Y-18101180D01*
X-5663097Y-18235898D01*
X-5439069Y-18328693D01*
X-5201243Y-18376000D01*
X-5143502Y-18376000D01*
X-5143502Y-18455638D01*
X-5354924Y-18355120D01*
X-5590252Y-18426504D01*
X-5825968Y-18550231D01*
X-6033017Y-18717566D01*
X-6203442Y-18922079D01*
X-6330694Y-19155911D01*
X-6409882Y-19410076D01*
X-15072089Y-19410076D01*
X-15767057Y-18874977D01*
X-17216835Y-17562615D01*
X-18557762Y-16139216D01*
X-19781362Y-14613780D01*
X-20879897Y-12995951D01*
X-21846423Y-11295958D01*
X-22674828Y-9524547D01*
X-23359876Y-7692920D01*
X-23447183Y-7387424D01*
X-18463508Y-7387424D01*
X-18463508Y-7612576D01*
X-18419583Y-7833401D01*
X-18333421Y-8041413D01*
X-18208334Y-8228620D01*
X-18049128Y-8387826D01*
X-17861921Y-8512913D01*
X-17653909Y-8599075D01*
X-17433084Y-8643000D01*
X-17207932Y-8643000D01*
X-16987107Y-8599075D01*
X-16951693Y-8584406D01*
X-16051880Y-9484220D01*
X-16036035Y-9503527D01*
X-15958987Y-9566759D01*
X-15892792Y-9602141D01*
X-15871083Y-9613745D01*
X-15775702Y-9642678D01*
X-15765814Y-9643652D01*
X-15701362Y-9650000D01*
X-15701355Y-9650000D01*
X-15676509Y-9652447D01*
X-15651663Y-9650000D01*
X-15264846Y-9650000D01*
X-15240000Y-9652447D01*
X-15215154Y-9650000D01*
X-15215146Y-9650000D01*
X-15182926Y-9646827D01*
X-16951693Y-11415594D01*
X-16987107Y-11400925D01*
X-17207932Y-11357000D01*
X-17433084Y-11357000D01*
X-17653909Y-11400925D01*
X-17861921Y-11487087D01*
X-18049128Y-11612174D01*
X-18208334Y-11771380D01*
X-18333421Y-11958587D01*
X-18419583Y-12166599D01*
X-18463508Y-12387424D01*
X-18463508Y-12612576D01*
X-18419583Y-12833401D01*
X-18333421Y-13041413D01*
X-18208334Y-13228620D01*
X-18049128Y-13387826D01*
X-17861921Y-13512913D01*
X-17653909Y-13599075D01*
X-17433084Y-13643000D01*
X-17207932Y-13643000D01*
X-16987107Y-13599075D01*
X-16779095Y-13512913D01*
X-16591888Y-13387826D01*
X-16432682Y-13228620D01*
X-16307595Y-13041413D01*
X-16221433Y-12833401D01*
X-16177508Y-12612576D01*
X-16177508Y-12387424D01*
X-16221433Y-12166599D01*
X-16236102Y-12131185D01*
X-14209927Y-10105011D01*
X-14126527Y-10121600D01*
X-13972683Y-10121600D01*
X-13821796Y-10091587D01*
X-13679663Y-10032713D01*
X-13551746Y-9947242D01*
X-13442963Y-9838459D01*
X-13441001Y-9835522D01*
X-13441001Y-10019784D01*
X-13562809Y-10044013D01*
X-13704942Y-10102887D01*
X-13832859Y-10188358D01*
X-13941642Y-10297141D01*
X-14027113Y-10425058D01*
X-14085987Y-10567191D01*
X-14116000Y-10718078D01*
X-14116000Y-10871922D01*
X-14085987Y-11022809D01*
X-14027113Y-11164942D01*
X-13941642Y-11292859D01*
X-13832859Y-11401642D01*
X-13704942Y-11487113D01*
X-13562809Y-11545987D01*
X-13411922Y-11576000D01*
X-13258078Y-11576000D01*
X-13107191Y-11545987D01*
X-12965058Y-11487113D01*
X-12837141Y-11401642D01*
X-12728358Y-11292859D01*
X-12642887Y-11164942D01*
X-12584013Y-11022809D01*
X-12570999Y-10957385D01*
X-12571000Y-14641499D01*
X-12671642Y-14742141D01*
X-12757113Y-14870058D01*
X-12815987Y-15012191D01*
X-12846000Y-15163078D01*
X-12846000Y-15316922D01*
X-12815987Y-15467809D01*
X-12757113Y-15609942D01*
X-12671642Y-15737859D01*
X-12562859Y-15846642D01*
X-12434942Y-15932113D01*
X-12292809Y-15990987D01*
X-12141922Y-16021000D01*
X-11988078Y-16021000D01*
X-11837191Y-15990987D01*
X-11695058Y-15932113D01*
X-11567141Y-15846642D01*
X-11458358Y-15737859D01*
X-11372887Y-15609942D01*
X-11314013Y-15467809D01*
X-11284000Y-15316922D01*
X-11284000Y-15163078D01*
X-11314013Y-15012191D01*
X-11372887Y-14870058D01*
X-11458358Y-14742141D01*
X-11559000Y-14641499D01*
X-11559000Y-7370287D01*
X-11556553Y-7345441D01*
X-11559000Y-7320595D01*
X-11559000Y-7320588D01*
X-11566322Y-7246249D01*
X-11595255Y-7150867D01*
X-11642241Y-7062963D01*
X-11705473Y-6985915D01*
X-11724780Y-6970070D01*
X-13110360Y-5584491D01*
X-13110360Y-5442160D01*
X-13140373Y-5291273D01*
X-13199247Y-5149140D01*
X-13284718Y-5021223D01*
X-13386657Y-4919284D01*
X-13377081Y-4904952D01*
X-13318207Y-4762819D01*
X-13288194Y-4611932D01*
X-13288194Y-4458088D01*
X-13316457Y-4316000D01*
X-11665262Y-4316000D01*
X-11667947Y-4329498D01*
X-11667947Y-4414444D01*
X-11747049Y-4430178D01*
X-11889182Y-4489052D01*
X-12017099Y-4574523D01*
X-12125882Y-4683306D01*
X-12211353Y-4811223D01*
X-12270227Y-4953356D01*
X-12300240Y-5104243D01*
X-12300240Y-5258087D01*
X-12270227Y-5408974D01*
X-12211353Y-5551107D01*
X-12125882Y-5679024D01*
X-12017099Y-5787807D01*
X-11889182Y-5873278D01*
X-11747049Y-5932152D01*
X-11596162Y-5962165D01*
X-11525063Y-5962165D01*
X-11525063Y-5983097D01*
X-11495050Y-6133984D01*
X-11436176Y-6276117D01*
X-11350705Y-6404034D01*
X-11241922Y-6512817D01*
X-11114005Y-6598288D01*
X-10971872Y-6657162D01*
X-10820985Y-6687175D01*
X-10667141Y-6687175D01*
X-10516254Y-6657162D01*
X-10380133Y-6600778D01*
X-3878665Y-13102247D01*
X-3878665Y-13189000D01*
X-3886922Y-13189000D01*
X-4037809Y-13219013D01*
X-4179942Y-13277887D01*
X-4307859Y-13363358D01*
X-4416642Y-13472141D01*
X-4502113Y-13600058D01*
X-4560987Y-13742191D01*
X-4591000Y-13893078D01*
X-4591000Y-14046922D01*
X-4560987Y-14197809D01*
X-4502113Y-14339942D01*
X-4416642Y-14467859D01*
X-4307859Y-14576642D01*
X-4179942Y-14662113D01*
X-4037809Y-14720987D01*
X-3886922Y-14751000D01*
X-3744592Y-14751000D01*
X-3550372Y-14945220D01*
X-3534527Y-14964527D01*
X-3457479Y-15027759D01*
X-3369575Y-15074745D01*
X-3274193Y-15103678D01*
X-3175000Y-15113448D01*
X-3150146Y-15111000D01*
X-611024Y-15111000D01*
X-586178Y-15113447D01*
X-561332Y-15111000D01*
X-561324Y-15111000D01*
X-486985Y-15103678D01*
X-391603Y-15074745D01*
X-303699Y-15027759D01*
X-226651Y-14964527D01*
X-210802Y-14945215D01*
X236336Y-14498078D01*
X255643Y-14482233D01*
X318875Y-14405185D01*
X365861Y-14317281D01*
X394794Y-14221899D01*
X402116Y-14147560D01*
X402116Y-14147559D01*
X404564Y-14122706D01*
X402116Y-14097852D01*
X402116Y-13384371D01*
X404563Y-13359525D01*
X402116Y-13334679D01*
X402116Y-13334672D01*
X394794Y-13260333D01*
X365861Y-13164951D01*
X318875Y-13077047D01*
X255643Y-12999999D01*
X236336Y-12984154D01*
X-49818Y-12698000D01*
X1017409Y-12698000D01*
X4231565Y-15912157D01*
X4230000Y-15912157D01*
X4155311Y-15919513D01*
X4083492Y-15941299D01*
X4017304Y-15976678D01*
X3959289Y-16024289D01*
X3911678Y-16082304D01*
X3876299Y-16148492D01*
X3854513Y-16220311D01*
X3847157Y-16295000D01*
X3847157Y-17995000D01*
X3854513Y-18069689D01*
X3876299Y-18141508D01*
X3911678Y-18207696D01*
X3959289Y-18265711D01*
X4017304Y-18313322D01*
X4083492Y-18348701D01*
X4155311Y-18370487D01*
X4230000Y-18377843D01*
X5930000Y-18377843D01*
X6004689Y-18370487D01*
X6076508Y-18348701D01*
X6142696Y-18313322D01*
X6200711Y-18265711D01*
X6248322Y-18207696D01*
X6283701Y-18141508D01*
X6305487Y-18069689D01*
X6312843Y-17995000D01*
X6312843Y-16295000D01*
X6305487Y-16220311D01*
X6283701Y-16148492D01*
X6248322Y-16082304D01*
X6200711Y-16024289D01*
X6142696Y-15976678D01*
X6076508Y-15941299D01*
X6004689Y-15919513D01*
X5930000Y-15912157D01*
X5568471Y-15912157D01*
X5549745Y-15850425D01*
X5547723Y-15846642D01*
X5502759Y-15762521D01*
X5439527Y-15685473D01*
X5420220Y-15669628D01*
X1602376Y-11851785D01*
X1586527Y-11832473D01*
X1509479Y-11769241D01*
X1421575Y-11722255D01*
X1326193Y-11693322D01*
X1251854Y-11686000D01*
X1251846Y-11686000D01*
X1227000Y-11683553D01*
X1202154Y-11686000D01*
X-576051Y-11686000D01*
X-779631Y-11482420D01*
X-486517Y-11603832D01*
X-164277Y-11667930D01*
X164277Y-11667930D01*
X486517Y-11603832D01*
X790061Y-11478100D01*
X1063243Y-11295566D01*
X1295566Y-11063243D01*
X1478100Y-10790061D01*
X1603832Y-10486517D01*
X1667930Y-10164277D01*
X1667930Y-9887424D01*
X13677508Y-9887424D01*
X13677508Y-10112576D01*
X13721433Y-10333401D01*
X13807595Y-10541413D01*
X13932682Y-10728620D01*
X14091888Y-10887826D01*
X14279095Y-11012913D01*
X14487107Y-11099075D01*
X14707932Y-11143000D01*
X14933084Y-11143000D01*
X15153909Y-11099075D01*
X15361921Y-11012913D01*
X15549128Y-10887826D01*
X15708334Y-10728620D01*
X15833421Y-10541413D01*
X15919583Y-10333401D01*
X15963508Y-10112576D01*
X15963508Y-9887424D01*
X15919583Y-9666599D01*
X15904914Y-9631185D01*
X17335257Y-8200842D01*
X17357241Y-8241971D01*
X17420473Y-8319019D01*
X17439785Y-8334868D01*
X18736102Y-9631185D01*
X18721433Y-9666599D01*
X18677508Y-9887424D01*
X18677508Y-10112576D01*
X18721433Y-10333401D01*
X18807595Y-10541413D01*
X18932682Y-10728620D01*
X19091888Y-10887826D01*
X19279095Y-11012913D01*
X19487107Y-11099075D01*
X19707932Y-11143000D01*
X19933084Y-11143000D01*
X20153909Y-11099075D01*
X20361921Y-11012913D01*
X20549128Y-10887826D01*
X20708334Y-10728620D01*
X20833421Y-10541413D01*
X20919583Y-10333401D01*
X20963508Y-10112576D01*
X20963508Y-9887424D01*
X20919583Y-9666599D01*
X20833421Y-9458587D01*
X20708334Y-9271380D01*
X20549128Y-9112174D01*
X20361921Y-8987087D01*
X20153909Y-8900925D01*
X19933084Y-8857000D01*
X19707932Y-8857000D01*
X19487107Y-8900925D01*
X19451693Y-8915594D01*
X18286000Y-7749901D01*
X18286000Y-5289591D01*
X18984592Y-4591000D01*
X19126922Y-4591000D01*
X19277809Y-4560987D01*
X19419942Y-4502113D01*
X19547859Y-4416642D01*
X19656642Y-4307859D01*
X19742113Y-4179942D01*
X19800987Y-4037809D01*
X19831000Y-3886922D01*
X19831000Y-3733078D01*
X19800987Y-3582191D01*
X19742113Y-3440058D01*
X19656642Y-3312141D01*
X19547859Y-3203358D01*
X19419942Y-3117887D01*
X19277809Y-3059013D01*
X19126922Y-3029000D01*
X18973078Y-3029000D01*
X18822191Y-3059013D01*
X18680058Y-3117887D01*
X18552141Y-3203358D01*
X18443358Y-3312141D01*
X18415000Y-3354582D01*
X18386642Y-3312141D01*
X18277859Y-3203358D01*
X18149942Y-3117887D01*
X18007809Y-3059013D01*
X17856922Y-3029000D01*
X17703078Y-3029000D01*
X17552191Y-3059013D01*
X17410058Y-3117887D01*
X17282141Y-3203358D01*
X17173358Y-3312141D01*
X17087887Y-3440058D01*
X17029013Y-3582191D01*
X16999000Y-3733078D01*
X16999000Y-3875409D01*
X16804780Y-4069629D01*
X16785474Y-4085473D01*
X16722242Y-4162521D01*
X16702657Y-4199162D01*
X16675255Y-4250426D01*
X16646322Y-4345808D01*
X16636553Y-4445000D01*
X16639001Y-4469856D01*
X16639000Y-5104853D01*
X16639001Y-5104863D01*
X16639000Y-7465916D01*
X15189323Y-8915594D01*
X15153909Y-8900925D01*
X14933084Y-8857000D01*
X14707932Y-8857000D01*
X14487107Y-8900925D01*
X14279095Y-8987087D01*
X14091888Y-9112174D01*
X13932682Y-9271380D01*
X13807595Y-9458587D01*
X13721433Y-9666599D01*
X13677508Y-9887424D01*
X1667930Y-9887424D01*
X1667930Y-9835723D01*
X1603832Y-9513483D01*
X1478100Y-9209939D01*
X1295566Y-8936757D01*
X1063243Y-8704434D01*
X790061Y-8521900D01*
X486517Y-8396168D01*
X164277Y-8332070D01*
X-164277Y-8332070D01*
X-486517Y-8396168D01*
X-790061Y-8521900D01*
X-1063243Y-8704434D01*
X-1295566Y-8936757D01*
X-1478100Y-9209939D01*
X-1603832Y-9513483D01*
X-1667930Y-9835723D01*
X-1667930Y-10164277D01*
X-1603832Y-10486517D01*
X-1482420Y-10779631D01*
X-2728259Y-9533792D01*
X-2655942Y-9582113D01*
X-2513809Y-9640987D01*
X-2362922Y-9671000D01*
X-2209078Y-9671000D01*
X-2058191Y-9640987D01*
X-1916058Y-9582113D01*
X-1788141Y-9496642D01*
X-1679358Y-9387859D01*
X-1593887Y-9259942D01*
X-1535013Y-9117809D01*
X-1505000Y-8966922D01*
X-1505000Y-8845155D01*
X665101Y-6779413D01*
X673078Y-6781000D01*
X826922Y-6781000D01*
X977809Y-6750987D01*
X1119942Y-6692113D01*
X1247859Y-6606642D01*
X1356642Y-6497859D01*
X1442113Y-6369942D01*
X1500987Y-6227809D01*
X1531000Y-6076922D01*
X1531000Y-5923078D01*
X1500987Y-5772191D01*
X1442113Y-5630058D01*
X1356642Y-5502141D01*
X1247859Y-5393358D01*
X1188221Y-5353509D01*
X1259859Y-5305642D01*
X1368642Y-5196859D01*
X1454113Y-5068942D01*
X1512987Y-4926809D01*
X1543000Y-4775922D01*
X1543000Y-4622078D01*
X1541317Y-4613619D01*
X2852000Y-5924303D01*
X2852000Y-6050846D01*
X2883935Y-6211394D01*
X2946577Y-6362626D01*
X3037520Y-6498732D01*
X3153268Y-6614480D01*
X3289374Y-6705423D01*
X3440606Y-6768065D01*
X3601154Y-6800000D01*
X3764846Y-6800000D01*
X3925394Y-6768065D01*
X4076626Y-6705423D01*
X4212732Y-6614480D01*
X4328480Y-6498732D01*
X4419423Y-6362626D01*
X4482065Y-6211394D01*
X4514000Y-6050846D01*
X4514000Y-5887154D01*
X4482065Y-5726606D01*
X4419423Y-5575374D01*
X4328480Y-5439268D01*
X4212732Y-5323520D01*
X4076626Y-5232577D01*
X3925394Y-5169935D01*
X3764846Y-5138000D01*
X3638303Y-5138000D01*
X1953000Y-3452699D01*
X1953000Y-1066078D01*
X3537000Y-1066078D01*
X3537000Y-1219922D01*
X3567013Y-1370809D01*
X3625887Y-1512942D01*
X3711358Y-1640859D01*
X3795613Y-1725114D01*
X3752887Y-1789058D01*
X3694013Y-1931191D01*
X3664000Y-2082078D01*
X3664000Y-2235922D01*
X3694013Y-2386809D01*
X3752887Y-2528942D01*
X3838358Y-2656859D01*
X3947141Y-2765642D01*
X4075058Y-2851113D01*
X4217191Y-2909987D01*
X4368078Y-2940000D01*
X4521922Y-2940000D01*
X4672809Y-2909987D01*
X4814942Y-2851113D01*
X4942859Y-2765642D01*
X5051642Y-2656859D01*
X5137113Y-2528942D01*
X5195987Y-2386809D01*
X5226000Y-2235922D01*
X5226000Y-2093591D01*
X6788870Y-530722D01*
X6788875Y-530716D01*
X6813591Y-506000D01*
X8291499Y-506000D01*
X8384000Y-598501D01*
X8384001Y-2388144D01*
X8381553Y-2413000D01*
X8391322Y-2512192D01*
X8420255Y-2607574D01*
X8436092Y-2637202D01*
X8467242Y-2695479D01*
X8490000Y-2723210D01*
X8490000Y-2870922D01*
X8520013Y-3021809D01*
X8578887Y-3163942D01*
X8664358Y-3291859D01*
X8773141Y-3400642D01*
X8901058Y-3486113D01*
X9043191Y-3544987D01*
X9194078Y-3575000D01*
X9347922Y-3575000D01*
X9498809Y-3544987D01*
X9640942Y-3486113D01*
X9768859Y-3400642D01*
X9877642Y-3291859D01*
X9963113Y-3163942D01*
X10021987Y-3021809D01*
X10052000Y-2870922D01*
X10052000Y-2717078D01*
X10021987Y-2566191D01*
X9963113Y-2424058D01*
X9877642Y-2296141D01*
X9768859Y-2187358D01*
X9640942Y-2101887D01*
X9498809Y-2043013D01*
X9396000Y-2022563D01*
X9396000Y-598501D01*
X9496642Y-497859D01*
X9582113Y-369942D01*
X9640987Y-227809D01*
X9671000Y-76922D01*
X9671000Y76922D01*
X9640987Y227809D01*
X9582113Y369942D01*
X9496642Y497859D01*
X9387859Y606642D01*
X9259942Y692113D01*
X9117809Y750987D01*
X9091760Y756168D01*
X11258592Y2923000D01*
X13498499Y2923000D01*
X13599141Y2822358D01*
X13727058Y2736887D01*
X13869191Y2678013D01*
X14020078Y2648000D01*
X14173922Y2648000D01*
X14324809Y2678013D01*
X14466942Y2736887D01*
X14594859Y2822358D01*
X14703642Y2931141D01*
X14789113Y3059058D01*
X14847987Y3201191D01*
X14878000Y3352078D01*
X14878000Y3505922D01*
X14847987Y3656809D01*
X14789113Y3798942D01*
X14703642Y3926859D01*
X14594859Y4035642D01*
X14466942Y4121113D01*
X14324809Y4179987D01*
X14173922Y4210000D01*
X14020078Y4210000D01*
X13869191Y4179987D01*
X13727058Y4121113D01*
X13599141Y4035642D01*
X13498499Y3935000D01*
X11073854Y3935000D01*
X11049000Y3937448D01*
X11024146Y3935000D01*
X10949807Y3927678D01*
X10854425Y3898745D01*
X10766521Y3851759D01*
X10689473Y3788527D01*
X10673628Y3769220D01*
X8045409Y1141000D01*
X6120854Y1141000D01*
X6096000Y1143448D01*
X6071146Y1141000D01*
X5996807Y1133678D01*
X5901425Y1104745D01*
X5813521Y1057759D01*
X5736473Y994527D01*
X5720629Y975221D01*
X4383409Y-362000D01*
X4241078Y-362000D01*
X4090191Y-392013D01*
X3948058Y-450887D01*
X3820141Y-536358D01*
X3711358Y-645141D01*
X3625887Y-773058D01*
X3567013Y-915191D01*
X3537000Y-1066078D01*
X1953000Y-1066078D01*
X1953000Y5164277D01*
X6992324Y5164277D01*
X6992324Y4835723D01*
X7056422Y4513483D01*
X7182154Y4209939D01*
X7364688Y3936757D01*
X7597011Y3704434D01*
X7870193Y3521900D01*
X8173737Y3396168D01*
X8495977Y3332070D01*
X8824531Y3332070D01*
X9146771Y3396168D01*
X9450315Y3521900D01*
X9723497Y3704434D01*
X9955820Y3936757D01*
X10138354Y4209939D01*
X10264086Y4513483D01*
X10328184Y4835723D01*
X10328184Y5164277D01*
X10264086Y5486517D01*
X10138354Y5790061D01*
X9955820Y6063243D01*
X9723497Y6295566D01*
X9450315Y6478100D01*
X9146771Y6603832D01*
X8824531Y6667930D01*
X8495977Y6667930D01*
X8173737Y6603832D01*
X7870193Y6478100D01*
X7597011Y6295566D01*
X7364688Y6063243D01*
X7182154Y5790061D01*
X7056422Y5486517D01*
X6992324Y5164277D01*
X1953000Y5164277D01*
X1953000Y6881698D01*
X1955302Y6884000D01*
X2081846Y6884000D01*
X2242394Y6915935D01*
X2393626Y6978577D01*
X2529732Y7069520D01*
X2645480Y7185268D01*
X2736423Y7321374D01*
X2799065Y7472606D01*
X2831000Y7633154D01*
X2831000Y7796846D01*
X2799065Y7957394D01*
X2736423Y8108626D01*
X2645480Y8244732D01*
X2529732Y8360480D01*
X2393626Y8451423D01*
X2242394Y8514065D01*
X2081846Y8546000D01*
X1918154Y8546000D01*
X1757606Y8514065D01*
X1606374Y8451423D01*
X1470268Y8360480D01*
X1354520Y8244732D01*
X1263577Y8108626D01*
X1200935Y7957394D01*
X1169000Y7796846D01*
X1169000Y7670302D01*
X1023163Y7524464D01*
X1001948Y7507053D01*
X932467Y7422392D01*
X899316Y7360370D01*
X880839Y7325801D01*
X849045Y7220994D01*
X838311Y7112000D01*
X841001Y7084686D01*
X841000Y3456312D01*
X841000Y3275446D01*
X728620Y3387826D01*
X541413Y3512913D01*
X333401Y3599075D01*
X112576Y3643000D01*
X-112576Y3643000D01*
X-333401Y3599075D01*
X-541413Y3512913D01*
X-728620Y3387826D01*
X-887826Y3228620D01*
X-1012913Y3041413D01*
X-1099075Y2833401D01*
X-1143000Y2612576D01*
X-1143000Y2387424D01*
X-1099075Y2166599D01*
X-1012913Y1958587D01*
X-887826Y1771380D01*
X-728620Y1612174D01*
X-541413Y1487087D01*
X-333401Y1400925D01*
X-112576Y1357000D01*
X112576Y1357000D01*
X333401Y1400925D01*
X541413Y1487087D01*
X728620Y1612174D01*
X841000Y1724554D01*
X841001Y-1724555D01*
X728620Y-1612174D01*
X541413Y-1487087D01*
X333401Y-1400925D01*
X112576Y-1357000D01*
X-112576Y-1357000D01*
X-333401Y-1400925D01*
X-541413Y-1487087D01*
X-728620Y-1612174D01*
X-887826Y-1771380D01*
X-1012913Y-1958587D01*
X-1099075Y-2166599D01*
X-1143000Y-2387424D01*
X-1143000Y-2612576D01*
X-1099075Y-2833401D01*
X-1012913Y-3041413D01*
X-887826Y-3228620D01*
X-728620Y-3387826D01*
X-541413Y-3512913D01*
X-333401Y-3599075D01*
X-112576Y-3643000D01*
X112576Y-3643000D01*
X333401Y-3599075D01*
X541413Y-3512913D01*
X728620Y-3387826D01*
X841001Y-3275445D01*
X841001Y-3655686D01*
X838311Y-3683000D01*
X849045Y-3791994D01*
X873250Y-3871785D01*
X880839Y-3896801D01*
X898505Y-3929852D01*
X838922Y-3918000D01*
X685078Y-3918000D01*
X534191Y-3948013D01*
X392058Y-4006887D01*
X264141Y-4092358D01*
X155358Y-4201141D01*
X69887Y-4329058D01*
X11013Y-4471191D01*
X-19000Y-4622078D01*
X-19000Y-4764408D01*
X-2347591Y-7093000D01*
X-2489922Y-7093000D01*
X-2640809Y-7123013D01*
X-2782942Y-7181887D01*
X-2910859Y-7267358D01*
X-3019642Y-7376141D01*
X-3105113Y-7504058D01*
X-3163987Y-7646191D01*
X-3194000Y-7797078D01*
X-3194000Y-7950922D01*
X-3163987Y-8101809D01*
X-3105113Y-8243942D01*
X-3019642Y-8371859D01*
X-2935387Y-8456114D01*
X-2978113Y-8520058D01*
X-3036987Y-8662191D01*
X-3067000Y-8813078D01*
X-3067000Y-8966922D01*
X-3036987Y-9117809D01*
X-2978113Y-9259942D01*
X-2929792Y-9332259D01*
X-8163734Y-4098319D01*
X-8163734Y-2592767D01*
X-8117859Y-2638642D01*
X-7989942Y-2724113D01*
X-7847809Y-2782987D01*
X-7696922Y-2813000D01*
X-7543078Y-2813000D01*
X-7392191Y-2782987D01*
X-7250058Y-2724113D01*
X-7122141Y-2638642D01*
X-7013358Y-2529859D01*
X-6927887Y-2401942D01*
X-6869013Y-2259809D01*
X-6839000Y-2108922D01*
X-6839000Y-1955078D01*
X-6869013Y-1804191D01*
X-6927887Y-1662058D01*
X-7013358Y-1534141D01*
X-7122141Y-1425358D01*
X-7250058Y-1339887D01*
X-7392191Y-1281013D01*
X-7543078Y-1251000D01*
X-7685408Y-1251000D01*
X-10964454Y2028045D01*
X-10950358Y2042141D01*
X-10864887Y2170058D01*
X-10806013Y2312191D01*
X-10776000Y2463078D01*
X-10776000Y2489922D01*
X-7512000Y2489922D01*
X-7512000Y2336078D01*
X-7481987Y2185191D01*
X-7423113Y2043058D01*
X-7337642Y1915141D01*
X-7228859Y1806358D01*
X-7100942Y1720887D01*
X-6958809Y1662013D01*
X-6807922Y1632000D01*
X-6654078Y1632000D01*
X-6503191Y1662013D01*
X-6489368Y1667739D01*
X-6465987Y1550191D01*
X-6407113Y1408058D01*
X-6321642Y1280141D01*
X-6212859Y1171358D01*
X-6084942Y1085887D01*
X-5942809Y1027013D01*
X-5791922Y997000D01*
X-5638078Y997000D01*
X-5487191Y1027013D01*
X-5345058Y1085887D01*
X-5217141Y1171358D01*
X-5108358Y1280141D01*
X-5022887Y1408058D01*
X-4964013Y1550191D01*
X-4934000Y1701078D01*
X-4934000Y1854922D01*
X-4964013Y2005809D01*
X-5022887Y2147942D01*
X-5108358Y2275859D01*
X-5209000Y2376501D01*
X-5209000Y2711409D01*
X-4383408Y3537000D01*
X-4241078Y3537000D01*
X-4090191Y3567013D01*
X-3948058Y3625887D01*
X-3820141Y3711358D01*
X-3711358Y3820141D01*
X-3625887Y3948058D01*
X-3567013Y4090191D01*
X-3537000Y4241078D01*
X-3537000Y4394922D01*
X-3567013Y4545809D01*
X-3625887Y4687942D01*
X-3711358Y4815859D01*
X-3820141Y4924642D01*
X-3948058Y5010113D01*
X-4090191Y5068987D01*
X-4222170Y5095239D01*
X-3113408Y6204000D01*
X-2971078Y6204000D01*
X-2820191Y6234013D01*
X-2678058Y6292887D01*
X-2550141Y6378358D01*
X-2441358Y6487141D01*
X-2355887Y6615058D01*
X-2297013Y6757191D01*
X-2267000Y6908078D01*
X-2267000Y7061922D01*
X-2297013Y7212809D01*
X-2355887Y7354942D01*
X-2441358Y7482859D01*
X-2550141Y7591642D01*
X-2678058Y7677113D01*
X-2820191Y7735987D01*
X-2971078Y7766000D01*
X-3124922Y7766000D01*
X-3275809Y7735987D01*
X-3417942Y7677113D01*
X-3545859Y7591642D01*
X-3654642Y7482859D01*
X-3740113Y7354942D01*
X-3798987Y7212809D01*
X-3829000Y7061922D01*
X-3829000Y6919592D01*
X-7071219Y3677372D01*
X-7090526Y3661527D01*
X-7153758Y3584479D01*
X-7163094Y3567013D01*
X-7200745Y3496574D01*
X-7229678Y3401192D01*
X-7239447Y3302000D01*
X-7236999Y3277144D01*
X-7236999Y3011502D01*
X-7337642Y2910859D01*
X-7423113Y2782942D01*
X-7481987Y2640809D01*
X-7512000Y2489922D01*
X-10776000Y2489922D01*
X-10776000Y2616922D01*
X-10806013Y2767809D01*
X-10864887Y2909942D01*
X-10950358Y3037859D01*
X-11059141Y3146642D01*
X-11187058Y3232113D01*
X-11329191Y3290987D01*
X-11480078Y3321000D01*
X-11633922Y3321000D01*
X-11784809Y3290987D01*
X-11926942Y3232113D01*
X-12054859Y3146642D01*
X-12163642Y3037859D01*
X-12249113Y2909942D01*
X-12286476Y2819742D01*
X-12347358Y2910859D01*
X-12456141Y3019642D01*
X-12584058Y3105113D01*
X-12726191Y3163987D01*
X-12877078Y3194000D01*
X-13030922Y3194000D01*
X-13181809Y3163987D01*
X-13323942Y3105113D01*
X-13451859Y3019642D01*
X-13560642Y2910859D01*
X-13646113Y2782942D01*
X-13704987Y2640809D01*
X-13735000Y2489922D01*
X-13735000Y2336078D01*
X-13704987Y2185191D01*
X-13646113Y2043058D01*
X-13560642Y1915141D01*
X-13451859Y1806358D01*
X-13323942Y1720887D01*
X-13181809Y1662013D01*
X-13030922Y1632000D01*
X-12888591Y1632000D01*
X-9882787Y-1373805D01*
X-9942214Y-1349189D01*
X-10093101Y-1319176D01*
X-10246945Y-1319176D01*
X-10397832Y-1349189D01*
X-10539965Y-1408063D01*
X-10667882Y-1493534D01*
X-10776665Y-1602317D01*
X-10793340Y-1627273D01*
X-10803751Y-1630431D01*
X-10891655Y-1677417D01*
X-10968703Y-1740649D01*
X-10984548Y-1759956D01*
X-11550367Y-2325776D01*
X-14226730Y-2325776D01*
X-14327372Y-2225134D01*
X-14455289Y-2139663D01*
X-14597422Y-2080789D01*
X-14748309Y-2050776D01*
X-14902153Y-2050776D01*
X-15053040Y-2080789D01*
X-15195173Y-2139663D01*
X-15323090Y-2225134D01*
X-15431873Y-2333917D01*
X-15517344Y-2461834D01*
X-15576218Y-2603967D01*
X-15606231Y-2754854D01*
X-15606231Y-2908698D01*
X-15576218Y-3059585D01*
X-15521457Y-3191788D01*
X-15632058Y-3117887D01*
X-15774191Y-3059013D01*
X-15925078Y-3029000D01*
X-16078922Y-3029000D01*
X-16229809Y-3059013D01*
X-16371942Y-3117887D01*
X-16499859Y-3203358D01*
X-16608642Y-3312141D01*
X-16694113Y-3440058D01*
X-16752987Y-3582191D01*
X-16783000Y-3733078D01*
X-16783000Y-3886922D01*
X-16752987Y-4037809D01*
X-16694113Y-4179942D01*
X-16608642Y-4307859D01*
X-16499859Y-4416642D01*
X-16371942Y-4502113D01*
X-16229809Y-4560987D01*
X-16078922Y-4591000D01*
X-15925078Y-4591000D01*
X-15774191Y-4560987D01*
X-15632058Y-4502113D01*
X-15504141Y-4416642D01*
X-15403499Y-4316000D01*
X-14821931Y-4316000D01*
X-14850194Y-4458088D01*
X-14850194Y-4600419D01*
X-15195665Y-4945890D01*
X-15214971Y-4961734D01*
X-15278203Y-5038782D01*
X-15294324Y-5068942D01*
X-15325190Y-5126687D01*
X-15354123Y-5222069D01*
X-15363892Y-5321261D01*
X-15361444Y-5346116D01*
X-15361445Y-5813598D01*
X-15363892Y-5838445D01*
X-15361445Y-5863291D01*
X-15361445Y-5863298D01*
X-15354123Y-5937637D01*
X-15325190Y-6033019D01*
X-15278204Y-6120924D01*
X-15214972Y-6197972D01*
X-15195660Y-6213821D01*
X-13441000Y-7968482D01*
X-13441000Y-8845678D01*
X-13442963Y-8842741D01*
X-13551746Y-8733958D01*
X-13679663Y-8648487D01*
X-13821796Y-8589613D01*
X-13824622Y-8589051D01*
X-13824000Y-8585922D01*
X-13824000Y-8432078D01*
X-13854013Y-8281191D01*
X-13912887Y-8139058D01*
X-13998358Y-8011141D01*
X-14107141Y-7902358D01*
X-14235058Y-7816887D01*
X-14377191Y-7758013D01*
X-14528078Y-7728000D01*
X-14681922Y-7728000D01*
X-14832809Y-7758013D01*
X-14974942Y-7816887D01*
X-15102859Y-7902358D01*
X-15211642Y-8011141D01*
X-15297113Y-8139058D01*
X-15355987Y-8281191D01*
X-15386000Y-8432078D01*
X-15386000Y-8574409D01*
X-15449591Y-8638000D01*
X-15466916Y-8638000D01*
X-16236102Y-7868815D01*
X-16221433Y-7833401D01*
X-16177508Y-7612576D01*
X-16177508Y-7387424D01*
X-16221433Y-7166599D01*
X-16307595Y-6958587D01*
X-16432682Y-6771380D01*
X-16591888Y-6612174D01*
X-16779095Y-6487087D01*
X-16987107Y-6400925D01*
X-17207932Y-6357000D01*
X-17433084Y-6357000D01*
X-17653909Y-6400925D01*
X-17861921Y-6487087D01*
X-18049128Y-6612174D01*
X-18208334Y-6771380D01*
X-18333421Y-6958587D01*
X-18419583Y-7166599D01*
X-18463508Y-7387424D01*
X-23447183Y-7387424D01*
X-23897236Y-5812655D01*
X-24283509Y-3895641D01*
X-24516254Y-1953997D01*
X-24594000Y0D01*
X-24516254Y1953997D01*
X-24283509Y3895641D01*
X-24027883Y5164277D01*
X-10328184Y5164277D01*
X-10328184Y4835723D01*
X-10264086Y4513483D01*
X-10138354Y4209939D01*
X-9955820Y3936757D01*
X-9723497Y3704434D01*
X-9450315Y3521900D01*
X-9146771Y3396168D01*
X-8824531Y3332070D01*
X-8495977Y3332070D01*
X-8173737Y3396168D01*
X-7870193Y3521900D01*
X-7597011Y3704434D01*
X-7364688Y3936757D01*
X-7182154Y4209939D01*
X-7056422Y4513483D01*
X-6992324Y4835723D01*
X-6992324Y5164277D01*
X-7056422Y5486517D01*
X-7182154Y5790061D01*
X-7364688Y6063243D01*
X-7597011Y6295566D01*
X-7870193Y6478100D01*
X-8173737Y6603832D01*
X-8495977Y6667930D01*
X-8824531Y6667930D01*
X-9146771Y6603832D01*
X-9450315Y6478100D01*
X-9723497Y6295566D01*
X-9955820Y6063243D01*
X-10138354Y5790061D01*
X-10264086Y5486517D01*
X-10328184Y5164277D01*
X-24027883Y5164277D01*
X-23897236Y5812655D01*
X-23359876Y7692920D01*
X-22674828Y9524547D01*
X-21846423Y11295958D01*
X-20879897Y12995951D01*
X-19781362Y14613780D01*
X-18707997Y15951922D01*
X-10560000Y15951922D01*
X-10560000Y15798078D01*
X-10529987Y15647191D01*
X-10471113Y15505058D01*
X-10385642Y15377141D01*
X-10284999Y15276498D01*
X-10285000Y14121847D01*
X-10287447Y14097000D01*
X-10285000Y14072154D01*
X-10285000Y14072147D01*
X-10277678Y13997808D01*
X-10248745Y13902426D01*
X-10201759Y13814521D01*
X-10138527Y13737473D01*
X-10119215Y13721624D01*
X-8884372Y12486780D01*
X-8868527Y12467473D01*
X-8791479Y12404241D01*
X-8703575Y12357255D01*
X-8608194Y12328322D01*
X-8598306Y12327348D01*
X-8533854Y12321000D01*
X-8533847Y12321000D01*
X-8509001Y12318553D01*
X-8484155Y12321000D01*
X1822409Y12321000D01*
X4964278Y9179130D01*
X4964284Y9179125D01*
X4994001Y9149408D01*
X4994001Y8848502D01*
X4893358Y8747859D01*
X4807887Y8619942D01*
X4749013Y8477809D01*
X4719000Y8326922D01*
X4719000Y8173078D01*
X4749013Y8022191D01*
X4807887Y7880058D01*
X4893358Y7752141D01*
X5002141Y7643358D01*
X5130058Y7557887D01*
X5272191Y7499013D01*
X5423078Y7469000D01*
X5576922Y7469000D01*
X5727809Y7499013D01*
X5869942Y7557887D01*
X5997859Y7643358D01*
X6106642Y7752141D01*
X6192113Y7880058D01*
X6245898Y8009904D01*
X6272191Y7999013D01*
X6423078Y7969000D01*
X6576922Y7969000D01*
X6727809Y7999013D01*
X6869942Y8057887D01*
X6997859Y8143358D01*
X7106642Y8252141D01*
X7192113Y8380058D01*
X7250987Y8522191D01*
X7281000Y8673078D01*
X7281000Y8826922D01*
X7250987Y8977809D01*
X7192113Y9119942D01*
X7106642Y9247859D01*
X7006000Y9348501D01*
X7006000Y9696562D01*
X7008447Y9721408D01*
X7006000Y9746254D01*
X7006000Y9746262D01*
X6998678Y9820601D01*
X6969745Y9915983D01*
X6922759Y10003887D01*
X6859527Y10080935D01*
X6840215Y10096784D01*
X6611079Y10325920D01*
X6611074Y10325926D01*
X6199809Y10737191D01*
X6320266Y10817678D01*
X6429049Y10926461D01*
X6514520Y11054378D01*
X6573394Y11196511D01*
X6603407Y11347398D01*
X6603407Y11501242D01*
X6573394Y11652129D01*
X6514520Y11794262D01*
X6429049Y11922179D01*
X6320266Y12030962D01*
X6192349Y12116433D01*
X6050216Y12175307D01*
X5899329Y12205320D01*
X5756999Y12205320D01*
X3435093Y14527225D01*
X3419244Y14546537D01*
X3342196Y14609769D01*
X3254292Y14656755D01*
X3158910Y14685688D01*
X3084571Y14693010D01*
X3084563Y14693010D01*
X3059717Y14695457D01*
X3034871Y14693010D01*
X-6822293Y14693010D01*
X-6922935Y14793652D01*
X-7050852Y14879123D01*
X-7192985Y14937997D01*
X-7343872Y14968010D01*
X-7497716Y14968010D01*
X-7648603Y14937997D01*
X-7790736Y14879123D01*
X-7918653Y14793652D01*
X-8027436Y14684869D01*
X-8064259Y14629760D01*
X-8138141Y14703642D01*
X-8266058Y14789113D01*
X-8408191Y14847987D01*
X-8559078Y14878000D01*
X-8712922Y14878000D01*
X-8863809Y14847987D01*
X-9005942Y14789113D01*
X-9133859Y14703642D01*
X-9242642Y14594859D01*
X-9273000Y14549425D01*
X-9273000Y15276499D01*
X-9172358Y15377141D01*
X-9086887Y15505058D01*
X-9028013Y15647191D01*
X-8998000Y15798078D01*
X-8998000Y15951922D01*
X-9028013Y16102809D01*
X-9086887Y16244942D01*
X-9172358Y16372859D01*
X-9281141Y16481642D01*
X-9409058Y16567113D01*
X-9551191Y16625987D01*
X-9702078Y16656000D01*
X-9855922Y16656000D01*
X-10006809Y16625987D01*
X-10148942Y16567113D01*
X-10276859Y16481642D01*
X-10385642Y16372859D01*
X-10471113Y16244942D01*
X-10529987Y16102809D01*
X-10560000Y15951922D01*
X-18707997Y15951922D01*
X-18557762Y16139216D01*
X-17216835Y17562615D01*
X-15767057Y18874977D01*
X-14217595Y20068005D01*
X-14149062Y20112576D01*
X-3643000Y20112576D01*
X-3643000Y19887424D01*
X-3599075Y19666599D01*
X-3512913Y19458587D01*
X-3387826Y19271380D01*
X-3228620Y19112174D01*
X-3041413Y18987087D01*
X-2833401Y18900925D01*
X-2612576Y18857000D01*
X-2387424Y18857000D01*
X-2166599Y18900925D01*
X-1958587Y18987087D01*
X-1771380Y19112174D01*
X-1612174Y19271380D01*
X-1487087Y19458587D01*
X-1400925Y19666599D01*
X-1357000Y19887424D01*
X-1357000Y20112576D01*
X1357000Y20112576D01*
X1357000Y19887424D01*
X1400925Y19666599D01*
X1487087Y19458587D01*
X1612174Y19271380D01*
X1771380Y19112174D01*
X1958587Y18987087D01*
X2008754Y18966307D01*
X2030255Y18895426D01*
X2077241Y18807521D01*
X2140473Y18730473D01*
X2159785Y18714624D01*
X9252000Y11622408D01*
X9252000Y11480078D01*
X9282013Y11329191D01*
X9340887Y11187058D01*
X9426358Y11059141D01*
X9535141Y10950358D01*
X9663058Y10864887D01*
X9805191Y10806013D01*
X9956078Y10776000D01*
X10109922Y10776000D01*
X10260809Y10806013D01*
X10402942Y10864887D01*
X10530859Y10950358D01*
X10639642Y11059141D01*
X10725113Y11187058D01*
X10783987Y11329191D01*
X10789168Y11355240D01*
X11214999Y10929409D01*
X11214998Y9258848D01*
X11212551Y9234002D01*
X11214998Y9209156D01*
X11214998Y9209149D01*
X11222320Y9134810D01*
X11251253Y9039428D01*
X11298239Y8951523D01*
X11361471Y8874475D01*
X11380783Y8858626D01*
X13189000Y7050408D01*
X13189000Y6908078D01*
X13219013Y6757191D01*
X13277887Y6615058D01*
X13363358Y6487141D01*
X13472141Y6378358D01*
X13600058Y6292887D01*
X13742191Y6234013D01*
X13893078Y6204000D01*
X14046922Y6204000D01*
X14197809Y6234013D01*
X14339942Y6292887D01*
X14467859Y6378358D01*
X14576642Y6487141D01*
X14662113Y6615058D01*
X14692937Y6689472D01*
X15880628Y5501780D01*
X15896473Y5482473D01*
X15973521Y5419241D01*
X16061425Y5372255D01*
X16156807Y5343322D01*
X16256000Y5333552D01*
X16280854Y5336000D01*
X19576364Y5336000D01*
X19567322Y5306192D01*
X19557553Y5207000D01*
X19560001Y5182144D01*
X19560000Y1868501D01*
X19459358Y1767859D01*
X19373887Y1639942D01*
X19315013Y1497809D01*
X19285000Y1346922D01*
X19285000Y1193078D01*
X19315013Y1042191D01*
X19373887Y900058D01*
X19459358Y772141D01*
X19568141Y663358D01*
X19696058Y577887D01*
X19838191Y519013D01*
X19989078Y489000D01*
X20142922Y489000D01*
X20293809Y519013D01*
X20435942Y577887D01*
X20563859Y663358D01*
X20672642Y772141D01*
X20758113Y900058D01*
X20816987Y1042191D01*
X20847000Y1193078D01*
X20847000Y1346922D01*
X20816987Y1497809D01*
X20758113Y1639942D01*
X20672642Y1767859D01*
X20572000Y1868501D01*
X20572000Y4997409D01*
X20910592Y5336000D01*
X21626499Y5336000D01*
X21727141Y5235358D01*
X21855058Y5149887D01*
X21997191Y5091013D01*
X22148078Y5061000D01*
X22301922Y5061000D01*
X22452809Y5091013D01*
X22594942Y5149887D01*
X22722859Y5235358D01*
X22831642Y5344141D01*
X22917113Y5472058D01*
X22975987Y5614191D01*
X23006000Y5765078D01*
X23006000Y5918922D01*
X22975987Y6069809D01*
X22917113Y6211942D01*
X22831642Y6339859D01*
X22722859Y6448642D01*
X22594942Y6534113D01*
X22452809Y6592987D01*
X22301922Y6623000D01*
X22148078Y6623000D01*
X21997191Y6592987D01*
X21855058Y6534113D01*
X21727141Y6448642D01*
X21626499Y6348000D01*
X20725854Y6348000D01*
X20701000Y6350448D01*
X20676146Y6348000D01*
X16465592Y6348000D01*
X12952000Y9861591D01*
X12952000Y10831499D01*
X13052642Y10932141D01*
X13138113Y11060058D01*
X13196987Y11202191D01*
X13227000Y11353078D01*
X13227000Y11506922D01*
X13196987Y11657809D01*
X13138113Y11799942D01*
X13052642Y11927859D01*
X12943859Y12036642D01*
X12815942Y12122113D01*
X12673809Y12180987D01*
X12522922Y12211000D01*
X12369078Y12211000D01*
X12218191Y12180987D01*
X12076058Y12122113D01*
X11948141Y12036642D01*
X11839358Y11927859D01*
X11762604Y11812988D01*
X6496000Y17079591D01*
X6496000Y17221922D01*
X6465987Y17372809D01*
X6407113Y17514942D01*
X6321642Y17642859D01*
X6212859Y17751642D01*
X6084942Y17837113D01*
X5942809Y17895987D01*
X5791922Y17926000D01*
X5638078Y17926000D01*
X5487191Y17895987D01*
X5345058Y17837113D01*
X5217141Y17751642D01*
X5108358Y17642859D01*
X5022887Y17514942D01*
X4964013Y17372809D01*
X4958832Y17346760D01*
X3207517Y19098074D01*
X3228620Y19112174D01*
X3387826Y19271380D01*
X3512913Y19458587D01*
X3599075Y19666599D01*
X3643000Y19887424D01*
X3643000Y20112576D01*
X3599075Y20333401D01*
X3512913Y20541413D01*
X3387826Y20728620D01*
X3228620Y20887826D01*
X3041413Y21012913D01*
X2833401Y21099075D01*
X2612576Y21143000D01*
X2387424Y21143000D01*
X2166599Y21099075D01*
X1958587Y21012913D01*
X1771380Y20887826D01*
X1612174Y20728620D01*
X1487087Y20541413D01*
X1400925Y20333401D01*
X1357000Y20112576D01*
X-1357000Y20112576D01*
X-1400925Y20333401D01*
X-1487087Y20541413D01*
X-1612174Y20728620D01*
X-1771380Y20887826D01*
X-1958587Y21012913D01*
X-2166599Y21099075D01*
X-2387424Y21143000D01*
X-2612576Y21143000D01*
X-2833401Y21099075D01*
X-3041413Y21012913D01*
X-3228620Y20887826D01*
X-3387826Y20728620D01*
X-3512913Y20541413D01*
X-3599075Y20333401D01*
X-3643000Y20112576D01*
X-14149062Y20112576D01*
X-12578244Y21134157D01*
X-10859370Y22066693D01*
X-9071839Y22859715D01*
X-7226954Y23508211D01*
X-5336377Y24008080D01*
X-3412062Y24356163D01*
X-1466174Y24550258D01*
X488983Y24589138D01*
X2441048Y24472559D01*
G37*
%TD.AperFunction*%
%TD*%
M02*
