%TF.GenerationSoftware,KiCad,Pcbnew,(5.1.10)-1*%
%TF.CreationDate,2021-07-18T17:44:11+03:00*%
%TF.ProjectId,Flow,466c6f77-2e6b-4696-9361-645f70636258,rev?*%
%TF.SameCoordinates,Original*%
%TF.FileFunction,Legend,Top*%
%TF.FilePolarity,Positive*%
%FSLAX46Y46*%
G04 Gerber Fmt 4.6, Leading zero omitted, Abs format (unit mm)*
G04 Created by KiCad (PCBNEW (5.1.10)-1) date 2021-07-18 17:44:11*
%MOMM*%
%LPD*%
G01*
G04 APERTURE LIST*
%ADD10C,0.050000*%
%TA.AperFunction,Profile*%
%ADD11C,0.050000*%
%TD*%
%ADD12C,0.120000*%
%ADD13C,0.075000*%
%ADD14C,0.150000*%
G04 APERTURE END LIST*
D10*
X2000000Y-10000000D02*
G75*
G03*
X2000000Y-10000000I-2000000J0D01*
G01*
X-6660254Y5000000D02*
G75*
G03*
X-6660254Y5000000I-2000000J0D01*
G01*
X10660254Y5000000D02*
G75*
G03*
X10660254Y5000000I-2000000J0D01*
G01*
D11*
X-7410254Y5000000D02*
G75*
G03*
X-7410254Y5000000I-1250000J0D01*
G01*
X9910254Y5000000D02*
G75*
G03*
X9910254Y5000000I-1250000J0D01*
G01*
X1250000Y-10000000D02*
G75*
G03*
X1250000Y-10000000I-1250000J0D01*
G01*
X1666666Y0D02*
G75*
G03*
X1666666Y0I-1666666J0D01*
G01*
X-2500000Y0D02*
X2500000Y0D01*
X0Y2500000D02*
X0Y-2500000D01*
X25000000Y0D02*
G75*
G03*
X25000000Y0I-25000000J0D01*
G01*
D12*
%TO.C,C4*%
X10935580Y-8765000D02*
X10654420Y-8765000D01*
X10935580Y-7745000D02*
X10654420Y-7745000D01*
%TO.C,U3*%
X14600000Y595000D02*
X16550000Y595000D01*
X14600000Y595000D02*
X12650000Y595000D01*
X14600000Y9465000D02*
X16550000Y9465000D01*
X14600000Y9465000D02*
X11150000Y9465000D01*
%TO.C,U1*%
X-1535000Y4105000D02*
X265000Y4105000D01*
X265000Y7325000D02*
X-2185000Y7325000D01*
%TO.C,C2*%
X11910000Y-15635000D02*
X7525000Y-15635000D01*
X7525000Y-15635000D02*
X7525000Y-18655000D01*
X7525000Y-18655000D02*
X11910000Y-18655000D01*
%TO.C,U4*%
X-17990000Y1270000D02*
X-17990000Y-930000D01*
X-17990000Y1270000D02*
X-17990000Y3470000D01*
X-11220000Y1270000D02*
X-11220000Y-930000D01*
X-11220000Y1270000D02*
X-11220000Y4870000D01*
%TO.C,U2*%
X12405000Y-12330000D02*
X12405000Y-10530000D01*
X9185000Y-10530000D02*
X9185000Y-12980000D01*
%TO.C,R25*%
X-8777500Y-13572258D02*
X-8777500Y-13097742D01*
X-7732500Y-13572258D02*
X-7732500Y-13097742D01*
%TO.C,R24*%
X-9127258Y-19162500D02*
X-8652742Y-19162500D01*
X-9127258Y-20207500D02*
X-8652742Y-20207500D01*
%TO.C,R23*%
X-12587500Y-12937258D02*
X-12587500Y-12462742D01*
X-11542500Y-12937258D02*
X-11542500Y-12462742D01*
%TO.C,R22*%
X-8652742Y-16397500D02*
X-9127258Y-16397500D01*
X-8652742Y-15352500D02*
X-9127258Y-15352500D01*
%TO.C,R21*%
X-10809500Y11573742D02*
X-10809500Y12048258D01*
X-9764500Y11573742D02*
X-9764500Y12048258D01*
%TO.C,R20*%
X-17413500Y11573742D02*
X-17413500Y12048258D01*
X-16368500Y11573742D02*
X-16368500Y12048258D01*
%TO.C,R19*%
X-14111500Y11573742D02*
X-14111500Y12048258D01*
X-13066500Y11573742D02*
X-13066500Y12048258D01*
%TO.C,R18*%
X7732500Y8398742D02*
X7732500Y8873258D01*
X8777500Y8398742D02*
X8777500Y8873258D01*
%TO.C,R17*%
X16397500Y-1032742D02*
X16397500Y-1507258D01*
X15352500Y-1032742D02*
X15352500Y-1507258D01*
%TO.C,R16*%
X11192742Y-112500D02*
X11667258Y-112500D01*
X11192742Y-1157500D02*
X11667258Y-1157500D01*
%TO.C,R15*%
X9383500Y8398742D02*
X9383500Y8873258D01*
X10428500Y8398742D02*
X10428500Y8873258D01*
%TO.C,R14*%
X18302500Y-1032742D02*
X18302500Y-1507258D01*
X17257500Y-1032742D02*
X17257500Y-1507258D01*
%TO.C,R13*%
X10428500Y1888258D02*
X10428500Y1413742D01*
X9383500Y1888258D02*
X9383500Y1413742D01*
%TO.C,R12*%
X20557258Y6462500D02*
X20082742Y6462500D01*
X20557258Y7507500D02*
X20082742Y7507500D01*
%TO.C,R11*%
X-10682500Y-237258D02*
X-10682500Y237258D01*
X-9637500Y-237258D02*
X-9637500Y237258D01*
%TO.C,R10*%
X17257500Y11192742D02*
X17257500Y11667258D01*
X18302500Y11192742D02*
X18302500Y11667258D01*
%TO.C,R9*%
X14492500Y11667258D02*
X14492500Y11192742D01*
X13447500Y11667258D02*
X13447500Y11192742D01*
%TO.C,R8*%
X8142500Y-11827742D02*
X8142500Y-12302258D01*
X7097500Y-11827742D02*
X7097500Y-12302258D01*
%TO.C,R7*%
X-2017500Y9762258D02*
X-2017500Y9287742D01*
X-3062500Y9762258D02*
X-3062500Y9287742D01*
%TO.C,R6*%
X-112500Y9762258D02*
X-112500Y9287742D01*
X-1157500Y9762258D02*
X-1157500Y9287742D01*
%TO.C,R5*%
X3062500Y237258D02*
X3062500Y-237258D01*
X2017500Y237258D02*
X2017500Y-237258D01*
%TO.C,R4*%
X-2017500Y237258D02*
X-2017500Y-237258D01*
X-3062500Y237258D02*
X-3062500Y-237258D01*
%TO.C,R3*%
X-18527500Y-9922742D02*
X-18527500Y-10397258D01*
X-19572500Y-9922742D02*
X-19572500Y-10397258D01*
%TO.C,R2*%
X-237258Y22112500D02*
X237258Y22112500D01*
X-237258Y21067500D02*
X237258Y21067500D01*
%TO.C,R1*%
X17382258Y-11952500D02*
X16907742Y-11952500D01*
X17382258Y-10907500D02*
X16907742Y-10907500D01*
%TO.C,J1*%
X6410000Y-21125000D02*
X-6410000Y-21125000D01*
X-6410000Y-21125000D02*
X-6410000Y-23785000D01*
X-6410000Y-23785000D02*
X6410000Y-23785000D01*
X6410000Y-23785000D02*
X6410000Y-21125000D01*
X5460000Y-23785000D02*
X5460000Y-29785000D01*
X5460000Y-29785000D02*
X4700000Y-29785000D01*
X4700000Y-29785000D02*
X4700000Y-23785000D01*
X5400000Y-23785000D02*
X5400000Y-29785000D01*
X5280000Y-23785000D02*
X5280000Y-29785000D01*
X5160000Y-23785000D02*
X5160000Y-29785000D01*
X5040000Y-23785000D02*
X5040000Y-29785000D01*
X4920000Y-23785000D02*
X4920000Y-29785000D01*
X4800000Y-23785000D02*
X4800000Y-29785000D01*
X5460000Y-20727929D02*
X5460000Y-21125000D01*
X4700000Y-20727929D02*
X4700000Y-21125000D01*
X5460000Y-18255000D02*
X5460000Y-18642071D01*
X4700000Y-18255000D02*
X4700000Y-18642071D01*
X3810000Y-21125000D02*
X3810000Y-23785000D01*
X2920000Y-23785000D02*
X2920000Y-29785000D01*
X2920000Y-29785000D02*
X2160000Y-29785000D01*
X2160000Y-29785000D02*
X2160000Y-23785000D01*
X2920000Y-20727929D02*
X2920000Y-21125000D01*
X2160000Y-20727929D02*
X2160000Y-21125000D01*
X2920000Y-18187929D02*
X2920000Y-18642071D01*
X2160000Y-18187929D02*
X2160000Y-18642071D01*
X1270000Y-21125000D02*
X1270000Y-23785000D01*
X380000Y-23785000D02*
X380000Y-29785000D01*
X380000Y-29785000D02*
X-380000Y-29785000D01*
X-380000Y-29785000D02*
X-380000Y-23785000D01*
X380000Y-20727929D02*
X380000Y-21125000D01*
X-380000Y-20727929D02*
X-380000Y-21125000D01*
X380000Y-18187929D02*
X380000Y-18642071D01*
X-380000Y-18187929D02*
X-380000Y-18642071D01*
X-1270000Y-21125000D02*
X-1270000Y-23785000D01*
X-2160000Y-23785000D02*
X-2160000Y-29785000D01*
X-2160000Y-29785000D02*
X-2920000Y-29785000D01*
X-2920000Y-29785000D02*
X-2920000Y-23785000D01*
X-2160000Y-20727929D02*
X-2160000Y-21125000D01*
X-2920000Y-20727929D02*
X-2920000Y-21125000D01*
X-2160000Y-18187929D02*
X-2160000Y-18642071D01*
X-2920000Y-18187929D02*
X-2920000Y-18642071D01*
X-3810000Y-21125000D02*
X-3810000Y-23785000D01*
X-4700000Y-23785000D02*
X-4700000Y-29785000D01*
X-4700000Y-29785000D02*
X-5460000Y-29785000D01*
X-5460000Y-29785000D02*
X-5460000Y-23785000D01*
X-4700000Y-20727929D02*
X-4700000Y-21125000D01*
X-5460000Y-20727929D02*
X-5460000Y-21125000D01*
X-4700000Y-18187929D02*
X-4700000Y-18642071D01*
X-5460000Y-18187929D02*
X-5460000Y-18642071D01*
X5080000Y-15875000D02*
X6350000Y-15875000D01*
X6350000Y-15875000D02*
X6350000Y-17145000D01*
%TO.C,C17*%
X-6860000Y-13475580D02*
X-6860000Y-13194420D01*
X-5840000Y-13475580D02*
X-5840000Y-13194420D01*
%TO.C,C16*%
X-12575000Y-17920580D02*
X-12575000Y-17639420D01*
X-11555000Y-17920580D02*
X-11555000Y-17639420D01*
%TO.C,C15*%
X-9650000Y-13194420D02*
X-9650000Y-13475580D01*
X-10670000Y-13194420D02*
X-10670000Y-13475580D01*
%TO.C,C14*%
X-9030580Y-17270000D02*
X-8749420Y-17270000D01*
X-9030580Y-18290000D02*
X-8749420Y-18290000D01*
%TO.C,C13*%
X-12321000Y11670420D02*
X-12321000Y11951580D01*
X-11301000Y11670420D02*
X-11301000Y11951580D01*
%TO.C,C12*%
X-18925000Y11670420D02*
X-18925000Y11951580D01*
X-17905000Y11670420D02*
X-17905000Y11951580D01*
%TO.C,C11*%
X-15623000Y11670420D02*
X-15623000Y11951580D01*
X-14603000Y11670420D02*
X-14603000Y11951580D01*
%TO.C,C10*%
X-13194420Y5840000D02*
X-13475580Y5840000D01*
X-13194420Y6860000D02*
X-13475580Y6860000D01*
%TO.C,C9*%
X-13475580Y8765000D02*
X-13194420Y8765000D01*
X-13475580Y7745000D02*
X-13194420Y7745000D01*
%TO.C,C8*%
X20460580Y8380000D02*
X20179420Y8380000D01*
X20460580Y9400000D02*
X20179420Y9400000D01*
%TO.C,C7*%
X-20179420Y3935000D02*
X-20460580Y3935000D01*
X-20179420Y4955000D02*
X-20460580Y4955000D01*
%TO.C,C6*%
X20460580Y4570000D02*
X20179420Y4570000D01*
X20460580Y5590000D02*
X20179420Y5590000D01*
%TO.C,C5*%
X15365000Y11289420D02*
X15365000Y11570580D01*
X16385000Y11289420D02*
X16385000Y11570580D01*
%TO.C,C3*%
X10654420Y-14095000D02*
X10935580Y-14095000D01*
X10654420Y-15115000D02*
X10935580Y-15115000D01*
%TO.C,C1*%
X3050000Y5220580D02*
X3050000Y4939420D01*
X2030000Y5220580D02*
X2030000Y4939420D01*
%TD*%
%TO.C,C4*%
D13*
X10711666Y-7163571D02*
X10687857Y-7187380D01*
X10616428Y-7211190D01*
X10568809Y-7211190D01*
X10497380Y-7187380D01*
X10449761Y-7139761D01*
X10425952Y-7092142D01*
X10402142Y-6996904D01*
X10402142Y-6925476D01*
X10425952Y-6830238D01*
X10449761Y-6782619D01*
X10497380Y-6735000D01*
X10568809Y-6711190D01*
X10616428Y-6711190D01*
X10687857Y-6735000D01*
X10711666Y-6758809D01*
X11140238Y-6877857D02*
X11140238Y-7211190D01*
X11021190Y-6687380D02*
X10902142Y-7044523D01*
X11211666Y-7044523D01*
%TO.C,U3*%
X14219047Y5353809D02*
X14219047Y4949047D01*
X14242857Y4901428D01*
X14266666Y4877619D01*
X14314285Y4853809D01*
X14409523Y4853809D01*
X14457142Y4877619D01*
X14480952Y4901428D01*
X14504761Y4949047D01*
X14504761Y5353809D01*
X14695238Y5353809D02*
X15004761Y5353809D01*
X14838095Y5163333D01*
X14909523Y5163333D01*
X14957142Y5139523D01*
X14980952Y5115714D01*
X15004761Y5068095D01*
X15004761Y4949047D01*
X14980952Y4901428D01*
X14957142Y4877619D01*
X14909523Y4853809D01*
X14766666Y4853809D01*
X14719047Y4877619D01*
X14695238Y4901428D01*
%TO.C,U1*%
X-1078809Y5334047D02*
X-674047Y5334047D01*
X-626428Y5357857D01*
X-602619Y5381666D01*
X-578809Y5429285D01*
X-578809Y5524523D01*
X-602619Y5572142D01*
X-626428Y5595952D01*
X-674047Y5619761D01*
X-1078809Y5619761D01*
X-578809Y6119761D02*
X-578809Y5834047D01*
X-578809Y5976904D02*
X-1078809Y5976904D01*
X-1007380Y5929285D01*
X-959761Y5881666D01*
X-935952Y5834047D01*
%TO.C,C2*%
D14*
X10517142Y-17311666D02*
X10564761Y-17359285D01*
X10612380Y-17502142D01*
X10612380Y-17597380D01*
X10564761Y-17740238D01*
X10469523Y-17835476D01*
X10374285Y-17883095D01*
X10183809Y-17930714D01*
X10040952Y-17930714D01*
X9850476Y-17883095D01*
X9755238Y-17835476D01*
X9660000Y-17740238D01*
X9612380Y-17597380D01*
X9612380Y-17502142D01*
X9660000Y-17359285D01*
X9707619Y-17311666D01*
X9707619Y-16930714D02*
X9660000Y-16883095D01*
X9612380Y-16787857D01*
X9612380Y-16549761D01*
X9660000Y-16454523D01*
X9707619Y-16406904D01*
X9802857Y-16359285D01*
X9898095Y-16359285D01*
X10040952Y-16406904D01*
X10612380Y-16978333D01*
X10612380Y-16359285D01*
%TO.C,U4*%
D13*
X-14878809Y889047D02*
X-14474047Y889047D01*
X-14426428Y912857D01*
X-14402619Y936666D01*
X-14378809Y984285D01*
X-14378809Y1079523D01*
X-14402619Y1127142D01*
X-14426428Y1150952D01*
X-14474047Y1174761D01*
X-14878809Y1174761D01*
X-14712142Y1627142D02*
X-14378809Y1627142D01*
X-14902619Y1508095D02*
X-14545476Y1389047D01*
X-14545476Y1698571D01*
%TO.C,U2*%
X10521190Y-11810952D02*
X10925952Y-11810952D01*
X10973571Y-11787142D01*
X10997380Y-11763333D01*
X11021190Y-11715714D01*
X11021190Y-11620476D01*
X10997380Y-11572857D01*
X10973571Y-11549047D01*
X10925952Y-11525238D01*
X10521190Y-11525238D01*
X10568809Y-11310952D02*
X10545000Y-11287142D01*
X10521190Y-11239523D01*
X10521190Y-11120476D01*
X10545000Y-11072857D01*
X10568809Y-11049047D01*
X10616428Y-11025238D01*
X10664047Y-11025238D01*
X10735476Y-11049047D01*
X11021190Y-11334761D01*
X11021190Y-11025238D01*
%TO.C,R25*%
X-8576428Y-11656190D02*
X-8743095Y-11418095D01*
X-8862142Y-11656190D02*
X-8862142Y-11156190D01*
X-8671666Y-11156190D01*
X-8624047Y-11180000D01*
X-8600238Y-11203809D01*
X-8576428Y-11251428D01*
X-8576428Y-11322857D01*
X-8600238Y-11370476D01*
X-8624047Y-11394285D01*
X-8671666Y-11418095D01*
X-8862142Y-11418095D01*
X-8385952Y-11203809D02*
X-8362142Y-11180000D01*
X-8314523Y-11156190D01*
X-8195476Y-11156190D01*
X-8147857Y-11180000D01*
X-8124047Y-11203809D01*
X-8100238Y-11251428D01*
X-8100238Y-11299047D01*
X-8124047Y-11370476D01*
X-8409761Y-11656190D01*
X-8100238Y-11656190D01*
X-7647857Y-11156190D02*
X-7885952Y-11156190D01*
X-7909761Y-11394285D01*
X-7885952Y-11370476D01*
X-7838333Y-11346666D01*
X-7719285Y-11346666D01*
X-7671666Y-11370476D01*
X-7647857Y-11394285D01*
X-7624047Y-11441904D01*
X-7624047Y-11560952D01*
X-7647857Y-11608571D01*
X-7671666Y-11632380D01*
X-7719285Y-11656190D01*
X-7838333Y-11656190D01*
X-7885952Y-11632380D01*
X-7909761Y-11608571D01*
%TO.C,R24*%
X-10568809Y-20006428D02*
X-10806904Y-20173095D01*
X-10568809Y-20292142D02*
X-11068809Y-20292142D01*
X-11068809Y-20101666D01*
X-11045000Y-20054047D01*
X-11021190Y-20030238D01*
X-10973571Y-20006428D01*
X-10902142Y-20006428D01*
X-10854523Y-20030238D01*
X-10830714Y-20054047D01*
X-10806904Y-20101666D01*
X-10806904Y-20292142D01*
X-11021190Y-19815952D02*
X-11045000Y-19792142D01*
X-11068809Y-19744523D01*
X-11068809Y-19625476D01*
X-11045000Y-19577857D01*
X-11021190Y-19554047D01*
X-10973571Y-19530238D01*
X-10925952Y-19530238D01*
X-10854523Y-19554047D01*
X-10568809Y-19839761D01*
X-10568809Y-19530238D01*
X-10902142Y-19101666D02*
X-10568809Y-19101666D01*
X-11092619Y-19220714D02*
X-10735476Y-19339761D01*
X-10735476Y-19030238D01*
%TO.C,R23*%
X-13108809Y-13021428D02*
X-13346904Y-13188095D01*
X-13108809Y-13307142D02*
X-13608809Y-13307142D01*
X-13608809Y-13116666D01*
X-13585000Y-13069047D01*
X-13561190Y-13045238D01*
X-13513571Y-13021428D01*
X-13442142Y-13021428D01*
X-13394523Y-13045238D01*
X-13370714Y-13069047D01*
X-13346904Y-13116666D01*
X-13346904Y-13307142D01*
X-13561190Y-12830952D02*
X-13585000Y-12807142D01*
X-13608809Y-12759523D01*
X-13608809Y-12640476D01*
X-13585000Y-12592857D01*
X-13561190Y-12569047D01*
X-13513571Y-12545238D01*
X-13465952Y-12545238D01*
X-13394523Y-12569047D01*
X-13108809Y-12854761D01*
X-13108809Y-12545238D01*
X-13608809Y-12378571D02*
X-13608809Y-12069047D01*
X-13418333Y-12235714D01*
X-13418333Y-12164285D01*
X-13394523Y-12116666D01*
X-13370714Y-12092857D01*
X-13323095Y-12069047D01*
X-13204047Y-12069047D01*
X-13156428Y-12092857D01*
X-13132619Y-12116666D01*
X-13108809Y-12164285D01*
X-13108809Y-12307142D01*
X-13132619Y-12354761D01*
X-13156428Y-12378571D01*
%TO.C,R22*%
X-10568809Y-16196428D02*
X-10806904Y-16363095D01*
X-10568809Y-16482142D02*
X-11068809Y-16482142D01*
X-11068809Y-16291666D01*
X-11045000Y-16244047D01*
X-11021190Y-16220238D01*
X-10973571Y-16196428D01*
X-10902142Y-16196428D01*
X-10854523Y-16220238D01*
X-10830714Y-16244047D01*
X-10806904Y-16291666D01*
X-10806904Y-16482142D01*
X-11021190Y-16005952D02*
X-11045000Y-15982142D01*
X-11068809Y-15934523D01*
X-11068809Y-15815476D01*
X-11045000Y-15767857D01*
X-11021190Y-15744047D01*
X-10973571Y-15720238D01*
X-10925952Y-15720238D01*
X-10854523Y-15744047D01*
X-10568809Y-16029761D01*
X-10568809Y-15720238D01*
X-11021190Y-15529761D02*
X-11045000Y-15505952D01*
X-11068809Y-15458333D01*
X-11068809Y-15339285D01*
X-11045000Y-15291666D01*
X-11021190Y-15267857D01*
X-10973571Y-15244047D01*
X-10925952Y-15244047D01*
X-10854523Y-15267857D01*
X-10568809Y-15553571D01*
X-10568809Y-15244047D01*
%TO.C,R21*%
X-10608428Y9679809D02*
X-10775095Y9917904D01*
X-10894142Y9679809D02*
X-10894142Y10179809D01*
X-10703666Y10179809D01*
X-10656047Y10156000D01*
X-10632238Y10132190D01*
X-10608428Y10084571D01*
X-10608428Y10013142D01*
X-10632238Y9965523D01*
X-10656047Y9941714D01*
X-10703666Y9917904D01*
X-10894142Y9917904D01*
X-10417952Y10132190D02*
X-10394142Y10156000D01*
X-10346523Y10179809D01*
X-10227476Y10179809D01*
X-10179857Y10156000D01*
X-10156047Y10132190D01*
X-10132238Y10084571D01*
X-10132238Y10036952D01*
X-10156047Y9965523D01*
X-10441761Y9679809D01*
X-10132238Y9679809D01*
X-9656047Y9679809D02*
X-9941761Y9679809D01*
X-9798904Y9679809D02*
X-9798904Y10179809D01*
X-9846523Y10108380D01*
X-9894142Y10060761D01*
X-9941761Y10036952D01*
%TO.C,R20*%
X-17212428Y9679809D02*
X-17379095Y9917904D01*
X-17498142Y9679809D02*
X-17498142Y10179809D01*
X-17307666Y10179809D01*
X-17260047Y10156000D01*
X-17236238Y10132190D01*
X-17212428Y10084571D01*
X-17212428Y10013142D01*
X-17236238Y9965523D01*
X-17260047Y9941714D01*
X-17307666Y9917904D01*
X-17498142Y9917904D01*
X-17021952Y10132190D02*
X-16998142Y10156000D01*
X-16950523Y10179809D01*
X-16831476Y10179809D01*
X-16783857Y10156000D01*
X-16760047Y10132190D01*
X-16736238Y10084571D01*
X-16736238Y10036952D01*
X-16760047Y9965523D01*
X-17045761Y9679809D01*
X-16736238Y9679809D01*
X-16426714Y10179809D02*
X-16379095Y10179809D01*
X-16331476Y10156000D01*
X-16307666Y10132190D01*
X-16283857Y10084571D01*
X-16260047Y9989333D01*
X-16260047Y9870285D01*
X-16283857Y9775047D01*
X-16307666Y9727428D01*
X-16331476Y9703619D01*
X-16379095Y9679809D01*
X-16426714Y9679809D01*
X-16474333Y9703619D01*
X-16498142Y9727428D01*
X-16521952Y9775047D01*
X-16545761Y9870285D01*
X-16545761Y9989333D01*
X-16521952Y10084571D01*
X-16498142Y10132190D01*
X-16474333Y10156000D01*
X-16426714Y10179809D01*
%TO.C,R19*%
X-13910428Y9679809D02*
X-14077095Y9917904D01*
X-14196142Y9679809D02*
X-14196142Y10179809D01*
X-14005666Y10179809D01*
X-13958047Y10156000D01*
X-13934238Y10132190D01*
X-13910428Y10084571D01*
X-13910428Y10013142D01*
X-13934238Y9965523D01*
X-13958047Y9941714D01*
X-14005666Y9917904D01*
X-14196142Y9917904D01*
X-13434238Y9679809D02*
X-13719952Y9679809D01*
X-13577095Y9679809D02*
X-13577095Y10179809D01*
X-13624714Y10108380D01*
X-13672333Y10060761D01*
X-13719952Y10036952D01*
X-13196142Y9679809D02*
X-13100904Y9679809D01*
X-13053285Y9703619D01*
X-13029476Y9727428D01*
X-12981857Y9798857D01*
X-12958047Y9894095D01*
X-12958047Y10084571D01*
X-12981857Y10132190D01*
X-13005666Y10156000D01*
X-13053285Y10179809D01*
X-13148523Y10179809D01*
X-13196142Y10156000D01*
X-13219952Y10132190D01*
X-13243761Y10084571D01*
X-13243761Y9965523D01*
X-13219952Y9917904D01*
X-13196142Y9894095D01*
X-13148523Y9870285D01*
X-13053285Y9870285D01*
X-13005666Y9894095D01*
X-12981857Y9917904D01*
X-12958047Y9965523D01*
%TO.C,R18*%
X7933571Y10314809D02*
X7766904Y10552904D01*
X7647857Y10314809D02*
X7647857Y10814809D01*
X7838333Y10814809D01*
X7885952Y10791000D01*
X7909761Y10767190D01*
X7933571Y10719571D01*
X7933571Y10648142D01*
X7909761Y10600523D01*
X7885952Y10576714D01*
X7838333Y10552904D01*
X7647857Y10552904D01*
X8409761Y10314809D02*
X8124047Y10314809D01*
X8266904Y10314809D02*
X8266904Y10814809D01*
X8219285Y10743380D01*
X8171666Y10695761D01*
X8124047Y10671952D01*
X8695476Y10600523D02*
X8647857Y10624333D01*
X8624047Y10648142D01*
X8600238Y10695761D01*
X8600238Y10719571D01*
X8624047Y10767190D01*
X8647857Y10791000D01*
X8695476Y10814809D01*
X8790714Y10814809D01*
X8838333Y10791000D01*
X8862142Y10767190D01*
X8885952Y10719571D01*
X8885952Y10695761D01*
X8862142Y10648142D01*
X8838333Y10624333D01*
X8790714Y10600523D01*
X8695476Y10600523D01*
X8647857Y10576714D01*
X8624047Y10552904D01*
X8600238Y10505285D01*
X8600238Y10410047D01*
X8624047Y10362428D01*
X8647857Y10338619D01*
X8695476Y10314809D01*
X8790714Y10314809D01*
X8838333Y10338619D01*
X8862142Y10362428D01*
X8885952Y10410047D01*
X8885952Y10505285D01*
X8862142Y10552904D01*
X8838333Y10576714D01*
X8790714Y10600523D01*
%TO.C,R17*%
X15553571Y-3401190D02*
X15386904Y-3163095D01*
X15267857Y-3401190D02*
X15267857Y-2901190D01*
X15458333Y-2901190D01*
X15505952Y-2925000D01*
X15529761Y-2948809D01*
X15553571Y-2996428D01*
X15553571Y-3067857D01*
X15529761Y-3115476D01*
X15505952Y-3139285D01*
X15458333Y-3163095D01*
X15267857Y-3163095D01*
X16029761Y-3401190D02*
X15744047Y-3401190D01*
X15886904Y-3401190D02*
X15886904Y-2901190D01*
X15839285Y-2972619D01*
X15791666Y-3020238D01*
X15744047Y-3044047D01*
X16196428Y-2901190D02*
X16529761Y-2901190D01*
X16315476Y-3401190D01*
%TO.C,R16*%
X11108571Y-2004190D02*
X10941904Y-1766095D01*
X10822857Y-2004190D02*
X10822857Y-1504190D01*
X11013333Y-1504190D01*
X11060952Y-1528000D01*
X11084761Y-1551809D01*
X11108571Y-1599428D01*
X11108571Y-1670857D01*
X11084761Y-1718476D01*
X11060952Y-1742285D01*
X11013333Y-1766095D01*
X10822857Y-1766095D01*
X11584761Y-2004190D02*
X11299047Y-2004190D01*
X11441904Y-2004190D02*
X11441904Y-1504190D01*
X11394285Y-1575619D01*
X11346666Y-1623238D01*
X11299047Y-1647047D01*
X12013333Y-1504190D02*
X11918095Y-1504190D01*
X11870476Y-1528000D01*
X11846666Y-1551809D01*
X11799047Y-1623238D01*
X11775238Y-1718476D01*
X11775238Y-1908952D01*
X11799047Y-1956571D01*
X11822857Y-1980380D01*
X11870476Y-2004190D01*
X11965714Y-2004190D01*
X12013333Y-1980380D01*
X12037142Y-1956571D01*
X12060952Y-1908952D01*
X12060952Y-1789904D01*
X12037142Y-1742285D01*
X12013333Y-1718476D01*
X11965714Y-1694666D01*
X11870476Y-1694666D01*
X11822857Y-1718476D01*
X11799047Y-1742285D01*
X11775238Y-1789904D01*
%TO.C,R15*%
X9584571Y10314809D02*
X9417904Y10552904D01*
X9298857Y10314809D02*
X9298857Y10814809D01*
X9489333Y10814809D01*
X9536952Y10791000D01*
X9560761Y10767190D01*
X9584571Y10719571D01*
X9584571Y10648142D01*
X9560761Y10600523D01*
X9536952Y10576714D01*
X9489333Y10552904D01*
X9298857Y10552904D01*
X10060761Y10314809D02*
X9775047Y10314809D01*
X9917904Y10314809D02*
X9917904Y10814809D01*
X9870285Y10743380D01*
X9822666Y10695761D01*
X9775047Y10671952D01*
X10513142Y10814809D02*
X10275047Y10814809D01*
X10251238Y10576714D01*
X10275047Y10600523D01*
X10322666Y10624333D01*
X10441714Y10624333D01*
X10489333Y10600523D01*
X10513142Y10576714D01*
X10536952Y10529095D01*
X10536952Y10410047D01*
X10513142Y10362428D01*
X10489333Y10338619D01*
X10441714Y10314809D01*
X10322666Y10314809D01*
X10275047Y10338619D01*
X10251238Y10362428D01*
%TO.C,R14*%
X17458571Y-3401190D02*
X17291904Y-3163095D01*
X17172857Y-3401190D02*
X17172857Y-2901190D01*
X17363333Y-2901190D01*
X17410952Y-2925000D01*
X17434761Y-2948809D01*
X17458571Y-2996428D01*
X17458571Y-3067857D01*
X17434761Y-3115476D01*
X17410952Y-3139285D01*
X17363333Y-3163095D01*
X17172857Y-3163095D01*
X17934761Y-3401190D02*
X17649047Y-3401190D01*
X17791904Y-3401190D02*
X17791904Y-2901190D01*
X17744285Y-2972619D01*
X17696666Y-3020238D01*
X17649047Y-3044047D01*
X18363333Y-3067857D02*
X18363333Y-3401190D01*
X18244285Y-2877380D02*
X18125238Y-3234523D01*
X18434761Y-3234523D01*
%TO.C,R12*%
X22538571Y6758809D02*
X22371904Y6996904D01*
X22252857Y6758809D02*
X22252857Y7258809D01*
X22443333Y7258809D01*
X22490952Y7235000D01*
X22514761Y7211190D01*
X22538571Y7163571D01*
X22538571Y7092142D01*
X22514761Y7044523D01*
X22490952Y7020714D01*
X22443333Y6996904D01*
X22252857Y6996904D01*
X23014761Y6758809D02*
X22729047Y6758809D01*
X22871904Y6758809D02*
X22871904Y7258809D01*
X22824285Y7187380D01*
X22776666Y7139761D01*
X22729047Y7115952D01*
X23205238Y7211190D02*
X23229047Y7235000D01*
X23276666Y7258809D01*
X23395714Y7258809D01*
X23443333Y7235000D01*
X23467142Y7211190D01*
X23490952Y7163571D01*
X23490952Y7115952D01*
X23467142Y7044523D01*
X23181428Y6758809D01*
X23490952Y6758809D01*
%TO.C,R11*%
X-8663809Y-956428D02*
X-8901904Y-1123095D01*
X-8663809Y-1242142D02*
X-9163809Y-1242142D01*
X-9163809Y-1051666D01*
X-9140000Y-1004047D01*
X-9116190Y-980238D01*
X-9068571Y-956428D01*
X-8997142Y-956428D01*
X-8949523Y-980238D01*
X-8925714Y-1004047D01*
X-8901904Y-1051666D01*
X-8901904Y-1242142D01*
X-8663809Y-480238D02*
X-8663809Y-765952D01*
X-8663809Y-623095D02*
X-9163809Y-623095D01*
X-9092380Y-670714D01*
X-9044761Y-718333D01*
X-9020952Y-765952D01*
X-8663809Y-4047D02*
X-8663809Y-289761D01*
X-8663809Y-146904D02*
X-9163809Y-146904D01*
X-9092380Y-194523D01*
X-9044761Y-242142D01*
X-9020952Y-289761D01*
%TO.C,R10*%
X18006190Y14283571D02*
X17768095Y14116904D01*
X18006190Y13997857D02*
X17506190Y13997857D01*
X17506190Y14188333D01*
X17530000Y14235952D01*
X17553809Y14259761D01*
X17601428Y14283571D01*
X17672857Y14283571D01*
X17720476Y14259761D01*
X17744285Y14235952D01*
X17768095Y14188333D01*
X17768095Y13997857D01*
X18006190Y14759761D02*
X18006190Y14474047D01*
X18006190Y14616904D02*
X17506190Y14616904D01*
X17577619Y14569285D01*
X17625238Y14521666D01*
X17649047Y14474047D01*
X17506190Y15069285D02*
X17506190Y15116904D01*
X17530000Y15164523D01*
X17553809Y15188333D01*
X17601428Y15212142D01*
X17696666Y15235952D01*
X17815714Y15235952D01*
X17910952Y15212142D01*
X17958571Y15188333D01*
X17982380Y15164523D01*
X18006190Y15116904D01*
X18006190Y15069285D01*
X17982380Y15021666D01*
X17958571Y14997857D01*
X17910952Y14974047D01*
X17815714Y14950238D01*
X17696666Y14950238D01*
X17601428Y14974047D01*
X17553809Y14997857D01*
X17530000Y15021666D01*
X17506190Y15069285D01*
%TO.C,R9*%
X14196190Y13886666D02*
X13958095Y13720000D01*
X14196190Y13600952D02*
X13696190Y13600952D01*
X13696190Y13791428D01*
X13720000Y13839047D01*
X13743809Y13862857D01*
X13791428Y13886666D01*
X13862857Y13886666D01*
X13910476Y13862857D01*
X13934285Y13839047D01*
X13958095Y13791428D01*
X13958095Y13600952D01*
X14196190Y14124761D02*
X14196190Y14220000D01*
X14172380Y14267619D01*
X14148571Y14291428D01*
X14077142Y14339047D01*
X13981904Y14362857D01*
X13791428Y14362857D01*
X13743809Y14339047D01*
X13720000Y14315238D01*
X13696190Y14267619D01*
X13696190Y14172380D01*
X13720000Y14124761D01*
X13743809Y14100952D01*
X13791428Y14077142D01*
X13910476Y14077142D01*
X13958095Y14100952D01*
X13981904Y14124761D01*
X14005714Y14172380D01*
X14005714Y14267619D01*
X13981904Y14315238D01*
X13958095Y14339047D01*
X13910476Y14362857D01*
%TO.C,R8*%
X7536666Y-10386190D02*
X7370000Y-10148095D01*
X7250952Y-10386190D02*
X7250952Y-9886190D01*
X7441428Y-9886190D01*
X7489047Y-9910000D01*
X7512857Y-9933809D01*
X7536666Y-9981428D01*
X7536666Y-10052857D01*
X7512857Y-10100476D01*
X7489047Y-10124285D01*
X7441428Y-10148095D01*
X7250952Y-10148095D01*
X7822380Y-10100476D02*
X7774761Y-10076666D01*
X7750952Y-10052857D01*
X7727142Y-10005238D01*
X7727142Y-9981428D01*
X7750952Y-9933809D01*
X7774761Y-9910000D01*
X7822380Y-9886190D01*
X7917619Y-9886190D01*
X7965238Y-9910000D01*
X7989047Y-9933809D01*
X8012857Y-9981428D01*
X8012857Y-10005238D01*
X7989047Y-10052857D01*
X7965238Y-10076666D01*
X7917619Y-10100476D01*
X7822380Y-10100476D01*
X7774761Y-10124285D01*
X7750952Y-10148095D01*
X7727142Y-10195714D01*
X7727142Y-10290952D01*
X7750952Y-10338571D01*
X7774761Y-10362380D01*
X7822380Y-10386190D01*
X7917619Y-10386190D01*
X7965238Y-10362380D01*
X7989047Y-10338571D01*
X8012857Y-10290952D01*
X8012857Y-10195714D01*
X7989047Y-10148095D01*
X7965238Y-10124285D01*
X7917619Y-10100476D01*
%TO.C,R7*%
X-2313809Y11981666D02*
X-2551904Y11815000D01*
X-2313809Y11695952D02*
X-2813809Y11695952D01*
X-2813809Y11886428D01*
X-2790000Y11934047D01*
X-2766190Y11957857D01*
X-2718571Y11981666D01*
X-2647142Y11981666D01*
X-2599523Y11957857D01*
X-2575714Y11934047D01*
X-2551904Y11886428D01*
X-2551904Y11695952D01*
X-2813809Y12148333D02*
X-2813809Y12481666D01*
X-2313809Y12267380D01*
%TO.C,R6*%
X-718333Y11203809D02*
X-885000Y11441904D01*
X-1004047Y11203809D02*
X-1004047Y11703809D01*
X-813571Y11703809D01*
X-765952Y11680000D01*
X-742142Y11656190D01*
X-718333Y11608571D01*
X-718333Y11537142D01*
X-742142Y11489523D01*
X-765952Y11465714D01*
X-813571Y11441904D01*
X-1004047Y11441904D01*
X-289761Y11703809D02*
X-385000Y11703809D01*
X-432619Y11680000D01*
X-456428Y11656190D01*
X-504047Y11584761D01*
X-527857Y11489523D01*
X-527857Y11299047D01*
X-504047Y11251428D01*
X-480238Y11227619D01*
X-432619Y11203809D01*
X-337380Y11203809D01*
X-289761Y11227619D01*
X-265952Y11251428D01*
X-242142Y11299047D01*
X-242142Y11418095D01*
X-265952Y11465714D01*
X-289761Y11489523D01*
X-337380Y11513333D01*
X-432619Y11513333D01*
X-480238Y11489523D01*
X-504047Y11465714D01*
X-527857Y11418095D01*
%TO.C,R5*%
X2456666Y-2131190D02*
X2290000Y-1893095D01*
X2170952Y-2131190D02*
X2170952Y-1631190D01*
X2361428Y-1631190D01*
X2409047Y-1655000D01*
X2432857Y-1678809D01*
X2456666Y-1726428D01*
X2456666Y-1797857D01*
X2432857Y-1845476D01*
X2409047Y-1869285D01*
X2361428Y-1893095D01*
X2170952Y-1893095D01*
X2909047Y-1631190D02*
X2670952Y-1631190D01*
X2647142Y-1869285D01*
X2670952Y-1845476D01*
X2718571Y-1821666D01*
X2837619Y-1821666D01*
X2885238Y-1845476D01*
X2909047Y-1869285D01*
X2932857Y-1916904D01*
X2932857Y-2035952D01*
X2909047Y-2083571D01*
X2885238Y-2107380D01*
X2837619Y-2131190D01*
X2718571Y-2131190D01*
X2670952Y-2107380D01*
X2647142Y-2083571D01*
%TO.C,R4*%
X-2623333Y-2131190D02*
X-2790000Y-1893095D01*
X-2909047Y-2131190D02*
X-2909047Y-1631190D01*
X-2718571Y-1631190D01*
X-2670952Y-1655000D01*
X-2647142Y-1678809D01*
X-2623333Y-1726428D01*
X-2623333Y-1797857D01*
X-2647142Y-1845476D01*
X-2670952Y-1869285D01*
X-2718571Y-1893095D01*
X-2909047Y-1893095D01*
X-2194761Y-1797857D02*
X-2194761Y-2131190D01*
X-2313809Y-1607380D02*
X-2432857Y-1964523D01*
X-2123333Y-1964523D01*
%TO.C,R3*%
X-20093809Y-10243333D02*
X-20331904Y-10410000D01*
X-20093809Y-10529047D02*
X-20593809Y-10529047D01*
X-20593809Y-10338571D01*
X-20570000Y-10290952D01*
X-20546190Y-10267142D01*
X-20498571Y-10243333D01*
X-20427142Y-10243333D01*
X-20379523Y-10267142D01*
X-20355714Y-10290952D01*
X-20331904Y-10338571D01*
X-20331904Y-10529047D01*
X-20593809Y-10076666D02*
X-20593809Y-9767142D01*
X-20403333Y-9933809D01*
X-20403333Y-9862380D01*
X-20379523Y-9814761D01*
X-20355714Y-9790952D01*
X-20308095Y-9767142D01*
X-20189047Y-9767142D01*
X-20141428Y-9790952D01*
X-20117619Y-9814761D01*
X-20093809Y-9862380D01*
X-20093809Y-10005238D01*
X-20117619Y-10052857D01*
X-20141428Y-10076666D01*
%TO.C,R2*%
X-83333Y22793809D02*
X-250000Y23031904D01*
X-369047Y22793809D02*
X-369047Y23293809D01*
X-178571Y23293809D01*
X-130952Y23270000D01*
X-107142Y23246190D01*
X-83333Y23198571D01*
X-83333Y23127142D01*
X-107142Y23079523D01*
X-130952Y23055714D01*
X-178571Y23031904D01*
X-369047Y23031904D01*
X107142Y23246190D02*
X130952Y23270000D01*
X178571Y23293809D01*
X297619Y23293809D01*
X345238Y23270000D01*
X369047Y23246190D01*
X392857Y23198571D01*
X392857Y23150952D01*
X369047Y23079523D01*
X83333Y22793809D01*
X392857Y22793809D01*
%TO.C,R1*%
X17061666Y-13086190D02*
X16895000Y-12848095D01*
X16775952Y-13086190D02*
X16775952Y-12586190D01*
X16966428Y-12586190D01*
X17014047Y-12610000D01*
X17037857Y-12633809D01*
X17061666Y-12681428D01*
X17061666Y-12752857D01*
X17037857Y-12800476D01*
X17014047Y-12824285D01*
X16966428Y-12848095D01*
X16775952Y-12848095D01*
X17537857Y-13086190D02*
X17252142Y-13086190D01*
X17395000Y-13086190D02*
X17395000Y-12586190D01*
X17347380Y-12657619D01*
X17299761Y-12705238D01*
X17252142Y-12729047D01*
%TO.C,J1*%
X7426190Y-18901666D02*
X7783333Y-18901666D01*
X7854761Y-18925476D01*
X7902380Y-18973095D01*
X7926190Y-19044523D01*
X7926190Y-19092142D01*
X7926190Y-18401666D02*
X7926190Y-18687380D01*
X7926190Y-18544523D02*
X7426190Y-18544523D01*
X7497619Y-18592142D01*
X7545238Y-18639761D01*
X7569047Y-18687380D01*
%TO.C,C17*%
X-4901428Y-13656428D02*
X-4877619Y-13680238D01*
X-4853809Y-13751666D01*
X-4853809Y-13799285D01*
X-4877619Y-13870714D01*
X-4925238Y-13918333D01*
X-4972857Y-13942142D01*
X-5068095Y-13965952D01*
X-5139523Y-13965952D01*
X-5234761Y-13942142D01*
X-5282380Y-13918333D01*
X-5330000Y-13870714D01*
X-5353809Y-13799285D01*
X-5353809Y-13751666D01*
X-5330000Y-13680238D01*
X-5306190Y-13656428D01*
X-4853809Y-13180238D02*
X-4853809Y-13465952D01*
X-4853809Y-13323095D02*
X-5353809Y-13323095D01*
X-5282380Y-13370714D01*
X-5234761Y-13418333D01*
X-5210952Y-13465952D01*
X-5353809Y-13013571D02*
X-5353809Y-12680238D01*
X-4853809Y-12894523D01*
%TO.C,C16*%
X-12386428Y-16053571D02*
X-12410238Y-16077380D01*
X-12481666Y-16101190D01*
X-12529285Y-16101190D01*
X-12600714Y-16077380D01*
X-12648333Y-16029761D01*
X-12672142Y-15982142D01*
X-12695952Y-15886904D01*
X-12695952Y-15815476D01*
X-12672142Y-15720238D01*
X-12648333Y-15672619D01*
X-12600714Y-15625000D01*
X-12529285Y-15601190D01*
X-12481666Y-15601190D01*
X-12410238Y-15625000D01*
X-12386428Y-15648809D01*
X-11910238Y-16101190D02*
X-12195952Y-16101190D01*
X-12053095Y-16101190D02*
X-12053095Y-15601190D01*
X-12100714Y-15672619D01*
X-12148333Y-15720238D01*
X-12195952Y-15744047D01*
X-11481666Y-15601190D02*
X-11576904Y-15601190D01*
X-11624523Y-15625000D01*
X-11648333Y-15648809D01*
X-11695952Y-15720238D01*
X-11719761Y-15815476D01*
X-11719761Y-16005952D01*
X-11695952Y-16053571D01*
X-11672142Y-16077380D01*
X-11624523Y-16101190D01*
X-11529285Y-16101190D01*
X-11481666Y-16077380D01*
X-11457857Y-16053571D01*
X-11434047Y-16005952D01*
X-11434047Y-15886904D01*
X-11457857Y-15839285D01*
X-11481666Y-15815476D01*
X-11529285Y-15791666D01*
X-11624523Y-15791666D01*
X-11672142Y-15815476D01*
X-11695952Y-15839285D01*
X-11719761Y-15886904D01*
%TO.C,C15*%
X-10481428Y-10973571D02*
X-10505238Y-10997380D01*
X-10576666Y-11021190D01*
X-10624285Y-11021190D01*
X-10695714Y-10997380D01*
X-10743333Y-10949761D01*
X-10767142Y-10902142D01*
X-10790952Y-10806904D01*
X-10790952Y-10735476D01*
X-10767142Y-10640238D01*
X-10743333Y-10592619D01*
X-10695714Y-10545000D01*
X-10624285Y-10521190D01*
X-10576666Y-10521190D01*
X-10505238Y-10545000D01*
X-10481428Y-10568809D01*
X-10005238Y-11021190D02*
X-10290952Y-11021190D01*
X-10148095Y-11021190D02*
X-10148095Y-10521190D01*
X-10195714Y-10592619D01*
X-10243333Y-10640238D01*
X-10290952Y-10664047D01*
X-9552857Y-10521190D02*
X-9790952Y-10521190D01*
X-9814761Y-10759285D01*
X-9790952Y-10735476D01*
X-9743333Y-10711666D01*
X-9624285Y-10711666D01*
X-9576666Y-10735476D01*
X-9552857Y-10759285D01*
X-9529047Y-10806904D01*
X-9529047Y-10925952D01*
X-9552857Y-10973571D01*
X-9576666Y-10997380D01*
X-9624285Y-11021190D01*
X-9743333Y-11021190D01*
X-9790952Y-10997380D01*
X-9814761Y-10973571D01*
%TO.C,C14*%
X-10616428Y-18101428D02*
X-10592619Y-18125238D01*
X-10568809Y-18196666D01*
X-10568809Y-18244285D01*
X-10592619Y-18315714D01*
X-10640238Y-18363333D01*
X-10687857Y-18387142D01*
X-10783095Y-18410952D01*
X-10854523Y-18410952D01*
X-10949761Y-18387142D01*
X-10997380Y-18363333D01*
X-11045000Y-18315714D01*
X-11068809Y-18244285D01*
X-11068809Y-18196666D01*
X-11045000Y-18125238D01*
X-11021190Y-18101428D01*
X-10568809Y-17625238D02*
X-10568809Y-17910952D01*
X-10568809Y-17768095D02*
X-11068809Y-17768095D01*
X-10997380Y-17815714D01*
X-10949761Y-17863333D01*
X-10925952Y-17910952D01*
X-10902142Y-17196666D02*
X-10568809Y-17196666D01*
X-11092619Y-17315714D02*
X-10735476Y-17434761D01*
X-10735476Y-17125238D01*
%TO.C,C13*%
X-12132428Y9727428D02*
X-12156238Y9703619D01*
X-12227666Y9679809D01*
X-12275285Y9679809D01*
X-12346714Y9703619D01*
X-12394333Y9751238D01*
X-12418142Y9798857D01*
X-12441952Y9894095D01*
X-12441952Y9965523D01*
X-12418142Y10060761D01*
X-12394333Y10108380D01*
X-12346714Y10156000D01*
X-12275285Y10179809D01*
X-12227666Y10179809D01*
X-12156238Y10156000D01*
X-12132428Y10132190D01*
X-11656238Y9679809D02*
X-11941952Y9679809D01*
X-11799095Y9679809D02*
X-11799095Y10179809D01*
X-11846714Y10108380D01*
X-11894333Y10060761D01*
X-11941952Y10036952D01*
X-11489571Y10179809D02*
X-11180047Y10179809D01*
X-11346714Y9989333D01*
X-11275285Y9989333D01*
X-11227666Y9965523D01*
X-11203857Y9941714D01*
X-11180047Y9894095D01*
X-11180047Y9775047D01*
X-11203857Y9727428D01*
X-11227666Y9703619D01*
X-11275285Y9679809D01*
X-11418142Y9679809D01*
X-11465761Y9703619D01*
X-11489571Y9727428D01*
%TO.C,C12*%
X-18736428Y9727428D02*
X-18760238Y9703619D01*
X-18831666Y9679809D01*
X-18879285Y9679809D01*
X-18950714Y9703619D01*
X-18998333Y9751238D01*
X-19022142Y9798857D01*
X-19045952Y9894095D01*
X-19045952Y9965523D01*
X-19022142Y10060761D01*
X-18998333Y10108380D01*
X-18950714Y10156000D01*
X-18879285Y10179809D01*
X-18831666Y10179809D01*
X-18760238Y10156000D01*
X-18736428Y10132190D01*
X-18260238Y9679809D02*
X-18545952Y9679809D01*
X-18403095Y9679809D02*
X-18403095Y10179809D01*
X-18450714Y10108380D01*
X-18498333Y10060761D01*
X-18545952Y10036952D01*
X-18069761Y10132190D02*
X-18045952Y10156000D01*
X-17998333Y10179809D01*
X-17879285Y10179809D01*
X-17831666Y10156000D01*
X-17807857Y10132190D01*
X-17784047Y10084571D01*
X-17784047Y10036952D01*
X-17807857Y9965523D01*
X-18093571Y9679809D01*
X-17784047Y9679809D01*
%TO.C,C11*%
X-15434428Y9727428D02*
X-15458238Y9703619D01*
X-15529666Y9679809D01*
X-15577285Y9679809D01*
X-15648714Y9703619D01*
X-15696333Y9751238D01*
X-15720142Y9798857D01*
X-15743952Y9894095D01*
X-15743952Y9965523D01*
X-15720142Y10060761D01*
X-15696333Y10108380D01*
X-15648714Y10156000D01*
X-15577285Y10179809D01*
X-15529666Y10179809D01*
X-15458238Y10156000D01*
X-15434428Y10132190D01*
X-14958238Y9679809D02*
X-15243952Y9679809D01*
X-15101095Y9679809D02*
X-15101095Y10179809D01*
X-15148714Y10108380D01*
X-15196333Y10060761D01*
X-15243952Y10036952D01*
X-14482047Y9679809D02*
X-14767761Y9679809D01*
X-14624904Y9679809D02*
X-14624904Y10179809D01*
X-14672523Y10108380D01*
X-14720142Y10060761D01*
X-14767761Y10036952D01*
%TO.C,C10*%
X-11370428Y6171428D02*
X-11394238Y6147619D01*
X-11465666Y6123809D01*
X-11513285Y6123809D01*
X-11584714Y6147619D01*
X-11632333Y6195238D01*
X-11656142Y6242857D01*
X-11679952Y6338095D01*
X-11679952Y6409523D01*
X-11656142Y6504761D01*
X-11632333Y6552380D01*
X-11584714Y6600000D01*
X-11513285Y6623809D01*
X-11465666Y6623809D01*
X-11394238Y6600000D01*
X-11370428Y6576190D01*
X-10894238Y6123809D02*
X-11179952Y6123809D01*
X-11037095Y6123809D02*
X-11037095Y6623809D01*
X-11084714Y6552380D01*
X-11132333Y6504761D01*
X-11179952Y6480952D01*
X-10584714Y6623809D02*
X-10537095Y6623809D01*
X-10489476Y6600000D01*
X-10465666Y6576190D01*
X-10441857Y6528571D01*
X-10418047Y6433333D01*
X-10418047Y6314285D01*
X-10441857Y6219047D01*
X-10465666Y6171428D01*
X-10489476Y6147619D01*
X-10537095Y6123809D01*
X-10584714Y6123809D01*
X-10632333Y6147619D01*
X-10656142Y6171428D01*
X-10679952Y6219047D01*
X-10703761Y6314285D01*
X-10703761Y6433333D01*
X-10679952Y6528571D01*
X-10656142Y6576190D01*
X-10632333Y6600000D01*
X-10584714Y6623809D01*
%TO.C,C9*%
X-11386333Y8076428D02*
X-11410142Y8052619D01*
X-11481571Y8028809D01*
X-11529190Y8028809D01*
X-11600619Y8052619D01*
X-11648238Y8100238D01*
X-11672047Y8147857D01*
X-11695857Y8243095D01*
X-11695857Y8314523D01*
X-11672047Y8409761D01*
X-11648238Y8457380D01*
X-11600619Y8505000D01*
X-11529190Y8528809D01*
X-11481571Y8528809D01*
X-11410142Y8505000D01*
X-11386333Y8481190D01*
X-11148238Y8028809D02*
X-11053000Y8028809D01*
X-11005380Y8052619D01*
X-10981571Y8076428D01*
X-10933952Y8147857D01*
X-10910142Y8243095D01*
X-10910142Y8433571D01*
X-10933952Y8481190D01*
X-10957761Y8505000D01*
X-11005380Y8528809D01*
X-11100619Y8528809D01*
X-11148238Y8505000D01*
X-11172047Y8481190D01*
X-11195857Y8433571D01*
X-11195857Y8314523D01*
X-11172047Y8266904D01*
X-11148238Y8243095D01*
X-11100619Y8219285D01*
X-11005380Y8219285D01*
X-10957761Y8243095D01*
X-10933952Y8266904D01*
X-10910142Y8314523D01*
%TO.C,C8*%
X22141666Y8711428D02*
X22117857Y8687619D01*
X22046428Y8663809D01*
X21998809Y8663809D01*
X21927380Y8687619D01*
X21879761Y8735238D01*
X21855952Y8782857D01*
X21832142Y8878095D01*
X21832142Y8949523D01*
X21855952Y9044761D01*
X21879761Y9092380D01*
X21927380Y9140000D01*
X21998809Y9163809D01*
X22046428Y9163809D01*
X22117857Y9140000D01*
X22141666Y9116190D01*
X22427380Y8949523D02*
X22379761Y8973333D01*
X22355952Y8997142D01*
X22332142Y9044761D01*
X22332142Y9068571D01*
X22355952Y9116190D01*
X22379761Y9140000D01*
X22427380Y9163809D01*
X22522619Y9163809D01*
X22570238Y9140000D01*
X22594047Y9116190D01*
X22617857Y9068571D01*
X22617857Y9044761D01*
X22594047Y8997142D01*
X22570238Y8973333D01*
X22522619Y8949523D01*
X22427380Y8949523D01*
X22379761Y8925714D01*
X22355952Y8901904D01*
X22332142Y8854285D01*
X22332142Y8759047D01*
X22355952Y8711428D01*
X22379761Y8687619D01*
X22427380Y8663809D01*
X22522619Y8663809D01*
X22570238Y8687619D01*
X22594047Y8711428D01*
X22617857Y8759047D01*
X22617857Y8854285D01*
X22594047Y8901904D01*
X22570238Y8925714D01*
X22522619Y8949523D01*
%TO.C,C7*%
X-20403333Y2836428D02*
X-20427142Y2812619D01*
X-20498571Y2788809D01*
X-20546190Y2788809D01*
X-20617619Y2812619D01*
X-20665238Y2860238D01*
X-20689047Y2907857D01*
X-20712857Y3003095D01*
X-20712857Y3074523D01*
X-20689047Y3169761D01*
X-20665238Y3217380D01*
X-20617619Y3265000D01*
X-20546190Y3288809D01*
X-20498571Y3288809D01*
X-20427142Y3265000D01*
X-20403333Y3241190D01*
X-20236666Y3288809D02*
X-19903333Y3288809D01*
X-20117619Y2788809D01*
%TO.C,C6*%
X22141666Y4901428D02*
X22117857Y4877619D01*
X22046428Y4853809D01*
X21998809Y4853809D01*
X21927380Y4877619D01*
X21879761Y4925238D01*
X21855952Y4972857D01*
X21832142Y5068095D01*
X21832142Y5139523D01*
X21855952Y5234761D01*
X21879761Y5282380D01*
X21927380Y5330000D01*
X21998809Y5353809D01*
X22046428Y5353809D01*
X22117857Y5330000D01*
X22141666Y5306190D01*
X22570238Y5353809D02*
X22475000Y5353809D01*
X22427380Y5330000D01*
X22403571Y5306190D01*
X22355952Y5234761D01*
X22332142Y5139523D01*
X22332142Y4949047D01*
X22355952Y4901428D01*
X22379761Y4877619D01*
X22427380Y4853809D01*
X22522619Y4853809D01*
X22570238Y4877619D01*
X22594047Y4901428D01*
X22617857Y4949047D01*
X22617857Y5068095D01*
X22594047Y5115714D01*
X22570238Y5139523D01*
X22522619Y5163333D01*
X22427380Y5163333D01*
X22379761Y5139523D01*
X22355952Y5115714D01*
X22332142Y5068095D01*
%TO.C,C5*%
X16053571Y13886666D02*
X16077380Y13862857D01*
X16101190Y13791428D01*
X16101190Y13743809D01*
X16077380Y13672380D01*
X16029761Y13624761D01*
X15982142Y13600952D01*
X15886904Y13577142D01*
X15815476Y13577142D01*
X15720238Y13600952D01*
X15672619Y13624761D01*
X15625000Y13672380D01*
X15601190Y13743809D01*
X15601190Y13791428D01*
X15625000Y13862857D01*
X15648809Y13886666D01*
X15601190Y14339047D02*
X15601190Y14100952D01*
X15839285Y14077142D01*
X15815476Y14100952D01*
X15791666Y14148571D01*
X15791666Y14267619D01*
X15815476Y14315238D01*
X15839285Y14339047D01*
X15886904Y14362857D01*
X16005952Y14362857D01*
X16053571Y14339047D01*
X16077380Y14315238D01*
X16101190Y14267619D01*
X16101190Y14148571D01*
X16077380Y14100952D01*
X16053571Y14077142D01*
%TO.C,C3*%
X9068571Y-14688333D02*
X9092380Y-14712142D01*
X9116190Y-14783571D01*
X9116190Y-14831190D01*
X9092380Y-14902619D01*
X9044761Y-14950238D01*
X8997142Y-14974047D01*
X8901904Y-14997857D01*
X8830476Y-14997857D01*
X8735238Y-14974047D01*
X8687619Y-14950238D01*
X8640000Y-14902619D01*
X8616190Y-14831190D01*
X8616190Y-14783571D01*
X8640000Y-14712142D01*
X8663809Y-14688333D01*
X8616190Y-14521666D02*
X8616190Y-14212142D01*
X8806666Y-14378809D01*
X8806666Y-14307380D01*
X8830476Y-14259761D01*
X8854285Y-14235952D01*
X8901904Y-14212142D01*
X9020952Y-14212142D01*
X9068571Y-14235952D01*
X9092380Y-14259761D01*
X9116190Y-14307380D01*
X9116190Y-14450238D01*
X9092380Y-14497857D01*
X9068571Y-14521666D01*
%TO.C,C1*%
X2456666Y6806428D02*
X2432857Y6782619D01*
X2361428Y6758809D01*
X2313809Y6758809D01*
X2242380Y6782619D01*
X2194761Y6830238D01*
X2170952Y6877857D01*
X2147142Y6973095D01*
X2147142Y7044523D01*
X2170952Y7139761D01*
X2194761Y7187380D01*
X2242380Y7235000D01*
X2313809Y7258809D01*
X2361428Y7258809D01*
X2432857Y7235000D01*
X2456666Y7211190D01*
X2932857Y6758809D02*
X2647142Y6758809D01*
X2790000Y6758809D02*
X2790000Y7258809D01*
X2742380Y7187380D01*
X2694761Y7139761D01*
X2647142Y7115952D01*
%TD*%
M02*
